<svg xmlns="http://www.w3.org/2000/svg" viewBox="0 0 180 180"><defs><style>.cls-1{fill:#abfffe;}</style></defs><g id="EV3"><path class="cls-1" d="M139.65,78,118,77.92a4.72,4.72,0,0,0-3.69,2L102.72,99.48c-.67,1.13-.11,2.06,1.24,2.06l34.6,0c1.37,0,1.62-.68.57-1.52l-11-8.81a1.8,1.8,0,0,1,.06-3l12-8.78C141.24,78.67,141,78,139.65,78Z"/><path class="cls-1" d="M66.3,79.88a4.77,4.77,0,0,0-3.71-2.06l-21.83.1c-1.37,0-1.59.66-.51,1.46l12.08,8.85a1.8,1.8,0,0,1,.06,3l-11.11,8.89c-1.05.84-.79,1.52.57,1.52l34.84,0c1.36,0,1.92-.94,1.25-2.07Z"/><path class="cls-1" d="M160,0H20A20.06,20.06,0,0,0,0,20V160a20.06,20.06,0,0,0,20,20H160a20.06,20.06,0,0,0,20-20V20A20.06,20.06,0,0,0,160,0ZM146.27,90.84,164,107.17c.5.46.34.83-.35.83H16.39c-.69,0-.85-.37-.35-.83L33.73,90.84a1.13,1.13,0,0,0,0-1.68L16,72.83c-.5-.46-.34-.83.35-.83H71.85a2.49,2.49,0,0,1,1.9,1L89.35,98a.71.71,0,0,0,1.3,0L106.25,73a2.49,2.49,0,0,1,1.9-1h55.46c.69,0,.85.37.35.83L146.27,89.16A1.13,1.13,0,0,0,146.27,90.84Z"/></g></svg>