<svg id="Layer_1" data-name="Layer 1" xmlns="http://www.w3.org/2000/svg" viewBox="0 0 300 72"><defs><style>.cls-1{fill:#abfffe;}</style></defs><path class="cls-1" d="M263.68,37.67a2.22,2.22,0,0,1,0-3.34L299.41,1.67c1-.92.69-1.67-.7-1.67h-112a5,5,0,0,0-3.83,2.06L151.31,51.93a1.43,1.43,0,0,1-2.62,0L117.17,2.06A5,5,0,0,0,113.34,0H1.29C-.1,0-.42.75.59,1.67L36.32,34.33a2.22,2.22,0,0,1,0,3.34L.59,70.33c-1,.92-.69,1.67.7,1.67H298.71c1.39,0,1.71-.75.7-1.67ZM123.1,59.18l-70.36.1c-2.76,0-3.28-1.37-1.16-3.05L74,38.47a3.58,3.58,0,0,0-.13-6L49.5,14.75c-2.2-1.59-1.73-2.9,1-2.91l44.11-.2a9.65,9.65,0,0,1,7.49,4.12L125.63,55C127,57.31,125.85,59.17,123.1,59.18ZM251.33,14.94,227.13,32.5a3.58,3.58,0,0,0-.13,6l22.26,17.62c2.12,1.68,1.6,3-1.16,3l-69.9-.1c-2.74,0-3.86-1.86-2.51-4.12l23.37-39a9.51,9.51,0,0,1,7.44-4.09l43.8.19C253.06,12,253.52,13.35,251.33,14.94Z"/></svg>