<svg xmlns="http://www.w3.org/2000/svg" viewBox="0 0 1050 350"><defs><style>.cls-1{fill:#abfffe;}</style></defs><g id="Background"><path class="cls-1" d="M175,0A175,175,0,1,0,350,175,175,175,0,0,0,175,0Zm-.23,337.27a162.5,162.5,0,1,1,162.5-162.5A162.5,162.5,0,0,1,174.77,337.27Z"/></g><g id="EV3"><path class="cls-1" d="M289.11,177.19a2.26,2.26,0,0,1,0-3.38L325,140.69c1-.93.69-1.69-.7-1.69H211.8a5,5,0,0,0-3.85,2.09l-31.64,50.56a1.42,1.42,0,0,1-2.62,0l-31.64-50.56A5,5,0,0,0,138.2,139H25.73c-1.39,0-1.71.76-.7,1.69l35.86,33.12a2.26,2.26,0,0,1,0,3.38L25,210.31c-1,.93-.69,1.69.7,1.69H324.27c1.39,0,1.71-.76.7-1.69ZM148,199l-70.63.1c-2.77,0-3.29-1.38-1.16-3.08l22.53-18a3.66,3.66,0,0,0-.13-6.1L74.12,154c-2.2-1.62-1.74-3,1-3l44.27-.19a9.6,9.6,0,0,1,7.52,4.17l23.6,39.82C151.9,197.1,150.76,199,148,199Zm128.71-44.85L252.42,172a3.66,3.66,0,0,0-.13,6.1l22.34,17.86c2.13,1.7,1.61,3.09-1.16,3.09l-70.16-.1c-2.75,0-3.88-1.89-2.52-4.18l23.45-39.57a9.58,9.58,0,0,1,7.47-4.15l44,.19C278.45,151.2,278.91,152.53,276.71,154.15Z"/></g><g id="EVERYWHERE"><path class="cls-1" d="M365.48,138.31h48.07v8.14H374.61V170.1h38.17v8.14H374.61v25.31h38.94v8.14H365.48Z"/><path class="cls-1" d="M420.48,138.31h10.45l24.75,63.37,24.75-63.37h10.45l-29.59,73.38H450Z"/><path class="cls-1" d="M500.45,138.31h48.07v8.14H509.58V170.1h38.17v8.14H509.58v25.31h38.94v8.14H500.45Z"/><path class="cls-1" d="M586.8,182.53H572.17v29.16H563V138.31h29.48c13.42,0,23,8.59,23,22.11,0,13.2-9,20.47-19,21.35l19.8,29.92H605.5Zm4.62-36.08H572.17V174.5h19.25c8.69,0,14.63-5.82,14.63-14.08S600.11,146.45,591.42,146.45Z"/><path class="cls-1" d="M649.5,180.66l-28.93-42.35h10.67L654,172.41l22.77-34.1h10.67l-28.82,42.35v31H649.5Z"/><path class="cls-1" d="M736.94,152.5l-16.17,59.19h-9.9L690,138.31h10.12l16.28,61.17,16.83-61.17h7.59l16.84,61.17,16.16-61.17h10.13L763,211.69h-9.91Z"/><path class="cls-1" d="M846.17,178h-42.9v33.67h-9.13V138.31h9.13v31.58h42.9V138.31h9.13v73.38h-9.13Z"/><path class="cls-1" d="M872.46,138.31h48.07v8.14H881.59V170.1h38.17v8.14H881.59v25.31h38.94v8.14H872.46Z"/><path class="cls-1" d="M958.81,182.53H944.18v29.16h-9.13V138.31h29.48c13.42,0,23,8.59,23,22.11,0,13.2-9,20.47-19,21.35l19.8,29.92H977.51Zm4.62-36.08H944.18V174.5h19.25c8.69,0,14.63-5.82,14.63-14.08S972.12,146.45,963.43,146.45Z"/><path class="cls-1" d="M1001.93,138.31H1050v8.14h-38.94V170.1h38.17v8.14h-38.17v25.31H1050v8.14h-48.07Z"/></g></svg>