<svg xmlns="http://www.w3.org/2000/svg" viewBox="0 0 350 350"><defs><style>.cls-1{fill:#abfffe;}</style></defs><g id="Background"><path id="Outline_Path" data-name="Outline Path" class="cls-1" d="M175,0A175,175,0,1,0,350,175,175,175,0,0,0,175,0Zm-.23,337.27a162.5,162.5,0,1,1,162.5-162.5A162.5,162.5,0,0,1,174.77,337.27Z"/></g><g id="Everywhere"><g id="Everywhere-2" data-name="Everywhere"><path class="cls-1" d="M50.54,207H68v3H53.86v8.6H67.74v3H53.86v9.2H68v3H50.54Z"/><path class="cls-1" d="M70.54,207h3.8l9,23,9-23h3.8L85.38,233.68H81.26Z"/><path class="cls-1" d="M99.62,207H117.1v3H102.94v8.6h13.88v3H102.94v9.2H117.1v3H99.62Z"/><path class="cls-1" d="M131,223.08H125.7v10.6h-3.32V207H133.1c4.88,0,8.36,3.12,8.36,8a7.37,7.37,0,0,1-6.92,7.76l7.2,10.88h-3.92ZM132.7,210h-7v10.2h7a5.1,5.1,0,1,0,0-10.2Z"/><path class="cls-1" d="M153.82,222.4,143.3,207h3.88l8.28,12.4,8.28-12.4h3.88l-10.48,15.4v11.28h-3.32Z"/><path class="cls-1" d="M185.62,212.16l-5.88,21.52h-3.6L168.54,207h3.68l5.92,22.24L184.26,207H187l6.12,22.24L199,207h3.68l-7.6,26.68h-3.6Z"/><path class="cls-1" d="M225.34,221.44h-15.6v12.24h-3.32V207h3.32v11.48h15.6V207h3.32v26.68h-3.32Z"/><path class="cls-1" d="M234.9,207h17.48v3H238.22v8.6H252.1v3H238.22v9.2h14.16v3H234.9Z"/><path class="cls-1" d="M266.3,223.08H261v10.6h-3.32V207h10.72c4.88,0,8.36,3.12,8.36,8a7.37,7.37,0,0,1-6.92,7.76l7.2,10.88H273.1ZM268,210h-7v10.2h7a5.1,5.1,0,1,0,0-10.2Z"/><path class="cls-1" d="M282,207h17.48v3H285.3v8.6h13.88v3H285.3v9.2h14.16v3H282Z"/></g></g><g id="EV3"><g id="EV3-2" data-name="EV3"><path class="cls-1" d="M268.79,148.39a1.86,1.86,0,0,1,0-2.78l29.48-27.22c.82-.77.56-1.39-.58-1.39H205.24a4.12,4.12,0,0,0-3.15,1.72l-26,41.56a1.18,1.18,0,0,1-2.16,0l-26-41.56a4.12,4.12,0,0,0-3.15-1.72H52.31c-1.14,0-1.4.62-.58,1.39l29.48,27.22a1.86,1.86,0,0,1,0,2.78L51.73,175.61c-.82.77-.56,1.39.58,1.39H297.69c1.14,0,1.4-.62.58-1.39ZM152.47,166l-57.39.08c-2.25,0-2.67-1.12-.94-2.51L112.4,149a3,3,0,0,0-.1-5L92.44,129.4c-1.79-1.31-1.41-2.39.84-2.4l36-.16a7.82,7.82,0,0,1,6.1,3.39l19.18,32.35C155.64,164.46,154.71,166,152.47,166Zm105.77-36.44L238.55,144a3,3,0,0,0-.11,5l18.12,14.49c1.73,1.38,1.3,2.51-.95,2.51l-57-.08c-2.23,0-3.15-1.53-2-3.4l19.05-32.15a7.78,7.78,0,0,1,6.07-3.37l35.73.16C259.66,127.17,260,128.25,258.24,129.56Z"/></g></g></svg>