<svg xmlns="http://www.w3.org/2000/svg" viewBox="0 0 300 300"><defs><style>.cls-1{fill:#abfffe;}</style></defs><g id="Background"><path class="cls-1" d="M150,0A150,150,0,1,0,300,150,150,150,0,0,0,150,0Zm0,287.5A137.5,137.5,0,1,1,287.5,150,137.5,137.5,0,0,1,150,287.5Z"/></g><g id="Everywhere"><path class="cls-1" d="M44,176H59.47v4.39H48.66v5.22H59.24V190H48.66v5.57H59.47V200H44Z"/><path class="cls-1" d="M60.78,176h5.31l6.07,18.46,6-18.46H83.5l-8.42,24H69.24Z"/><path class="cls-1" d="M85.53,176H101v4.39H90.19v5.22h10.59V190H90.19v5.57H101V200H85.53Z"/><path class="cls-1" d="M112.71,191.4H109.3V200h-4.65V176h10.22c4.56,0,7.35,3.27,7.35,7.74,0,4.24-2.43,6.51-4.79,7.12l4.92,9.14H117Zm1.48-11H109.3V187h4.89a3.31,3.31,0,0,0,0-6.62Z"/><path class="cls-1" d="M131.23,190.18,122.81,176h5.31l5.44,9.64,5.38-9.64h5.31l-8.36,14.18V200h-4.66Z"/><path class="cls-1" d="M159.16,183.52,155.36,200h-5l-6.26-24h5.21l3.84,17.34L157.36,176H161l4.13,17.34,3.8-17.34h5.25L168,200H163Z"/><path class="cls-1" d="M191.35,189.93H181V200h-4.66V176H181v9.43h10.32V176H196v24h-4.69Z"/><path class="cls-1" d="M200.34,176h15.47v4.39H205v5.22h10.59V190H205v5.57h10.82V200H200.34Z"/><path class="cls-1" d="M227.51,191.4H224.1V200h-4.65V176h10.23c4.55,0,7.34,3.27,7.34,7.74,0,4.24-2.43,6.51-4.79,7.12l4.92,9.14h-5.34Zm1.48-11H224.1V187H229a3.31,3.31,0,0,0,0-6.62Z"/><path class="cls-1" d="M240.53,176H256v4.39H245.18v5.22h10.59V190H245.18v5.57H256V200H240.53Z"/></g><g id="EV3"><g id="EV3-2" data-name="EV3"><path class="cls-1" d="M230.33,126.16a1.53,1.53,0,0,1,0-2.32l25.26-22.68c.7-.64.48-1.16-.5-1.16H175.91a3.56,3.56,0,0,0-2.71,1.43l-22.28,34.63a1,1,0,0,1-1.84,0L126.8,101.43a3.56,3.56,0,0,0-2.71-1.43H44.91c-1,0-1.2.52-.5,1.16l25.26,22.68a1.53,1.53,0,0,1,0,2.32L44.41,148.84c-.7.64-.48,1.16.5,1.16H255.09c1,0,1.2-.52.5-1.16ZM130.7,140.83l-49.15.07c-1.93,0-2.29-.94-.81-2.09l15.64-12.17a2.46,2.46,0,0,0-.09-4.18l-17-12.13c-1.53-1.09-1.21-2,.72-2l30.81-.13A6.74,6.74,0,0,1,116,111l16.42,27C133.42,139.55,132.62,140.83,130.7,140.83Zm90.6-30.37-16.87,12a2.47,2.47,0,0,0-.09,4.18l15.52,12.07c1.48,1.16,1.12,2.1-.81,2.09l-48.83-.07c-1.91,0-2.7-1.27-1.76-2.82l16.33-26.8a6.74,6.74,0,0,1,5.2-2.81l30.6.13C222.51,108.47,222.84,109.37,221.3,110.46Z"/></g></g></svg>