<svg xmlns="http://www.w3.org/2000/svg" viewBox="0 0 1082.3 350"><defs><style>.cls-1{fill:#abfffe;}</style></defs><g id="Background"><path class="cls-1" d="M175,0A175,175,0,1,0,350,175,175,175,0,0,0,175,0Zm-.23,337.27a162.5,162.5,0,1,1,162.5-162.5A162.5,162.5,0,0,1,174.77,337.27Z"/></g><g id="EV3"><path class="cls-1" d="M289.11,177.19a2.26,2.26,0,0,1,0-3.38L325,140.69c1-.93.69-1.69-.7-1.69H211.8a5,5,0,0,0-3.85,2.09l-31.64,50.56a1.42,1.42,0,0,1-2.62,0l-31.64-50.56A5,5,0,0,0,138.2,139H25.73c-1.39,0-1.71.76-.7,1.69l35.86,33.12a2.26,2.26,0,0,1,0,3.38L25,210.31c-1,.93-.69,1.69.7,1.69H324.27c1.39,0,1.71-.76.7-1.69ZM148,199l-70.63.1c-2.77,0-3.29-1.38-1.16-3.08l22.53-18a3.66,3.66,0,0,0-.13-6.1L74.12,154c-2.2-1.62-1.74-3,1-3l44.27-.19a9.6,9.6,0,0,1,7.52,4.17l23.6,39.82C151.9,197.1,150.76,199,148,199Zm128.71-44.85L252.42,172a3.66,3.66,0,0,0-.13,6.1l22.34,17.86c2.13,1.7,1.61,3.09-1.16,3.09l-70.16-.1c-2.75,0-3.88-1.89-2.52-4.18l23.45-39.57a9.58,9.58,0,0,1,7.47-4.15l44,.19C278.45,151.2,278.91,152.53,276.71,154.15Z"/></g><g id="EVERYWHERE"><path class="cls-1" d="M375,138.31h49.28V148H386v21.45h37.51v9.68H386V202h38.28v9.68H375Z"/><path class="cls-1" d="M432.09,138.31h12.54l23.43,61.38,23.54-61.38h12.54L475,211.69H461.24Z"/><path class="cls-1" d="M514.59,138.31h49.28V148H525.59v21.45H563.1v9.68H525.59V202h38.28v9.68H514.59Z"/><path class="cls-1" d="M604,183.41H590.27v28.28h-11V138.31h30.91c14,0,23.54,9,23.54,22.55,0,13.2-8.91,20.24-18.26,21.45l18.81,29.38H621.51ZM608.75,148H590.27v25.74h18.48c7.92,0,13.64-5.17,13.64-12.87S616.67,148,608.75,148Z"/><path class="cls-1" d="M668.26,181l-28.71-42.68H652.2l21.56,32.79,21.34-32.79h12.76L679.26,181v30.7h-11Z"/><path class="cls-1" d="M759.23,155l-15.18,56.66H732.28l-21-73.38h12.32l15.18,58.85,16.06-58.85h8.91l16,58.85,15.18-58.85h12.32l-20.9,73.38H774.52Z"/><path class="cls-1" d="M869.78,178.9H829.19v32.79h-11V138.31h11v30.8h40.59v-30.8h11v73.38h-11Z"/><path class="cls-1" d="M898.71,138.31H948V148H909.71v21.45h37.51v9.68H909.71V202H948v9.68H898.71Z"/><path class="cls-1" d="M988.14,183.41H974.39v28.28h-11V138.31H994.3c14,0,23.54,9,23.54,22.55,0,13.2-8.91,20.24-18.26,21.45l18.81,29.38h-12.76ZM992.87,148H974.39v25.74h18.48c7.92,0,13.64-5.17,13.64-12.87S1000.79,148,992.87,148Z"/><path class="cls-1" d="M1033,138.31h49.28V148H1044v21.45h37.51v9.68H1044V202h38.28v9.68H1033Z"/></g></svg>