<svg xmlns="http://www.w3.org/2000/svg" viewBox="0 0 300 300"><defs><style>.cls-1{fill:#abfffe;}</style></defs><g id="Background"><path class="cls-1" d="M150,0A150,150,0,1,0,300,150,150,150,0,0,0,150,0Zm-.19,279.81a130,130,0,1,1,130-130A130,130,0,0,1,149.81,279.81Z"/></g><g id="EV3"><g id="EV3-2" data-name="EV3"><path class="cls-1" d="M240.94,151.3a1.71,1.71,0,0,1,0-2.6l28.59-25.4c.8-.72.55-1.3-.56-1.3H179.33a4.09,4.09,0,0,0-3.07,1.6l-25.21,38.79a1.16,1.16,0,0,1-2.1,0L123.74,123.6a4.09,4.09,0,0,0-3.07-1.6H31c-1.11,0-1.36.58-.56,1.3l28.59,25.4a1.71,1.71,0,0,1,0,2.6L30.47,176.7c-.8.72-.55,1.3.56,1.3H269c1.11,0,1.36-.58.56-1.3ZM128.48,168l-56.29.08c-2.21,0-2.62-1.07-.93-2.37l18-13.82a2.75,2.75,0,0,0-.11-4.68L69.6,133.47c-1.76-1.24-1.39-2.26.82-2.26l35.28-.15a7.72,7.72,0,0,1,6,3.2L130.5,164.8C131.59,166.57,130.68,168,128.48,168Zm102.58-34.41-19.35,13.66a2.74,2.74,0,0,0-.11,4.67l17.81,13.71c1.7,1.3,1.28,2.37-.93,2.37L172.56,168c-2.19,0-3.09-1.45-2-3.21l18.7-30.35a7.67,7.67,0,0,1,5.95-3.18l35,.14C232.45,131.36,232.82,132.38,231.06,133.62Z"/></g></g></svg>