<svg xmlns="http://www.w3.org/2000/svg" viewBox="0 0 375 375"><defs><style>.cls-1{fill:#abfffe;}</style></defs><g id="Background"><path class="cls-1" d="M187.5,0a187.5,187.5,0,0,0,0,375C291.05,375,375,291.05,375,187.5S291.05,0,187.5,0Zm-.23,349.77a162.5,162.5,0,1,1,162.5-162.5A162.5,162.5,0,0,1,187.27,349.77Z"/></g><g id="EV3"><g id="EV3-2" data-name="EV3"><path class="cls-1" d="M301.61,189.19a2.26,2.26,0,0,1,0-3.38l35.86-33.12c1-.93.69-1.69-.7-1.69H224.3a5,5,0,0,0-3.85,2.09l-31.64,50.56a1.42,1.42,0,0,1-2.62,0l-31.64-50.56A5,5,0,0,0,150.7,151H38.23c-1.39,0-1.71.76-.7,1.69l35.86,33.12a2.26,2.26,0,0,1,0,3.38L37.53,222.31c-1,.93-.69,1.69.7,1.69H336.77c1.39,0,1.71-.76.7-1.69ZM160.5,211l-70.63.1c-2.77,0-3.29-1.38-1.16-3.08l22.53-18a3.66,3.66,0,0,0-.13-6.1L86.62,166c-2.2-1.62-1.74-3,1-3l44.27-.19a9.6,9.6,0,0,1,7.52,4.17L163,206.8C164.4,209.1,163.26,211,160.5,211Zm128.71-44.85L264.92,184a3.66,3.66,0,0,0-.13,6.1l22.34,17.86c2.13,1.7,1.61,3.09-1.16,3.09l-70.16-.1c-2.75,0-3.88-1.89-2.52-4.18l23.45-39.57a9.58,9.58,0,0,1,7.47-4.15l44,.19C291,163.2,291.41,164.53,289.21,166.15Z"/></g></g></svg>