<?xml version="1.0" encoding="utf-8"?>
<!-- Generator: Adobe Illustrator 24.1.2, SVG Export Plug-In . SVG Version: 6.00 Build 0)  -->
<svg version="1.1" id="Layer_1" xmlns="http://www.w3.org/2000/svg" xmlns:xlink="http://www.w3.org/1999/xlink" x="0px" y="0px"
	 viewBox="0 0 300 300" style="enable-background:new 0 0 300 300;" xml:space="preserve">
<style type="text/css">
	.st0{fill:#F5F5F5;}
</style>
<g id="Background">
	<path class="st0" d="M150,0C67.2,0,0,67.2,0,150s67.2,150,150,150s150-67.2,150-150S232.8,0,150,0z M150,287.5
		c-75.9,0-137.5-61.6-137.5-137.5S74.1,12.5,150,12.5S287.5,74.1,287.5,150S225.9,287.5,150,287.5z"/>
</g>
<g id="Everywhere">
	<path class="st0" d="M44,176h15.5v4.4H48.7v5.2h10.6v4.4H48.7v5.6h10.8v4.4H44V176z"/>
	<path class="st0" d="M60.8,176h5.3l6.1,18.5l6-18.5h5.3l-8.4,24h-5.8L60.8,176z"/>
	<path class="st0" d="M85.5,176H101v4.4H90.2v5.2h10.6v4.4H90.2v5.6H101v4.4H85.5V176z"/>
	<path class="st0" d="M112.7,191.4h-3.4v8.6h-4.7v-24h10.2c4.6,0,7.3,3.3,7.3,7.7c0,4.2-2.4,6.5-4.8,7.1l4.9,9.1H117L112.7,191.4z
		 M114.2,180.4h-4.9v6.6h4.9c1.8,0,3.3-1.5,3.3-3.3C117.5,181.9,116,180.4,114.2,180.4L114.2,180.4z"/>
	<path class="st0" d="M131.2,190.2l-8.4-14.2h5.3l5.4,9.6l5.4-9.6h5.3l-8.4,14.2v9.8h-4.7V190.2z"/>
	<path class="st0" d="M159.2,183.5l-3.8,16.5h-5l-6.3-24h5.2l3.8,17.3l4.2-17.3h3.6l4.1,17.3l3.8-17.3h5.3l-6.2,24h-5L159.2,183.5z"
		/>
	<path class="st0" d="M191.4,189.9H181V200h-4.7v-24h4.7v9.4h10.3V176h4.7v24h-4.7L191.4,189.9z"/>
	<path class="st0" d="M200.3,176h15.5v4.4H205v5.2h10.6v4.4H205v5.6h10.8v4.4h-15.5V176z"/>
	<path class="st0" d="M227.5,191.4h-3.4v8.6h-4.6v-24h10.2c4.6,0,7.3,3.3,7.3,7.7c0,4.2-2.4,6.5-4.8,7.1l4.9,9.1h-5.3L227.5,191.4z
		 M229,180.4h-4.9v6.6h4.9c1.8,0,3.3-1.5,3.3-3.3C232.3,181.9,230.8,180.4,229,180.4L229,180.4z"/>
	<path class="st0" d="M240.5,176H256v4.4h-10.8v5.2h10.6v4.4h-10.6v5.6H256v4.4h-15.5V176z"/>
</g>
<g id="EV3">
	<g id="EV3-2">
		<path class="st0" d="M230.3,126.2c-0.6-0.6-0.7-1.5-0.2-2.2c0-0.1,0.1-0.1,0.2-0.2l25.3-22.7c0.7-0.6,0.5-1.2-0.5-1.2h-79.2
			c-1.1,0-2.1,0.6-2.7,1.4l-22.3,34.6c-0.2,0.5-0.8,0.7-1.3,0.5c-0.2-0.1-0.4-0.3-0.5-0.5l-22.3-34.6c-0.6-0.9-1.6-1.4-2.7-1.4H44.9
			c-1,0-1.2,0.5-0.5,1.2l25.3,22.7c0.6,0.6,0.7,1.5,0.2,2.2c0,0.1-0.1,0.1-0.2,0.2l-25.3,22.7c-0.7,0.6-0.5,1.2,0.5,1.2h210.2
			c1,0,1.2-0.5,0.5-1.2L230.3,126.2z M130.7,140.8l-49.2,0.1c-1.9,0-2.3-0.9-0.8-2.1l15.6-12.2c1.1-0.7,1.5-2.3,0.7-3.4
			c-0.2-0.3-0.5-0.6-0.8-0.8l-17-12.1c-1.5-1.1-1.2-2,0.7-2l30.8-0.1c2.1,0.1,4,1.1,5.2,2.8l16.4,27
			C133.4,139.6,132.6,140.8,130.7,140.8z M221.3,110.5l-16.9,12c-1.2,0.7-1.5,2.2-0.8,3.4c0.2,0.3,0.4,0.6,0.8,0.8l15.5,12.1
			c1.5,1.2,1.1,2.1-0.8,2.1l-48.8-0.1c-1.9,0-2.7-1.3-1.8-2.8l16.3-26.8c1.2-1.7,3.1-2.7,5.2-2.8l30.6,0.1
			C222.5,108.5,222.8,109.4,221.3,110.5L221.3,110.5z"/>
	</g>
</g>
</svg>
