<svg xmlns="http://www.w3.org/2000/svg" viewBox="0 0 300 94.54"><defs><style>.cls-1{fill:#abfffe;}</style></defs><g id="Background"><path class="cls-1" d="M47.26,0A47.27,47.27,0,1,0,94.52,47.27,47.26,47.26,0,0,0,47.26,0Zm0,90.43A43.16,43.16,0,1,1,90.41,47.27,43.15,43.15,0,0,1,47.26,90.43Z"/></g><g id="EV3"><path class="cls-1" d="M74.77,47.67a.53.53,0,0,1,0-.8l8.65-7.77c.24-.22.17-.39-.17-.39H56.13a1.21,1.21,0,0,0-.92.49L47.58,51.06a.35.35,0,0,1-.64,0L39.31,39.2a1.21,1.21,0,0,0-.92-.49H11.27c-.34,0-.41.17-.17.39l8.65,7.77a.53.53,0,0,1,0,.8L11.1,55.44c-.24.21-.17.39.17.39h72c.34,0,.41-.18.17-.39Zm-34,5.11-17,0c-.67,0-.79-.33-.28-.73l5.43-4.22a.85.85,0,0,0,0-1.44l-5.9-4.21c-.53-.37-.42-.69.25-.69l10.67,0a2.3,2.3,0,0,1,1.81,1l5.69,9.35C41.69,52.34,41.42,52.78,40.75,52.78Zm31-10.52-5.85,4.18a.84.84,0,0,0,0,1.43l5.38,4.19c.52.4.39.72-.28.72l-16.91,0c-.67,0-.94-.44-.61-1l5.65-9.29a2.35,2.35,0,0,1,1.8-1l10.6,0C72.2,41.57,72.31,41.88,71.78,42.26Z"/></g><g id="EVERYWHERE"><path class="cls-1" d="M101.37,37h14.5v3.76H105.73v4.47h9.92V49h-9.92v4.77h10.14v3.79h-14.5Z"/><path class="cls-1" d="M117.1,37h5l5.68,15.81L133.4,37h5l-7.89,20.55H125Z"/><path class="cls-1" d="M140.28,37h14.5v3.76H144.65v4.47h9.92V49h-9.92v4.77h10.13v3.79h-14.5Z"/><path class="cls-1" d="M165.75,50.18h-3.2v7.36h-4.36V37h9.58c4.27,0,6.88,2.81,6.88,6.63a5.9,5.9,0,0,1-4.48,6.1l4.61,7.82h-5Zm1.38-9.43h-4.58v5.67h4.58a2.84,2.84,0,1,0,0-5.67Z"/><path class="cls-1" d="M183.1,49.13,175.21,37h5l5.1,8.26,5-8.26h5l-7.83,12.14v8.41H183.1Z"/><path class="cls-1" d="M209.27,43.43l-3.56,14.11h-4.64L195.2,37h4.89l3.59,14.85L207.58,37H211l3.87,14.85L218.42,37h4.92L217.5,57.54h-4.64Z"/><path class="cls-1" d="M239.43,48.92h-9.67v8.62h-4.37V37h4.37v8.08h9.67V37h4.39V57.54h-4.39Z"/><path class="cls-1" d="M247.85,37h14.49v3.76H252.21v4.47h9.92V49h-9.92v4.77h10.13v3.79H247.85Z"/><path class="cls-1" d="M273.31,50.18h-3.2v7.36h-4.36V37h9.59c4.27,0,6.88,2.81,6.88,6.63a5.91,5.91,0,0,1-4.49,6.1l4.61,7.82h-5Zm1.38-9.43h-4.58v5.67h4.58a2.84,2.84,0,1,0,0-5.67Z"/><path class="cls-1" d="M285.5,37H300v3.76H289.86v4.47h9.93V49h-9.93v4.77H300v3.79H285.5Z"/></g></svg>