<svg xmlns="http://www.w3.org/2000/svg" viewBox="0 0 310 310"><defs><style>.cls-1{fill:#c9fffe;}</style></defs><g id="Logo"><path class="cls-1" d="M155,5A150,150,0,1,0,305,155,150,150,0,0,0,155,5Zm-.19,279.81a130,130,0,1,1,130-130A130,130,0,0,1,154.81,284.81Z"/><g id="EV3"><path class="cls-1" d="M245.94,156.3a1.71,1.71,0,0,1,0-2.6l28.59-25.4c.8-.72.55-1.3-.56-1.3H184.33a4.09,4.09,0,0,0-3.07,1.6l-25.21,38.79a1.16,1.16,0,0,1-2.1,0L128.74,128.6a4.09,4.09,0,0,0-3.07-1.6H36c-1.11,0-1.36.58-.56,1.3l28.59,25.4a1.71,1.71,0,0,1,0,2.6L35.47,181.7c-.8.72-.55,1.3.56,1.3H274c1.11,0,1.36-.58.56-1.3ZM133.48,173l-56.29.08c-2.21,0-2.62-1.07-.93-2.37l18-13.82a2.75,2.75,0,0,0-.11-4.68L74.6,138.47c-1.76-1.24-1.39-2.26.82-2.26l35.28-.15a7.72,7.72,0,0,1,6,3.2L135.5,169.8C136.59,171.57,135.68,173,133.48,173Zm102.58-34.41-19.35,13.66a2.74,2.74,0,0,0-.11,4.67l17.81,13.71c1.7,1.3,1.28,2.37-.93,2.37L177.56,173c-2.19,0-3.09-1.45-2-3.21l18.7-30.35a7.67,7.67,0,0,1,5.95-3.18l35,.14C237.45,136.36,237.82,137.38,236.06,138.62Z"/></g></g></svg>