<svg xmlns="http://www.w3.org/2000/svg" viewBox="0 0 310 310"><defs><style>.cls-1{fill:#c9fffe;}</style></defs><g id="Logo"><path id="Border" class="cls-1" d="M155,5A150,150,0,1,0,305,155,150,150,0,0,0,155,5Zm0,287.5A137.5,137.5,0,1,1,292.5,155,137.5,137.5,0,0,1,155,292.5Z"/><g id="EVERYWHERE"><path class="cls-1" d="M49,181H64.47v4.39H53.66v5.22H64.24V195H53.66v5.57H64.47V205H49Z"/><path class="cls-1" d="M65.78,181h5.31l6.07,18.46,6-18.46H88.5l-8.42,24H74.24Z"/><path class="cls-1" d="M90.53,181H106v4.39H95.19v5.22h10.59V195H95.19v5.57H106V205H90.53Z"/><path class="cls-1" d="M117.71,196.4H114.3V205h-4.65V181h10.22c4.56,0,7.35,3.27,7.35,7.74,0,4.24-2.43,6.51-4.79,7.12l4.92,9.14H122Zm1.48-11H114.3V192h4.89a3.31,3.31,0,0,0,0-6.62Z"/><path class="cls-1" d="M136.23,195.18,127.81,181h5.31l5.44,9.64,5.38-9.64h5.31l-8.36,14.18V205h-4.66Z"/><path class="cls-1" d="M164.16,188.52,160.36,205h-5l-6.26-24h5.21l3.84,17.34L162.36,181H166l4.13,17.34,3.8-17.34h5.25L173,205H168Z"/><path class="cls-1" d="M196.35,194.93H186V205h-4.66V181H186v9.43h10.32V181H201v24h-4.69Z"/><path class="cls-1" d="M205.34,181h15.47v4.39H210v5.22h10.59V195H210v5.57h10.82V205H205.34Z"/><path class="cls-1" d="M232.51,196.4H229.1V205h-4.65V181h10.23c4.55,0,7.34,3.27,7.34,7.74,0,4.24-2.43,6.51-4.79,7.12l4.92,9.14h-5.34Zm1.48-11H229.1V192H234a3.31,3.31,0,0,0,0-6.62Z"/><path class="cls-1" d="M245.53,181H261v4.39H250.18v5.22h10.59V195H250.18v5.57H261V205H245.53Z"/></g><g id="EV3"><path class="cls-1" d="M235.33,131.16a1.53,1.53,0,0,1,0-2.32l25.26-22.68c.7-.64.48-1.16-.5-1.16H180.91a3.56,3.56,0,0,0-2.71,1.43l-22.28,34.63a1,1,0,0,1-1.84,0L131.8,106.43a3.56,3.56,0,0,0-2.71-1.43H49.91c-1,0-1.2.52-.5,1.16l25.26,22.68a1.53,1.53,0,0,1,0,2.32L49.41,153.84c-.7.64-.48,1.16.5,1.16H260.09c1,0,1.2-.52.5-1.16ZM135.7,145.83l-49.15.07c-1.93,0-2.29-.94-.81-2.09l15.64-12.17a2.46,2.46,0,0,0-.09-4.18l-17-12.13c-1.53-1.09-1.21-2,.72-2l30.81-.13A6.74,6.74,0,0,1,121,116l16.42,27C138.42,144.55,137.62,145.83,135.7,145.83Zm90.6-30.37-16.87,12a2.47,2.47,0,0,0-.09,4.18l15.52,12.07c1.48,1.16,1.12,2.1-.81,2.09l-48.83-.07c-1.91,0-2.7-1.27-1.76-2.82l16.33-26.8a6.74,6.74,0,0,1,5.2-2.81l30.6.13C227.51,113.47,227.84,114.37,226.3,115.46Z"/></g></g></svg>