<svg xmlns="http://www.w3.org/2000/svg" viewBox="0 0 995 310"><defs><style>.cls-1{fill:#c9fffe;}</style></defs><g id="Logo"><path class="cls-1" d="M156,5A150,150,0,1,0,306,155,150,150,0,0,0,156,5Zm.35,287.59A137.24,137.24,0,1,1,293.58,155.35,137.23,137.23,0,0,1,156.35,292.59Z"/><path class="cls-1" d="M244.63,157.13a1.69,1.69,0,0,1,0-2.54l27.6-24.8c.78-.69.53-1.26-.54-1.26H185.15a3.89,3.89,0,0,0-3,1.56L157.84,168a1.11,1.11,0,0,1-2,0l-24.35-37.86a3.89,3.89,0,0,0-2.95-1.56H42c-1.07,0-1.32.57-.54,1.26L69,154.59a1.69,1.69,0,0,1,0,2.54l-27.6,24.79c-.78.7-.53,1.27.54,1.27H271.69c1.07,0,1.32-.57.54-1.27ZM136.06,173.45l-54.35.08c-2.13,0-2.53-1-.9-2.31l17.34-13.49a2.7,2.7,0,0,0-.1-4.57L79.21,139.73c-1.7-1.21-1.34-2.21.79-2.22l34.06-.14a7.48,7.48,0,0,1,5.79,3.12L138,170.31C139.06,172,138.18,173.45,136.06,173.45Zm99-33.58L216.41,153.2a2.69,2.69,0,0,0-.1,4.56l17.19,13.38c1.63,1.28,1.23,2.32-.9,2.31l-54-.07c-2.11,0-3-1.41-1.94-3.13l18.05-29.63a7.41,7.41,0,0,1,5.75-3.11l33.83.15C236.43,137.67,236.79,138.66,235.09,139.87Z"/><path class="cls-1" d="M331,120h48v12.73H345.6v14.85h32.32V160.3H345.6v15.91H379V190H331Z"/><path class="cls-1" d="M382.61,120h16.66l19,53.84L437.22,120h16.66l-26.43,70H409.14Z"/><path class="cls-1" d="M460.29,120h48v12.73H473.84v14.85h33.37V160.3H474.89v15.91h33.36V190h-48Z"/><path class="cls-1" d="M545.17,164.55H534.32V190h-14.6V120h32.07c14.29,0,23,9.55,23,22.56,0,12.39-7.61,19-15,20.78L575.23,190H558.84Zm4.3-31.82H534.32v19.09h15.15c5.79,0,10.16-3.74,10.16-9.55S555.26,132.73,549.47,132.73Z"/><path class="cls-1" d="M602.09,161.35,575.67,120h16.65l17.07,28.13L626.25,120H642.9l-26.21,41.35V190h-14.6Z"/><path class="cls-1" d="M689.55,141.93,677.62,190H662.09l-19.64-70H658.8l12,50.58L683.89,120h11.42l13,50.58L720.2,120h16.45l-19.54,70H701.58Z"/><path class="cls-1" d="M789.77,160.3H757.45V190h-14.6V120h14.6v27.58h32.32V120h14.59v70H789.77Z"/><path class="cls-1" d="M817.92,120h48v12.73H832.52v14.85h33.36V160.3H832.52v15.91h33.36V190h-48Z"/><path class="cls-1" d="M902.8,164.55H892V190h-14.6V120h32.07c14.29,0,23,9.55,23,22.56,0,12.39-7.61,19-15,20.78L932.86,190H916.47Zm4.3-31.82H892v19.09H907.1c5.79,0,10.16-3.74,10.16-9.55S912.89,132.73,907.1,132.73Z"/><path class="cls-1" d="M943,120h48v12.73H957.64v14.85H991V160.3H957.64v15.91H991V190H943Z"/></g></svg>