<svg xmlns="http://www.w3.org/2000/svg" viewBox="0 0 32 32"><defs><style>.cls-1{fill:#abfffe;}</style></defs><g id="EV3"><path class="cls-1" d="M21.46,13.64a.93.93,0,0,0-.72.4l-2.26,3.81c-.13.22,0,.4.25.4h6.75c.27,0,.32-.13.12-.29l-2.16-1.72a.36.36,0,0,1,0-.59l2.34-1.72c.21-.15.16-.28-.1-.28Z"/><path class="cls-1" d="M11.37,14a.93.93,0,0,0-.72-.4l-4.27,0c-.26,0-.31.13-.1.29l2.36,1.72a.36.36,0,0,1,0,.59L6.49,18c-.21.16-.16.29.11.29h6.8c.27,0,.38-.18.24-.4Z"/><path class="cls-1" d="M16,0A16,16,0,1,0,32,16,16,16,0,0,0,16,0ZM30.38,19.52H1.62c-.13,0-.16-.08-.06-.17L5,16.16a.21.21,0,0,0,0-.32L1.56,12.65c-.1-.09-.07-.17.06-.17H12.46a.51.51,0,0,1,.37.21l3,4.87a.14.14,0,0,0,.26,0l3-4.87a.51.51,0,0,1,.37-.21H30.38c.13,0,.16.08.06.17L27,15.84a.21.21,0,0,0,0,.32l3.45,3.19C30.54,19.44,30.51,19.52,30.38,19.52Z"/></g></svg>