<svg xmlns="http://www.w3.org/2000/svg" viewBox="0 0 375 375"><defs><style>.cls-1{fill:#abfffe;}</style></defs><g id="EV3"><g id="EV3-2" data-name="EV3"><path class="cls-1" d="M329.6,196.7a40.52,40.52,0,0,1,0-17.4L374.27,9.18c1.25-4.78.86-8.68-.88-8.68H233.32c-1.73,0-3.89,4.83-4.78,10.73L189.13,271c-.9,5.93-2.36,5.93-3.26,0L146.46,11.23C145.57,5.33,143.41.5,141.68.5H1.61C-.13.5-.52,4.4.73,9.18L45.4,179.3a40.52,40.52,0,0,1,0,17.4L.73,366.82c-1.25,4.78-.86,8.68.88,8.68H373.39c1.74,0,2.13-3.9.88-8.68Zm-175.72,112-88,.52c-3.45,0-4.1-7.11-1.45-15.85l28.06-92.55c2.68-8.85,2.61-23-.16-31.33L61.87,77.33C59.13,69,59.71,62.21,63.15,62.14l55.14-1c3.44-.07,7.65,9.58,9.36,21.44L157,287.12C158.74,299,157.32,308.7,153.88,308.72ZM314.16,78.32l-30.24,91.43c-2.78,8.38-2.85,22.48-.16,31.33l27.82,91.78c2.65,8.74,2,15.88-1.45,15.86l-87.38-.52c-3.42,0-4.83-9.68-3.14-21.47L248.82,83.46c1.7-11.79,5.88-21.38,9.3-21.32l54.76,1C316.33,63.2,316.9,70,314.16,78.32Z"/></g></g></svg>