<svg xmlns="http://www.w3.org/2000/svg" viewBox="0 0 32 32"><defs><style>.cls-1{fill:#abfffe;}</style></defs><g id="EV3"><path class="cls-1" d="M16,0A16,16,0,1,0,32,16,16,16,0,0,0,16,0Zm0,31A15,15,0,1,1,31,16,15,15,0,0,1,16,31Z"/><g id="EV3-2" data-name="EV3"><path class="cls-1" d="M26.94,15.84l3.44-3.17c.1-.1.07-.17-.07-.17H19.53a.48.48,0,0,0-.37.21l-3,4.84a.14.14,0,0,1-.26,0l-3-4.85a.47.47,0,0,0-.36-.2H1.68c-.13,0-.16.07-.06.16l3.44,3.18a.22.22,0,0,1,0,.32L1.62,19.33c-.1.1-.07.17.07.17H30.32c.13,0,.16-.07.06-.16l-3.44-3.18A.22.22,0,0,1,26.94,15.84ZM13.74,18.5H6.28c-.26,0-.31-.13-.11-.3l2.41-1.92a.36.36,0,0,0,0-.59L6,13.79c-.21-.16-.17-.29.1-.29l4.7,0a.91.91,0,0,1,.71.4L14,18.09C14.1,18.32,14,18.5,13.74,18.5Zm12.38-4.69-2.59,1.9a.34.34,0,0,0,0,.58L25.9,18.2c.21.17.16.3-.1.3H18.39c-.26,0-.36-.18-.23-.4l2.48-4.19a.93.93,0,0,1,.71-.4l4.67,0C26.29,13.52,26.33,13.65,26.12,13.81Z"/></g></g></svg>