<svg xmlns="http://www.w3.org/2000/svg" viewBox="0 0 32 32"><defs><style>.cls-1{fill:#abfffe;}</style></defs><g id="EV3"><path class="cls-1" d="M21.84,13.48a1,1,0,0,0-.77.42L18.65,18c-.14.23,0,.43.26.43h7.23c.28,0,.34-.14.12-.32L24,16.26a.38.38,0,0,1,0-.63l2.5-1.83c.23-.16.18-.3-.11-.3Z"/><path class="cls-1" d="M11.05,13.89a1,1,0,0,0-.77-.43l-4.56,0c-.28,0-.33.14-.11.3l2.53,1.85a.38.38,0,0,1,0,.63L5.83,18.11c-.22.18-.17.32.12.32h7.27c.29,0,.4-.2.26-.43Z"/><path class="cls-1" d="M16,0A16,16,0,1,0,32,16,16,16,0,0,0,16,0ZM31.37,19.76H.63c-.14,0-.17-.08-.07-.18l3.69-3.41a.22.22,0,0,0,0-.34L.56,12.42c-.1-.1-.07-.18.07-.18H12.21a.53.53,0,0,1,.4.22l3.25,5.2a.15.15,0,0,0,.28,0l3.25-5.2a.53.53,0,0,1,.4-.22H31.37c.14,0,.17.08.07.18l-3.69,3.41a.22.22,0,0,0,0,.34l3.69,3.41C31.54,19.68,31.51,19.76,31.37,19.76Z"/></g></svg>