<svg xmlns="http://www.w3.org/2000/svg" viewBox="0 0 412.5 100"><defs><style>.cls-1{fill:#abfffe;}</style></defs><g id="EV3"><g id="EV3-2" data-name="EV3"><path class="cls-1" d="M362.56,52.32a3.12,3.12,0,0,1,0-4.64L411.69,2.31c1.38-1.27.95-2.31-1-2.31H256.66a6.93,6.93,0,0,0-5.27,2.86L208.05,72.13a2,2,0,0,1-3.6,0L161.11,2.86A6.93,6.93,0,0,0,155.84,0H1.77C-.14,0-.57,1,.81,2.31L49.94,47.68a3.12,3.12,0,0,1,0,4.64L.81,97.69C-.57,99-.14,100,1.77,100h409c1.91,0,2.34-1,1-2.31ZM169.26,82.19l-96.75.14c-3.79,0-4.5-1.9-1.59-4.23l30.86-24.68a5,5,0,0,0-.18-8.35L68.06,20.49c-3-2.21-2.38-4,1.41-4l60.64-.27a13.2,13.2,0,0,1,10.3,5.72l32.33,54.54C174.61,79.59,173.05,82.19,169.26,82.19ZM345.58,20.75,312.31,45.13a5,5,0,0,0-.18,8.36L342.74,78c2.91,2.33,2.19,4.24-1.6,4.23L245,82.05c-3.77,0-5.32-2.58-3.45-5.72L273.7,22.12a13.09,13.09,0,0,1,10.24-5.68l60.23.26C348,16.72,348.59,18.54,345.58,20.75Z"/></g></g></svg>