<svg xmlns="http://www.w3.org/2000/svg" xmlns:xlink="http://www.w3.org/1999/xlink" viewBox="0 0 600 600"><defs><style>.cls-1{fill:url(#linear-gradient);}.cls-2{fill:#4cdb89;}.cls-3{fill:#5271ff;}.cls-4{fill:#3fbebc;}.cls-5{fill:#2a445b;}</style><linearGradient id="linear-gradient" x1="494.45" y1="494.45" x2="105.55" y2="105.55" gradientUnits="userSpaceOnUse"><stop offset="0" stop-color="#4cdb89"/><stop offset="1" stop-color="#5176f9"/></linearGradient></defs><g id="Ring"><path class="cls-1" d="M300,25C148.12,25,25,148.12,25,300S148.12,575,300,575,575,451.88,575,300,451.88,25,300,25Zm0,500C175.74,525,75,424.26,75,300S175.74,75,300,75,525,175.74,525,300,424.26,525,300,525Z"/></g><g id="DNA"><path id="Hylix" class="cls-2" d="M345,117v97.5c0,37.28-45,67.5-45,67.5s-45-30.22-45-67.5V117H228v93.56c0,38.3,32.67,71.71,54,89.44-21.33,17.73-54,51.14-54,89.44V483h27V385.5c0-37.28,45-67.5,45-67.5s45,30.22,45,67.5V483h27V389.44c0-38.3-32.67-71.71-54-89.44,21.33-17.73,54-51.14,54-89.44V117Z"/><path class="cls-3" d="M305.5,137H345a7.5,7.5,0,0,1,7.5,7.5v0A7.5,7.5,0,0,1,345,152H305.5a0,0,0,0,1,0,0V137a0,0,0,0,1,0,0Z"/><path class="cls-4" d="M255,137h50.5a7.5,7.5,0,0,1,7.5,7.5v0a7.5,7.5,0,0,1-7.5,7.5H255a0,0,0,0,1,0,0V137a0,0,0,0,1,0,0Z"/><path class="cls-4" d="M305.5,191H345a6.5,6.5,0,0,1,6.5,6.5v0A6.5,6.5,0,0,1,345,204H305.5a0,0,0,0,1,0,0V191a0,0,0,0,1,0,0Z"/><path class="cls-5" d="M255,191h51.5a6.5,6.5,0,0,1,6.5,6.5v0a6.5,6.5,0,0,1-6.5,6.5H255a0,0,0,0,1,0,0V191a0,0,0,0,1,0,0Z"/><path class="cls-3" d="M247.5,448H285a7.5,7.5,0,0,1,7.5,7.5v0A7.5,7.5,0,0,1,285,463H247.5a0,0,0,0,1,0,0V448A0,0,0,0,1,247.5,448Z" transform="translate(540 911) rotate(-180)"/><path class="cls-4" d="M285,448h52.5a7.5,7.5,0,0,1,7.5,7.5v0a7.5,7.5,0,0,1-7.5,7.5H285a0,0,0,0,1,0,0V448A0,0,0,0,1,285,448Z" transform="translate(630 911) rotate(-180)"/><path class="cls-4" d="M248.5,396H285a6.5,6.5,0,0,1,6.5,6.5v0A6.5,6.5,0,0,1,285,409H248.5a0,0,0,0,1,0,0V396a0,0,0,0,1,0,0Z" transform="translate(540 805) rotate(-180)"/><path class="cls-3" d="M285,396h53.5a6.5,6.5,0,0,1,6.5,6.5v0a6.5,6.5,0,0,1-6.5,6.5H285a0,0,0,0,1,0,0V396A0,0,0,0,1,285,396Z" transform="translate(630 805) rotate(-180)"/><path class="cls-4" d="M272.13,256H305.5a7.5,7.5,0,0,0,0-15H262.15A94.91,94.91,0,0,0,272.13,256Z"/><path class="cls-5" d="M337.85,241H305.5a7.5,7.5,0,0,1,0,15h32.35a7.5,7.5,0,0,0,0-15Z"/><path class="cls-3" d="M327.87,344H292.5a7.5,7.5,0,0,0,0,15h45.35A94.91,94.91,0,0,0,327.87,344Z"/><path class="cls-5" d="M285,351.5a7.5,7.5,0,0,1,7.5-7.5H262.15a7.5,7.5,0,1,0,0,15H292.5A7.5,7.5,0,0,1,285,351.5Z"/></g></svg>