<?xml version="1.0" encoding="utf-8"?>
<!-- Generator: Adobe Illustrator 24.1.3, SVG Export Plug-In . SVG Version: 6.00 Build 0)  -->
<svg version="1.1" id="Layer_1" xmlns="http://www.w3.org/2000/svg" xmlns:xlink="http://www.w3.org/1999/xlink" x="0px" y="0px"
	 viewBox="0 0 1920 1080" style="enable-background:new 0 0 1920 1080;" xml:space="preserve">
<style type="text/css">
	.st0{fill:#00151F;}
	.st1{fill:#FFFFFF;}
	.st2{fill:#D3D3D3;}
	.st3{fill:#BDBDBD;}
	.st4{fill:#9E9E9E;}
	.st5{fill:#C77021;}
	.st6{fill:#F1881D;}
	.st7{fill:#3A3A3A;}
	.st8{fill:#889FC0;}
	.st9{fill:#C0D1E0;}
	.st10{fill:#ABFFFE;}
	.st11{fill:#3E727E;}
	.st12{fill:#65807F;}
	.st13{fill:#A1CCCB;}
	.st14{fill:#001C3F;}
	.st15{fill:#2D404E;}
	.st16{fill:#48B19B;}
</style>
<g id="Background">
	<rect id="Spaace" class="st0" width="1920" height="1080"/>
	<g id="Stars">
		<circle class="st1" cx="742" cy="339" r="4"/>
		<circle class="st1" cx="893" cy="958" r="4"/>
		<circle class="st1" cx="776" cy="560" r="4"/>
		<circle class="st1" cx="922" cy="429" r="4"/>
		<circle class="st1" cx="1101" cy="310" r="4"/>
		<circle class="st1" cx="159" cy="262" r="4"/>
		<circle class="st1" cx="321" cy="293" r="4"/>
		<circle class="st1" cx="340" cy="77" r="4"/>
		<circle class="st1" cx="820" cy="779" r="4"/>
		<circle class="st1" cx="583" cy="114" r="4"/>
		<circle class="st1" cx="1254" cy="373" r="4"/>
		<circle class="st1" cx="1389" cy="818" r="4"/>
		<circle class="st1" cx="1581" cy="863" r="4"/>
		<circle class="st1" cx="1841" cy="839" r="4"/>
		<circle class="st1" cx="1577" cy="655" r="4"/>
		<circle class="st1" cx="1409" cy="560" r="4"/>
		<circle class="st1" cx="1606" cy="528" r="4"/>
		<circle class="st1" cx="1787" cy="727" r="4"/>
		<circle class="st1" cx="1466" cy="343" r="4"/>
		<circle class="st1" cx="1712" cy="306" r="4"/>
		<circle class="st1" cx="1368" cy="189" r="4"/>
		<circle class="st1" cx="1805" cy="144" r="4"/>
		<circle class="st1" cx="1736" cy="1006" r="4"/>
		<circle class="st1" cx="812" cy="77" r="4"/>
		<circle class="st1" cx="860" cy="212" r="4"/>
		<circle class="st1" cx="1236" cy="44" r="4"/>
		<circle class="st1" cx="1164" cy="589" r="4"/>
		<circle class="st1" cx="1203" cy="990" r="4"/>
		<circle class="st1" cx="539" cy="270" r="4"/>
		<circle class="st1" cx="74" cy="465" r="4"/>
		<circle class="st1" cx="1628" cy="81" r="4"/>
		<circle class="st1" cx="83" cy="151.5" r="4"/>
	</g>
</g>
<g id="Moon">
	<circle class="st2" cx="1770.3" cy="540" r="101.8"/>
	<circle class="st3" cx="1768.3" cy="616" r="17.4"/>
	<circle class="st3" cx="1708.9" cy="575.5" r="10"/>
	<circle class="st4" cx="1830.7" cy="565.4" r="16.7"/>
	<circle class="st3" cx="1770.7" cy="565.4" r="10"/>
	<circle class="st4" cx="1797.4" cy="508.7" r="10.4"/>
	<circle class="st3" cx="1736.5" cy="498.7" r="32.1"/>
</g>
<g id="Rocket">
	<g id="Left_Fin">
		<path id="Outer_Fin" class="st5" d="M966.7,815.8c4.7-6.8,10.8-12.5,18-16.5c18.4-10.6,39.6-9.5,51.8,1.5
			c5.2-3.6,10.6-7.1,16.2-10.6c-15.5-15.2-43.6-17-67.8-3c-11.3,6.4-20.5,15.8-26.6,27.3C961.1,814.7,963.9,815.1,966.7,815.8z"/>
		<path id="Inner_Fin" class="st6" d="M998.3,832c11.8-11.6,24.5-22,38.2-31.3c-12.3-11-33.5-12.1-51.8-1.5
			c-7.2,4.1-13.3,9.7-18,16.5C978.3,818.7,989.2,824.2,998.3,832z"/>
	</g>
	<g id="Right_Fin">
		<path id="Outer_Fin-2" class="st5" d="M1028.9,923.6c8.2-0.6,16.2-3.1,23.3-7.3c18.4-10.6,28-29.5,24.6-45.6
			c5.7-2.7,11.5-5.6,17.3-8.8c5.4,21-7.1,46.3-31.3,60.3c-11.2,6.6-24,9.9-36.9,9.4C1027.1,929.1,1028.1,926.4,1028.9,923.6z"/>
		<path id="Inner_Fin-2" class="st6" d="M1030.7,888.1c15.9-4.4,31.4-10.2,46.2-17.4c3.4,16.1-6.3,35-24.6,45.6
			c-7.1,4.2-15.1,6.6-23.3,7.3C1032.3,912.1,1032.8,899.9,1030.7,888.1z"/>
	</g>
	<path id="Engine" class="st7" d="M974.5,863.9l16.7,28.8c6.5,0.8,14.5,0.5,23.5-1L987.2,844C981.4,851.1,977.1,857.8,974.5,863.9z"
		/>
	<path id="Nose_Cone" class="st8" d="M1190.7,758.3c-4.6,17.2-20.5,44.9-36.2,62.5l-36-62.5C1141.6,753.6,1168.1,752.3,1190.7,758.3
		z"/>
	<path id="Body" class="st9" d="M1118.5,758.4c-19.8,7-38.9,15.9-57,26.5c-32.4,18.7-58.7,40.2-74.3,59.2l27.5,47.7
		c24.2-4,56-16,88.4-34.8c18.2-10.4,35.5-22.5,51.4-36.1L1118.5,758.4z"/>
	<path id="Top_Stripe" class="st8" d="M1028.3,806.5c-1.8,1.3-3.6,2.7-5.3,4c-2.6,11.8,27.2,63.4,38.7,67c2-0.8,4-1.7,6.1-2.6
		C1056.2,871.1,1025.8,818.4,1028.3,806.5z"/>
	<path id="Bottom_Stripe" class="st8" d="M1011.5,819.8c-1.7,1.4-3.3,2.8-4.8,4.2c-2.7,10.9,24.4,57.8,35.2,60.9c2-0.7,4-1.4,6-2.1
		C1037,879.5,1008.9,830.9,1011.5,819.8z"/>
	<g id="Center_Fin">
		<path id="Outer_Fin-3" class="st5" d="M1070.8,830.7c2.2-2.2,3.1-3.8,2.7-4.7c-1.7-3-21.3,5.1-43.8,18.1S990.4,870,992.1,873
			c0.5,0.8,2.4,0.8,5.4,0c5.5-5.6,18.8-14.9,34.9-24.2S1063.2,832.6,1070.8,830.7z"/>
		
			<ellipse id="Inner_Fin-3" transform="matrix(0.866 -0.5 0.5 0.866 -287.3818 631.1819)" class="st6" cx="1034.1" cy="851.9" rx="42.3" ry="3.5"/>
	</g>
	<ellipse transform="matrix(0.866 -0.5 0.5 0.866 -257.8222 658.7549)" class="st10" cx="1100.3" cy="810.5" rx="15.7" ry="15.6"/>
	<path class="st11" d="M1118.4,800.1c-5.7-10-18.5-13.5-28.5-7.7c-10,5.7-13.5,18.5-7.7,28.5s18.5,13.5,28.5,7.7c0,0,0,0,0.1,0
		C1120.7,822.8,1124.2,810,1118.4,800.1C1118.4,800.1,1118.4,800.1,1118.4,800.1z M1086.8,818.3c-4.3-7.5-1.8-17.1,5.7-21.4
		c7.5-4.3,17.1-1.8,21.4,5.7s1.8,17.1-5.7,21.4c0,0,0,0,0,0C1100.7,828.3,1091.1,825.8,1086.8,818.3z"/>
</g>
<g id="Layer_1_1_">
	<g id="Gears">
		<path class="st12" d="M694,648l-45.6-9.9c-4-12.2-8.9-24-14.7-35.4l25.2-39.3c4.5-7,3.5-16.2-2.4-22.1l-71-71
			c-5.9-5.9-15.1-6.8-22.1-2.3l-39.3,25.2c-11.4-5.8-23.2-10.7-35.4-14.7L479,433c-1.8-8.2-9-14-17.3-14H361.3
			c-8.3,0-15.5,5.8-17.3,14l-9.9,45.6c-12.2,4-24,8.8-35.4,14.6L259.5,468c-7-4.5-16.2-3.5-22.1,2.4l-71,71
			c-5.9,5.9-6.8,15.1-2.3,22.1l25.2,39.3c-5.8,11.4-10.7,23.2-14.7,35.4L129,648c-8.2,1.8-14,9-14,17.3v100.4
			c0,8.3,5.8,15.5,14,17.3l45.6,9.9c4,12.2,8.8,24,14.6,35.4L164,867.6c-4.5,7-3.5,16.2,2.4,22.1l71,71c5.9,5.9,15.1,6.8,22.1,2.3
			l39.3-25.2c11.4,5.8,23.2,10.7,35.4,14.7l9.9,45.6c1.8,8.2,9,14,17.3,14h100.4c8.3,0,15.6-5.8,17.3-14l9.9-45.6
			c12.2-4,24-8.9,35.4-14.7l39.3,25.2c7,4.5,16.2,3.5,22.1-2.4l71-71c5.9-5.9,6.8-15.1,2.3-22.1l-25.2-39.3
			c5.8-11.4,10.7-23.2,14.7-35.4L694,783c8.2-1.8,14-9,14-17.3V665.3C708,657,702.2,649.8,694,648z M517.8,715.5
			c0,58.7-47.6,106.3-106.3,106.3s-106.3-47.6-106.3-106.3s47.6-106.3,106.3-106.3C470.2,609.3,517.7,656.8,517.8,715.5z"/>
		<path class="st8" d="M671.1,758l-24.5-2.4c-2.8-6-6.1-11.9-9.8-17.4l11-21.8c1.9-3.9,0.9-8.6-2.5-11.3l-41.4-32.5
			c-3.5-2.7-8.3-2.7-11.8,0.1L573,688.2c-6.3-2.3-12.8-4.2-19.4-5.5l-7.9-23c-1.4-4.1-5.6-6.7-9.9-6.2l-52.7,6
			c-4.3,0.5-7.8,3.9-8.3,8.2l-2.5,24.1c-6.1,2.8-12.1,6-17.7,9.7l-22.1-10.7c-4-1.9-8.7-0.9-11.5,2.5l-33.1,40.9
			c-2.8,3.4-2.8,8.2,0,11.6l15.5,18.8c-2.4,6.2-4.3,12.6-5.6,19.1l-23.4,7.8c-4.1,1.4-6.8,5.4-6.3,9.8l5.9,51.9
			c0.5,4.3,4,7.7,8.3,8.1l24.5,2.4c2.8,6,6.1,11.9,9.8,17.4l-11,21.8c-2,3.9-0.9,8.6,2.5,11.3l41.4,32.5c3.5,2.7,8.3,2.7,11.7-0.1
			l19.1-15.4c6.3,2.3,12.8,4.1,19.4,5.5l7.9,23c1.4,4.1,5.6,6.7,9.9,6.2l52.7-6c4.3-0.5,7.8-3.9,8.3-8.2l2.5-24.1
			c6.1-2.8,12.1-6,17.7-9.7l22.1,10.8c4,1.9,8.7,0.8,11.5-2.5l33.1-40.9c2.8-3.4,2.7-8.2,0-11.6L650,854.8
			c2.4-6.2,4.3-12.6,5.6-19.2l23.4-7.8c4.2-1.4,6.8-5.5,6.3-9.8l-5.9-51.9C678.9,761.8,675.4,758.4,671.1,758z M582.5,803.4
			c3.4,30.3-18.8,57.8-49.6,61.2s-58.6-18.3-62-48.6s18.8-57.8,49.6-61.2S579.1,773.1,582.5,803.4L582.5,803.4z"/>
		<path class="st13" d="M470.7,625.6L448.5,615c-0.6-6.6-1.6-13.2-3.2-19.7l17.7-16.7c3.2-3,3.8-7.8,1.5-11.5l-27.9-44.7
			c-2.3-3.7-6.9-5.3-11.1-3.9l-23.2,7.9c-5.2-4.3-10.6-8.3-16.4-11.8l0.4-24.3c0.1-4.4-2.9-8.2-7.2-9.2l-51.6-12.4
			c-4.3-1.1-8.7,1-10.6,4.9l-10.6,21.8c-6.7,0.5-13.4,1.5-20,3L269.3,481c-3.1-3.1-7.9-3.8-11.6-1.5l-45.1,27.1
			c-3.7,2.2-5.4,6.8-3.9,10.9l8.2,23c-4.4,5-8.3,10.4-11.9,16l-24.6-0.6c-4.4-0.1-8.2,2.8-9.3,7L159,613.7c-1,4.2,1.1,8.6,5,10.5
			l22.2,10.6c0.6,6.6,1.6,13.2,3.2,19.7l-17.7,16.7c-3.2,3-3.8,7.8-1.5,11.5l27.9,44.7c2.3,3.7,6.9,5.3,11.1,3.9l23.2-7.9
			c5.2,4.3,10.6,8.3,16.4,11.8l-0.4,24.3c0,4.4,2.9,8.2,7.2,9.2l51.6,12.4c4.3,1.1,8.7-1,10.6-4.9l10.6-21.8c6.7-0.5,13.4-1.5,20-3
			l17.1,17.6c3.1,3.1,7.9,3.8,11.6,1.5l45.1-27.1c3.7-2.2,5.4-6.8,3.9-10.9l-8.2-23c4.4-5,8.3-10.4,11.8-16.1l24.6,0.6
			c4.4,0.1,8.2-2.8,9.3-7l12.2-50.8C476.7,631.8,474.6,627.5,470.7,625.6z M372,638c-7.1,29.6-37.4,47.9-67.5,40.6
			s-48.8-37.2-41.7-66.9s37.4-47.9,67.5-40.6S379.1,608.4,372,638z"/>
		<path class="st14" d="M521.9,699.1l-16.9-4.6c-1.3-4.7-2.9-9.2-4.8-13.7l10.2-14.4c1.8-2.6,1.6-6.1-0.5-8.4l-25.2-28.2
			c-2.1-2.3-5.5-2.9-8.2-1.3l-15.1,8.8c-4.1-2.4-8.5-4.5-13-6.2l-2.9-17.5c-0.5-3.1-3.1-5.4-6.2-5.6l-37.5-1.8c-3.1-0.1-6,1.9-6.7,5
			l-4.5,17.1c-4.6,1.3-9.1,2.9-13.5,4.9l-14.2-10.3c-2.5-1.8-6-1.6-8.3,0.5L326.6,649c-2.3,2.1-2.9,5.6-1.3,8.3l8.7,15.3
			c-2.4,4.2-4.4,8.6-6.1,13.1l-17.2,2.9c-3.1,0.5-5.4,3.2-5.5,6.3l-1.9,38.1c-0.2,3.1,1.9,6,4.9,6.8l16.8,4.6
			c1.3,4.7,2.9,9.2,4.8,13.7l-10.2,14.4c-1.8,2.6-1.6,6.1,0.5,8.4l25.2,28.2c2.1,2.3,5.5,2.9,8.2,1.3l15.1-8.8
			c4.1,2.4,8.5,4.5,13,6.2l2.9,17.5c0.5,3.1,3.1,5.4,6.2,5.6l37.5,1.8c3.1,0.1,6-1.9,6.7-5l4.5-17.1c4.6-1.3,9.1-2.9,13.5-4.9
			l14.2,10.3c2.5,1.8,6,1.6,8.3-0.5l27.9-25.6c2.3-2.1,2.9-5.6,1.3-8.3l-8.7-15.3c2.4-4.2,4.4-8.6,6.1-13.1l17.2-2.9
			c3.1-0.5,5.4-3.2,5.5-6.3l1.9-38.1C526.9,702.8,524.9,700,521.9,699.1z M453.2,730.7c-6.2,21.3-28.5,33.7-49.5,27.5
			s-33.1-28.5-26.8-49.9s28.5-33.7,49.5-27.5S459.5,709.4,453.2,730.7L453.2,730.7z"/>
	</g>
	<g id="Earth">
		<path class="st15" d="M662.5,957.4c-135.5,135.5-355.2,135.5-490.7,0s-135.5-355.2,0-490.7"/>
		<path class="st16" d="M270.4,1027c83.5,38.1,178.7,41.7,264.8,9.9c-1.3-7-5.1-29-4.9-42c0.2-15.6,16.4-41.9,4.9-93.3
			c-4-18-26.4-37.2-27.6-65.3s-9.4-35-20.1-44.4s-34.4-6.3-34.3-29.4c0-9.5-1.3-17.2-3.2-22.7l-10.5-8.4c-4.7,5.7-4.1,34.1,5.7,46.8
			c10.2,13.1,26.7,13.7,29.6,32.2s-21.9,23.7-32.9,22.6s-29.1-12.9-30.3-20.8s-2.9-18.5-9.6-20.7s-2.3,17.2-11.9,33.3
			s-57.4,28.4-99.5,39.6s-18.6,36.4,7.3,72s32.3-12.3,40.6-16s30.4,9,43.6,28.9s2.6,35.5-21.8,40s-36.5,12.9-18.5,23.5
			s77,17.1,76.1,28.9c-0.8,11.8-29.5,6.8-63.6,2.5c-34.1-4.3-61.8-42.8-64.2-59.8s-6.1-42.5-17-40.2s-32.7,3-6,42.2
			C288.9,1018.2,276,1025.5,270.4,1027z"/>
		<path class="st16" d="M83.1,786.5c-11.9-32.1-15.4-70-11.1-111.3c0,0,16,27.6,37.4,21.5s64.5-27.5,30.7,28.7
			S83.1,786.5,83.1,786.5z"/>
	</g>
</g>
</svg>
