<svg id="Layer_1" data-name="Layer 1" xmlns="http://www.w3.org/2000/svg" viewBox="0 0 1242 2208"><defs><style>.cls-1{fill:#00151f;}.cls-2{fill:#65807f;}.cls-3{fill:#889fc0;}.cls-4{fill:#a1cccb;}.cls-5{fill:#001c3f;}.cls-6{fill:#2d404e;}.cls-7{fill:#48b19b;}.cls-8{fill:#c77021;}.cls-9{fill:#f1881d;}.cls-10{fill:#3a3a3a;}.cls-11{fill:#c0d1e0;}.cls-12{fill:#abfffe;}.cls-13{fill:#3e727e;}.cls-14{fill:#d3d3d3;}.cls-15{fill:#bdbdbd;}.cls-16{fill:#9e9e9e;}.cls-17{fill:#fff;}</style></defs><rect class="cls-1" width="1242" height="2208"/><g id="Layer_1-2" data-name="Layer 1"><g id="Gears"><path class="cls-2" d="M853.55,1577.8l-50.33-10.93A274.68,274.68,0,0,0,787,1527.8l27.82-43.37a19.57,19.57,0,0,0-2.65-24.4l-78.36-78.36a19.56,19.56,0,0,0-24.4-2.54L666,1407A274.68,274.68,0,0,0,627,1390.72l-10.71-50.22a19.58,19.58,0,0,0-19.09-15.45H486.34a19.58,19.58,0,0,0-19.09,15.45l-10.93,50.33A274.15,274.15,0,0,0,417.25,1407L374,1379.13a19.57,19.57,0,0,0-24.4,2.65l-78.36,78.36a19.54,19.54,0,0,0-2.54,24.4l27.81,43.37A274.63,274.63,0,0,0,280.28,1567L230,1577.8a19.58,19.58,0,0,0-15.45,19.09v110.82A19.58,19.58,0,0,0,230,1726.8l50.33,10.93a274.1,274.1,0,0,0,16.11,39.07l-27.81,43.38a19.54,19.54,0,0,0,2.65,24.39l78.36,78.36a19.54,19.54,0,0,0,24.4,2.54l43.37-27.81a274.63,274.63,0,0,0,39.07,16.22l10.93,50.33a19.58,19.58,0,0,0,19.09,15.45H597.27a19.49,19.49,0,0,0,19.09-15.45l10.93-50.33a274.63,274.63,0,0,0,39.07-16.22l43.37,27.81a19.56,19.56,0,0,0,24.4-2.65l78.36-78.36a19.54,19.54,0,0,0,2.54-24.4l-27.82-43.37a274.68,274.68,0,0,0,16.23-39.07l50.11-10.82A19.58,19.58,0,0,0,869,1707.71V1596.89A19.58,19.58,0,0,0,853.55,1577.8Zm-194.48,74.5A117.33,117.33,0,1,1,541.75,1535,117.33,117.33,0,0,1,659.07,1652.3Z"/><path class="cls-3" d="M828.27,1699.21l-27-2.65a143.84,143.84,0,0,0-10.81-19.21l12.14-24.06a10.2,10.2,0,0,0-2.76-12.47L754.1,1605a10.45,10.45,0,0,0-13,.11L720,1622.17a142.78,142.78,0,0,0-21.41-6.07l-8.72-25.39a10.37,10.37,0,0,0-10.93-6.84l-58.16,6.62a10.45,10.45,0,0,0-9.17,9l-2.75,26.6a144.63,144.63,0,0,0-19.54,10.71L564.93,1625a10.51,10.51,0,0,0-12.7,2.76l-36.53,45.14a10,10,0,0,0,0,12.8l17.11,20.75a127.82,127.82,0,0,0-6.18,21.08l-25.83,8.61a10.24,10.24,0,0,0-6.95,10.82l6.51,57.28a10.2,10.2,0,0,0,9.16,8.94l27,2.65a142.81,142.81,0,0,0,10.82,19.21l-12.14,24.06a10,10,0,0,0,2.76,12.47l45.69,35.87a10.29,10.29,0,0,0,12.91-.11l21.08-17a157.24,157.24,0,0,0,21.42,6.07l8.72,25.39a10.36,10.36,0,0,0,10.92,6.84l58.17-6.62a10.44,10.44,0,0,0,9.16-9l2.76-26.6a145.12,145.12,0,0,0,19.53-10.71l24.4,11.92a10.65,10.65,0,0,0,12.69-2.76L822,1839.71a10.14,10.14,0,0,0,0-12.8l-17-20.86a127,127,0,0,0,6.19-21.19l25.82-8.61a10.19,10.19,0,0,0,7-10.82l-6.52-57.28A10.2,10.2,0,0,0,828.27,1699.21Zm-97.79,50.11c3.76,33.44-20.75,63.79-54.74,67.54s-64.68-20.19-68.43-53.64,20.75-63.79,54.74-67.54,64.68,20.19,68.43,53.64Z"/><path class="cls-4" d="M607.09,1553.08l-24.5-11.7a146.9,146.9,0,0,0-3.54-21.75l19.54-18.43a10.08,10.08,0,0,0,1.66-12.69l-30.8-49.34a10.48,10.48,0,0,0-12.25-4.3l-25.6,8.72a150.27,150.27,0,0,0-18.11-13l.45-26.82a10.18,10.18,0,0,0-8-10.15L449,1379.9a10.21,10.21,0,0,0-11.7,5.41l-11.7,24.06a152.05,152.05,0,0,0-22.08,3.31l-18.76-19.2a10.4,10.4,0,0,0-12.8-1.66l-49.78,29.92a10,10,0,0,0-4.3,12l9.05,25.38a147,147,0,0,0-13.14,17.66l-27.15-.66a10.32,10.32,0,0,0-10.26,7.72l-13.36,56.07a10.32,10.32,0,0,0,5.52,11.59l24.5,11.7a146.56,146.56,0,0,0,3.54,21.74l-19.54,18.44a10.08,10.08,0,0,0-1.66,12.69l30.8,49.33a10.48,10.48,0,0,0,12.25,4.31l25.6-8.72a149.11,149.11,0,0,0,18.11,13l-.45,26.82a10.3,10.3,0,0,0,7.95,10.16l56.95,13.68a10.19,10.19,0,0,0,11.7-5.4l11.7-24.07a149.36,149.36,0,0,0,22.08-3.31L491,1711.35a10.38,10.38,0,0,0,12.8,1.65l49.78-29.91a10,10,0,0,0,4.3-12l-9.05-25.38a129.33,129.33,0,0,0,13-17.77l27.15.66a10.31,10.31,0,0,0,10.26-7.73l13.47-56.06A10.53,10.53,0,0,0,607.09,1553.08Zm-108.94,13.68c-7.83,32.67-41.28,52.87-74.5,44.81s-53.86-41-46-73.83,41.28-52.87,74.5-44.82S506,1534.09,498.15,1566.76Z"/><path class="cls-5" d="M663.6,1634.2,645,1629.12a123.73,123.73,0,0,0-5.3-15.12l11.26-15.89a7.48,7.48,0,0,0-.56-9.27l-27.81-31.13a7.24,7.24,0,0,0-9-1.43L596.82,1566a94.34,94.34,0,0,0-14.34-6.84l-3.2-19.32a7.42,7.42,0,0,0-6.85-6.18l-41.39-2a7.25,7.25,0,0,0-7.39,5.52l-5,18.88a103.78,103.78,0,0,0-14.9,5.41l-15.67-11.37a7.31,7.31,0,0,0-9.16.55L448,1578.9a7.4,7.4,0,0,0-1.43,9.16l9.6,16.89a101.42,101.42,0,0,0-6.73,14.46l-19,3.2a7.31,7.31,0,0,0-6.08,7l-2.09,42.06a7.36,7.36,0,0,0,5.41,7.5l18.54,5.08a121.5,121.5,0,0,0,5.3,15.12l-11.26,15.89a7.46,7.46,0,0,0,.55,9.27l27.81,31.13a7.24,7.24,0,0,0,9.05,1.43l16.67-9.71a94.45,94.45,0,0,0,14.35,6.84l3.2,19.32a7.4,7.4,0,0,0,6.84,6.18l41.39,2a7.27,7.27,0,0,0,7.4-5.52l5-18.88a104.51,104.51,0,0,0,14.9-5.4l15.68,11.36a7.31,7.31,0,0,0,9.16-.55l30.79-28.25a7.4,7.4,0,0,0,1.44-9.16l-9.61-16.89a101.48,101.48,0,0,0,6.74-14.46l19-3.2a7.3,7.3,0,0,0,6.07-7l2.1-42.06A7.16,7.16,0,0,0,663.6,1634.2Zm-75.83,34.88c-6.84,23.51-31.45,37.19-54.63,30.35s-36.53-31.46-29.58-55.08S535,1607.16,558.19,1614s36.54,31.57,29.58,55.08Z"/></g><g id="Earth"><path class="cls-6" d="M818.78,1919.29c-149.55,149.55-392,149.55-541.59,0s-149.55-392,0-541.59"/><path class="cls-7" d="M386,1996.11A383.78,383.78,0,0,0,678.28,2007c-1.44-7.72-5.63-32-5.41-46.35.22-17.22,18.1-46.25,5.41-103-4.42-19.87-29.14-41.06-30.46-72.07s-10.38-38.63-22.19-49-38-6.95-37.86-32.45c0-10.48-1.43-19-3.53-25.05l-11.59-9.27c-5.18,6.29-4.52,37.64,6.29,51.65,11.26,14.46,29.47,15.12,32.67,35.54s-24.17,26.16-36.31,25-32.12-14.24-33.44-23-3.2-20.42-10.6-22.85-2.53,19-13.13,36.76-63.35,31.34-109.82,43.7-20.53,40.18,8.06,79.47,35.65-13.58,44.81-17.66,33.55,9.93,48.12,31.9,2.87,39.18-24.06,44.15-40.29,14.23-20.42,25.93,85,18.88,84,31.9-32.56,7.51-70.19,2.76-68.21-47.24-70.86-66S401,1902.18,389,1904.72s-36.1,3.31-6.63,46.58C406.43,1986.39,392.2,1994.45,386,1996.11Z"/><path class="cls-7" d="M179.29,1730.66c-13.13-35.43-17-77.26-12.25-122.84,0,0,17.66,30.46,41.28,23.73s71.19-30.35,33.88,31.68S179.29,1730.66,179.29,1730.66Z"/></g></g><g id="Rocket"><g id="Left_Fin" data-name="Left Fin"><path id="Outer_Fin" data-name="Outer Fin" class="cls-8" d="M814.16,1122.94a78.09,78.09,0,0,1-22.38-27.6c-13.78-27.66-10.32-58.36,6.73-75.12-4.77-7.87-9.38-16-14-24.46C761.1,1016.94,756,1057.6,774.22,1094a98.67,98.67,0,0,0,37.31,41A71.47,71.47,0,0,1,814.16,1122.94Z"/><path id="Inner_Fin" data-name="Inner Fin" class="cls-9" d="M840.47,1078.46a397.6,397.6,0,0,1-42.1-58.24c-17.06,16.89-20.53,47.59-6.74,75.11a79.66,79.66,0,0,0,22.38,27.6A114.79,114.79,0,0,1,840.47,1078.46Z"/></g><g id="Right_Fin" data-name="Right Fin"><path id="Outer_Fin-2" data-name="Outer Fin-2" class="cls-8" d="M976.22,1042.07a78,78,0,0,0-8.55-34.49c-13.78-27.66-40.39-43.27-64.07-39.74-3.42-8.52-7.13-17.2-11.26-25.91,31-6,66.63,14.39,84.83,50.77a98.39,98.39,0,0,1,10.41,54.43A74.44,74.44,0,0,0,976.22,1042.07Z"/><path id="Inner_Fin-2" data-name="Inner Fin-2" class="cls-9" d="M924.81,1036.33a393.37,393.37,0,0,0-21.21-68.64c23.69-3.52,50.29,12.23,64.08,39.75a79.81,79.81,0,0,1,8.55,34.49A114.74,114.74,0,0,0,924.81,1036.33Z"/></g><path id="Engine" class="cls-10" d="M884.72,1115.84l43.3-21.73c1.73-9.37,2-21,.61-34.22l-71.7,35.75C866.73,1104.69,876.08,1111.52,884.72,1115.84Z"/><path id="Nose_Cone" data-name="Nose Cone" class="cls-3" d="M750.35,792.5c24.58,8.19,63.42,33.73,87.6,58.08l-94,46.79C739.2,863.4,739.64,824.8,750.35,792.5Z"/><path id="Body" class="cls-11" d="M744.14,897.38a482.23,482.23,0,0,0,33.48,85.13c24.31,48.71,53.23,88.81,79.45,113.14l71.71-35.75c-3.68-35.51-18.31-82.75-42.77-131.47a486.77,486.77,0,0,0-47.92-77.84Z"/><path id="Top_Stripe" data-name="Top Stripe" class="cls-3" d="M806.07,1032.64c1.73,2.73,3.61,5.46,5.35,8,16.91,4.81,94.48-33.93,100.72-50.32-1-3-2.11-6-3.24-9.09C902.36,997.8,823.14,1037.32,806.07,1032.64Z"/><path id="Bottom_Stripe" data-name="Bottom Stripe" class="cls-3" d="M823.91,1058.21q2.83,3.88,5.68,7.34c15.6,4.88,86.11-30.35,91.56-45.77l-2.52-8.9C912.88,1026.42,839.81,1063,823.91,1058.21Z"/><g id="Center_Fin" data-name="Center Fin"><path id="Outer_Fin-3" data-name="Outer Fin-3" class="cls-8" d="M845,973c-3-3.39-5.24-4.84-6.59-4.33-4.5,2.2,5.54,31.39,22.44,65.21s34.17,59.37,38.67,57.16c1.21-.65,1.38-3.41.48-7.84-7.65-8.48-20-28.62-32.08-52.83S847.06,984.24,845,973Z"/><ellipse id="Inner_Fin-3" data-name="Inner Fin-3" class="cls-9" cx="872.5" cy="1028.21" rx="5.09" ry="61.56" transform="translate(-367.43 498.07) rotate(-26.53)"/></g><ellipse class="cls-12" cx="818.21" cy="928.42" rx="22.7" ry="22.85" transform="translate(-328.57 463.31) rotate(-26.53)"/><path class="cls-13" d="M804.7,901.2a30.38,30.38,0,1,0,40.72,13.69v-.15A30.43,30.43,0,0,0,804.7,901.2Zm23.66,47.5a22.79,22.79,0,1,1,10.16-30.58h0A22.79,22.79,0,0,1,828.36,948.7Z"/></g><g id="Moon"><circle class="cls-14" cx="397.6" cy="418.6" r="169.4"/><circle class="cls-15" cx="394.27" cy="545.07" r="28.95"/><circle class="cls-15" cx="295.43" cy="477.67" r="16.64"/><circle class="cls-16" cx="498.11" cy="460.87" r="27.79"/><circle class="cls-15" cx="398.27" cy="460.87" r="16.64"/><circle class="cls-16" cx="442.7" cy="366.52" r="17.31"/><circle class="cls-15" cx="341.36" cy="349.87" r="53.42"/></g><circle class="cls-17" cx="1082" cy="1821" r="4"/><circle class="cls-17" cx="669" cy="1228" r="4"/><circle class="cls-17" cx="714" cy="105" r="4"/><circle class="cls-17" cx="248" cy="162" r="4"/><circle class="cls-17" cx="1035" cy="350" r="4"/><circle class="cls-17" cx="214" cy="1104" r="4"/><circle class="cls-17" cx="683" cy="588" r="4"/><circle class="cls-17" cx="1006" cy="1270" r="4"/><circle class="cls-17" cx="1123" cy="520" r="4"/><circle class="cls-17" cx="1047" cy="82" r="4"/><circle class="cls-17" cx="673" cy="245" r="4"/><circle class="cls-17" cx="415" cy="82" r="4"/><circle class="cls-17" cx="109" cy="657" r="4"/><circle class="cls-17" cx="1127" cy="2057" r="4"/><circle class="cls-17" cx="1039" cy="837" r="4"/><circle class="cls-17" cx="976" cy="633" r="4"/><circle class="cls-17" cx="470" cy="776" r="4"/><circle class="cls-17" cx="460" cy="1083" r="4"/><circle class="cls-17" cx="125" cy="841" r="4"/><circle class="cls-17" cx="669" cy="2129" r="4"/><circle class="cls-17" cx="252" cy="2129" r="4"/><circle class="cls-17" cx="101" cy="1957" r="4"/><circle class="cls-17" cx="940" cy="1817" r="4"/><circle class="cls-17" cx="105" cy="208" r="4"/><circle class="cls-17" cx="1074" cy="1422" r="4"/><circle class="cls-17" cx="105" cy="1266" r="4"/><circle class="cls-17" cx="869" cy="367" r="4"/></svg>