<svg xmlns="http://www.w3.org/2000/svg" viewBox="0 0 1920 1080"><defs><style>.cls-1{fill:#00151f;}.cls-2{fill:#fff;}.cls-3{fill:#d3d3d3;}.cls-4{fill:#bdbdbd;}.cls-5{fill:#9e9e9e;}.cls-6{fill:#c77021;}.cls-7{fill:#f1881d;}.cls-8{fill:#3a3a3a;}.cls-9{fill:#889fc0;}.cls-10{fill:#c0d1e0;}.cls-11{fill:#abfffe;}.cls-12{fill:#3e727e;}.cls-13{fill:#65807f;}.cls-14{fill:#a1cccb;}.cls-15{fill:#001c3f;}.cls-16{fill:#2d404e;}.cls-17{fill:#48b19b;}</style></defs><g id="Background"><rect id="Spaace" class="cls-1" width="1920" height="1080"/><g id="Stars"><circle class="cls-2" cx="742" cy="339" r="4"/><circle class="cls-2" cx="893" cy="958" r="4"/><circle class="cls-2" cx="776" cy="560" r="4"/><circle class="cls-2" cx="922" cy="429" r="4"/><circle class="cls-2" cx="1101" cy="310" r="4"/><circle class="cls-2" cx="159" cy="262" r="4"/><circle class="cls-2" cx="321" cy="293" r="4"/><circle class="cls-2" cx="340" cy="77" r="4"/><circle class="cls-2" cx="820" cy="779" r="4"/><circle class="cls-2" cx="583" cy="114" r="4"/><circle class="cls-2" cx="1254" cy="373" r="4"/><circle class="cls-2" cx="1389" cy="818" r="4"/><circle class="cls-2" cx="1581" cy="863" r="4"/><circle class="cls-2" cx="1841" cy="839" r="4"/><circle class="cls-2" cx="1577" cy="655" r="4"/><circle class="cls-2" cx="1409" cy="560" r="4"/><circle class="cls-2" cx="1606" cy="528" r="4"/><circle class="cls-2" cx="1787" cy="727" r="4"/><circle class="cls-2" cx="1466" cy="343" r="4"/><circle class="cls-2" cx="1712" cy="306" r="4"/><circle class="cls-2" cx="1368" cy="189" r="4"/><circle class="cls-2" cx="1805" cy="144" r="4"/><circle class="cls-2" cx="1736" cy="1006" r="4"/><circle class="cls-2" cx="812" cy="77" r="4"/><circle class="cls-2" cx="860" cy="212" r="4"/><circle class="cls-2" cx="1236" cy="44" r="4"/><circle class="cls-2" cx="1164" cy="589" r="4"/><circle class="cls-2" cx="1203" cy="990" r="4"/><circle class="cls-2" cx="539" cy="270" r="4"/><circle class="cls-2" cx="74" cy="465" r="4"/><circle class="cls-2" cx="1628" cy="81" r="4"/><circle class="cls-2" cx="83" cy="151.5" r="4"/></g></g><g id="Moon"><circle class="cls-3" cx="1770.25" cy="491.25" r="101.75"/><circle class="cls-4" cx="1768.3" cy="567.28" r="17.38"/><circle class="cls-4" cx="1708.95" cy="526.7" r="10.01"/><circle class="cls-5" cx="1830.72" cy="516.69" r="16.68"/><circle class="cls-4" cx="1770.67" cy="516.69" r="10.01"/><circle class="cls-5" cx="1797.36" cy="459.97" r="10.43"/><circle class="cls-4" cx="1736.47" cy="449.97" r="32.11"/></g><g id="Rocket"><g id="Left_Fin" data-name="Left Fin"><path id="Outer_Fin" data-name="Outer Fin" class="cls-6" d="M973.37,758.12a54.39,54.39,0,0,1,18-16.54c18.36-10.6,39.57-9.51,51.82,1.48q7.77-5.37,16.22-10.58c-15.52-15.18-43.6-17-67.82-3a68.14,68.14,0,0,0-26.63,27.25A65.52,65.52,0,0,1,973.37,758.12Z"/><path id="Inner_Fin" data-name="Inner Fin" class="cls-7" d="M1005,774.38a276.33,276.33,0,0,1,38.18-31.32c-12.25-11-33.46-12.08-51.82-1.48a54.39,54.39,0,0,0-18,16.54A77.67,77.67,0,0,1,1005,774.38Z"/></g><g id="Right_Fin" data-name="Right Fin"><path id="Outer_Fin-2" data-name="Outer Fin" class="cls-6" d="M1035.62,866a54.34,54.34,0,0,0,23.3-7.27c18.37-10.61,28-29.52,24.63-45.62,5.69-2.69,11.47-5.62,17.28-8.76,5.38,21-7.07,46.26-31.29,60.25a68.21,68.21,0,0,1-36.92,9.43A63.12,63.12,0,0,0,1035.62,866Z"/><path id="Inner_Fin-2" data-name="Inner Fin" class="cls-7" d="M1037.34,830.46a276.16,276.16,0,0,0,46.21-17.4c3.4,16.1-6.26,35-24.63,45.62a54.34,54.34,0,0,1-23.3,7.27A77.49,77.49,0,0,0,1037.34,830.46Z"/></g><path id="Engine" class="cls-8" d="M981.22,806.25l16.65,28.84c6.54.83,14.49.47,23.51-1L993.85,786.4C988.06,793.46,983.76,800.17,981.22,806.25Z"/><path id="Nose_Cone" data-name="Nose Cone" class="cls-9" d="M1197.39,700.67c-4.63,17.19-20.49,44.87-36.2,62.53l-36-62.45C1148.29,696,1174.76,694.64,1197.39,700.67Z"/><path id="Body" class="cls-10" d="M1125.14,700.75a336.27,336.27,0,0,0-57,26.48c-32.4,18.7-58.74,40.21-74.29,59.17l27.53,47.67c24.19-4,56-16,88.38-34.75a336.39,336.39,0,0,0,51.43-36.12Z"/><path id="Top_Stripe" data-name="Top Stripe" class="cls-9" d="M1035,748.84q-2.7,2-5.29,4c-2.61,11.77,27.22,63.42,38.71,67,2-.83,4-1.7,6.08-2.59C1062.88,813.48,1032.43,760.76,1035,748.84Z"/><path id="Bottom_Stripe" data-name="Bottom Stripe" class="cls-9" d="M1018.16,762.11c-1.65,1.41-3.26,2.82-4.81,4.22-2.71,10.88,24.4,57.8,35.16,60.9q3-1,6-2.06C1043.66,821.82,1015.6,773.25,1018.16,762.11Z"/><g id="Center_Fin" data-name="Center Fin"><path id="Outer_Fin-3" data-name="Outer Fin" class="cls-6" d="M1077.44,773.05c2.16-2.2,3.14-3.82,2.66-4.66-1.73-3-21.33,5.1-43.79,18.07s-39.27,25.9-37.54,28.88c.48.84,2.38.81,5.36,0,5.52-5.6,18.75-14.9,34.89-24.22S1069.83,775,1077.44,773.05Z"/><ellipse id="Inner_Fin-3" data-name="Inner Fin" class="cls-7" cx="1040.79" cy="794.21" rx="42.32" ry="3.54" transform="translate(-257.67 626.8) rotate(-30)"/></g><ellipse class="cls-11" cx="1107.02" cy="752.84" rx="15.65" ry="15.6" transform="translate(-228.11 654.37) rotate(-30)"/><path class="cls-12" d="M1125.09,742.41a20.87,20.87,0,1,0-7.67,28.45A20.83,20.83,0,0,0,1125.09,742.41Zm-31.62,18.26a15.65,15.65,0,1,1,21.35,5.68A15.63,15.63,0,0,1,1093.47,760.67Z"/></g><g id="Layer_1" data-name="Layer 1"><g id="Gears"><path class="cls-13" d="M694.05,612l-45.58-9.91A247.3,247.3,0,0,0,633.8,566.7L659,527.45a17.72,17.72,0,0,0-2.37-22.11l-71-71A17.72,17.72,0,0,0,563.55,432L524.3,457.2a247.3,247.3,0,0,0-35.37-14.67L479,397A17.72,17.72,0,0,0,461.71,383H361.29A17.72,17.72,0,0,0,344,397l-9.91,45.58A247.3,247.3,0,0,0,298.7,457.2L259.45,432a17.72,17.72,0,0,0-22.11,2.37l-71,71A17.72,17.72,0,0,0,164,527.45L189.2,566.7a247.3,247.3,0,0,0-14.67,35.37L129,612A17.72,17.72,0,0,0,115,629.29V729.71A17.72,17.72,0,0,0,129,747l45.58,9.91A247.3,247.3,0,0,0,189.2,792.3L164,831.55a17.72,17.72,0,0,0,2.37,22.11l71,71A17.72,17.72,0,0,0,259.45,927L298.7,901.8a247.3,247.3,0,0,0,35.37,14.67L344,962.05a17.72,17.72,0,0,0,17.31,14H461.71a17.72,17.72,0,0,0,17.31-14l9.91-45.58A247.3,247.3,0,0,0,524.3,901.8L563.55,927a17.72,17.72,0,0,0,22.11-2.37l71-71A17.72,17.72,0,0,0,659,831.55L633.8,792.3a247.3,247.3,0,0,0,14.67-35.37L694.05,747a17.72,17.72,0,0,0,14-17.31V629.29A17.72,17.72,0,0,0,694.05,612ZM517.81,679.5A106.31,106.31,0,1,1,411.5,573.19,106.43,106.43,0,0,1,517.81,679.5Z"/><path class="cls-9" d="M671.1,722l-24.5-2.41a127.57,127.57,0,0,0-9.77-17.4l11-21.78a9.12,9.12,0,0,0-2.54-11.28l-41.42-32.47a9.48,9.48,0,0,0-11.75.09L573,652.14a132.11,132.11,0,0,0-19.42-5.48l-7.86-23a9.34,9.34,0,0,0-9.91-6.18l-52.71,6a9.32,9.32,0,0,0-8.27,8.24l-2.54,24.13a132.08,132.08,0,0,0-17.71,9.68l-22.08-10.71A9.48,9.48,0,0,0,421,657.36l-33.13,40.9a9.1,9.1,0,0,0,0,11.56l15.54,18.78a127.18,127.18,0,0,0-5.64,19.14l-23.35,7.83a9.24,9.24,0,0,0-6.31,9.77L374,817.22a9.23,9.23,0,0,0,8.33,8.11l24.51,2.42a127,127,0,0,0,9.76,17.4l-10.95,21.77a9.11,9.11,0,0,0,2.54,11.29l41.42,32.47a9.47,9.47,0,0,0,11.74-.09l19.13-15.36a133.36,133.36,0,0,0,19.42,5.48l7.87,22.95a9.33,9.33,0,0,0,9.9,6.19l52.71-6a9.35,9.35,0,0,0,8.28-8.24l2.54-24.13a133.32,133.32,0,0,0,17.71-9.68L621,892.55A9.48,9.48,0,0,0,632.46,890l33.13-40.9a9.09,9.09,0,0,0-.05-11.56L650,818.77a128.44,128.44,0,0,0,5.63-19.15L679,791.8A9.24,9.24,0,0,0,685.3,782l-5.86-51.88A9.27,9.27,0,0,0,671.1,722Zm-88.57,45.34c3.43,30.29-18.83,57.76-49.6,61.24s-58.6-18.33-62-48.62,18.83-57.75,49.6-61.23S579.11,737.09,582.53,767.37Z"/><path class="cls-14" d="M470.7,589.57l-22.21-10.63a127.54,127.54,0,0,0-3.24-19.69L463,542.52a9.11,9.11,0,0,0,1.46-11.47l-27.85-44.66a9.49,9.49,0,0,0-11.07-3.93l-23.22,7.91a133.47,133.47,0,0,0-16.39-11.77l.44-24.27a9.32,9.32,0,0,0-7.2-9.19l-51.57-12.39A9.32,9.32,0,0,0,317,437.67l-10.63,21.82a133.16,133.16,0,0,0-19.95,3.05l-17.09-17.6a9.49,9.49,0,0,0-11.65-1.53l-45.1,27.14a9.1,9.1,0,0,0-3.9,10.88l8.19,23A126.74,126.74,0,0,0,205,520.46l-24.62-.61a9.24,9.24,0,0,0-9.27,7L159,577.64A9.24,9.24,0,0,0,164,588.11l22.21,10.64a127.94,127.94,0,0,0,3.24,19.69l-17.73,16.73a9.11,9.11,0,0,0-1.46,11.47l27.85,44.65a9.47,9.47,0,0,0,11.07,3.93l23.22-7.91a132.49,132.49,0,0,0,16.39,11.78l-.44,24.26a9.33,9.33,0,0,0,7.2,9.19l51.58,12.39A9.31,9.31,0,0,0,317.73,740l10.63-21.82a130.64,130.64,0,0,0,19.95-3.05l17.1,17.6a9.46,9.46,0,0,0,11.64,1.53l45.1-27.14a9.09,9.09,0,0,0,3.9-10.88l-8.19-23a127.9,127.9,0,0,0,11.83-16.08l24.61.62a9.25,9.25,0,0,0,9.27-7L475.76,600A9.23,9.23,0,0,0,470.7,589.57ZM372,602c-7.12,29.63-37.41,47.86-67.52,40.63s-48.82-37.23-41.7-66.87,37.41-47.86,67.52-40.63S379.09,572.32,372,602Z"/><path class="cls-15" d="M521.91,663.09l-16.86-4.59a94.91,94.91,0,0,0-4.82-13.68l10.16-14.41a6.8,6.8,0,0,0-.48-8.42l-25.22-28.21a6.56,6.56,0,0,0-8.22-1.3l-15.14,8.84a92.16,92.16,0,0,0-12.95-6.21l-2.85-17.45a6.67,6.67,0,0,0-6.22-5.61l-37.53-1.83a6.64,6.64,0,0,0-6.73,5l-4.55,17.09A91.82,91.82,0,0,0,377,597.19l-14.2-10.28a6.57,6.57,0,0,0-8.31.49L326.64,613a6.79,6.79,0,0,0-1.3,8.33l8.7,15.34a96.3,96.3,0,0,0-6.14,13.14l-17.22,2.92a6.69,6.69,0,0,0-5.53,6.3l-1.87,38.06a6.71,6.71,0,0,0,4.9,6.81L325,708.5a94.91,94.91,0,0,0,4.82,13.68l-10.16,14.41a6.8,6.8,0,0,0,.48,8.42l25.22,28.21a6.56,6.56,0,0,0,8.22,1.3l15.14-8.84a92.16,92.16,0,0,0,12.95,6.21l2.86,17.45a6.66,6.66,0,0,0,6.21,5.61l37.53,1.83a6.63,6.63,0,0,0,6.73-5l4.55-17.09a91.41,91.41,0,0,0,13.49-4.91l14.21,10.28a6.55,6.55,0,0,0,8.3-.49L503.44,754a6.79,6.79,0,0,0,1.3-8.33L496,730.32a95.12,95.12,0,0,0,6.14-13.14l17.22-2.92a6.69,6.69,0,0,0,5.53-6.3l1.87-38.06A6.7,6.7,0,0,0,521.91,663.09Zm-68.69,31.59C447,716,424.76,728.38,403.7,722.21s-33.09-28.55-26.84-49.89,28.47-33.7,49.52-27.53S459.48,673.34,453.22,694.68Z"/></g><g id="Earth"><path class="cls-16" d="M662.49,921.39c-135.5,135.5-355.2,135.5-490.71,0s-135.51-355.21,0-490.71"/><path class="cls-17" d="M270.42,991a347.59,347.59,0,0,0,264.77,9.87c-1.28-7-5.08-29-4.9-42,.22-15.64,16.36-41.88,4.94-93.32-4-18-26.42-37.16-27.58-65.33s-9.35-35-20.06-44.41-34.39-6.28-34.33-29.39c0-9.49-1.3-17.21-3.23-22.74l-10.48-8.41c-4.73,5.65-4.1,34.13,5.72,46.75,10.18,13.09,26.74,13.69,29.59,32.22S453,797.91,441.91,796.8s-29.09-12.92-30.27-20.75-2.86-18.53-9.56-20.65-2.31,17.2-11.86,33.32-57.39,28.39-99.51,39.64-18.64,36.41,7.28,72,32.29-12.35,40.63-16,30.44,9,43.63,28.91,2.61,35.47-21.8,40S324,966.21,342,976.73s76.95,17.08,76.11,28.86-29.47,6.83-63.6,2.49-61.82-42.81-64.17-59.77-6.14-42.53-17.05-40.24-32.68,3-6,42.21C288.89,982.16,276,989.43,270.42,991Z"/><path class="cls-17" d="M83.05,750.47c-11.91-32.09-15.4-70-11.06-111.35,0,0,16,27.6,37.4,21.55s64.52-27.48,30.73,28.7S83.05,750.47,83.05,750.47Z"/></g></g></svg>