<?xml version="1.0" encoding="utf-8"?>
<!-- Generator: Adobe Illustrator 24.1.2, SVG Export Plug-In . SVG Version: 6.00 Build 0)  -->
<svg version="1.1" id="Layer_1" xmlns="http://www.w3.org/2000/svg" xmlns:xlink="http://www.w3.org/1999/xlink" x="0px" y="0px"
	 viewBox="0 0 100 100" style="enable-background:new 0 0 100 100;" xml:space="preserve">
<style type="text/css">
	.st0{fill:#2DAEFD;stroke:#254E70;stroke-width:4;stroke-miterlimit:10;}
	.st1{fill:#F5F5F5;}
	.st2{fill:#254E70;}
</style>
<path class="st0" d="M25.2,27.6h48.1c2.3,0,4.2,2.1,4.2,4.7V67c0,2.6-1.9,4.7-4.2,4.7H25.2c-2.3,0-4.2-2.1-4.2-4.7V32.3
	C21,29.7,22.9,27.6,25.2,27.6z"/>
<path class="st1" d="M38.4,63.3c-1.8,0-3.2-1.5-3.2-3.3c0-0.1,0-0.1,0-0.2V39.3c-0.1-1.7,1.1-3.2,2.8-3.4c0.1,0,0.2,0,0.2,0
	c0.6,0,1.2,0.2,1.8,0.5l21.3,11.1c1.5,0.5,2.2,2.1,1.7,3.6c-0.3,0.8-1,1.5-1.8,1.8L40.1,63C39.5,63.2,39,63.4,38.4,63.3L38.4,63.3z"
	/>
<path class="st2" d="M38.3,37.5c0.4,0,0.8,0.1,1.1,0.3l21.3,11.1c1.5,0.8,1.4,2,0,2.7l-21.2,10c-0.3,0.2-0.7,0.3-1.1,0.3
	c-1,0-1.7-0.7-1.7-2V39.4C36.7,38.2,37.4,37.5,38.3,37.5 M38.3,34.5c-2.5,0-4.6,2.1-4.6,4.6c0,0.1,0,0.2,0,0.3v20.5
	c-0.2,2.6,1.8,4.8,4.4,5c0.1,0,0.2,0,0.2,0c0.8,0,1.6-0.2,2.3-0.6l21.2-10c2.2-0.8,3.4-3.3,2.5-5.5c-0.4-1.1-1.3-2-2.4-2.5
	L40.8,35.1C40,34.7,39.2,34.5,38.3,34.5z"/>
</svg>
