<?xml version="1.0" encoding="utf-8"?>
<!-- Generator: Adobe Illustrator 24.1.3, SVG Export Plug-In . SVG Version: 6.00 Build 0)  -->
<svg version="1.1" id="Layer_1" xmlns="http://www.w3.org/2000/svg" xmlns:xlink="http://www.w3.org/1999/xlink" x="0px" y="0px"
	 viewBox="0 0 1920 1080" style="enable-background:new 0 0 1920 1080;" xml:space="preserve">
<style type="text/css">
	.st0{fill:#9AE6E4;}
	.st1{fill:#2F88CC;}
	.st2{fill:#2DAEFD;}
	.st3{fill:#C9FFFE;}
</style>
<g id="Background">
	<rect width="1920" height="1080"/>
</g>
<g id="Hands">
	<g id="Hand_1">
		<path class="st0" d="M756,334.5h117c11,0,20,9,20,20v16c0,11-9,20-20,20H756c-11,0-20-9-20-20v-16C736,343.5,745,334.5,756,334.5z
			"/>
		<path class="st0" d="M756,89.5h117c11,0,20,9,20,20v16c0,11-9,20-20,20H756c-11,0-20-9-20-20v-16C736,98.5,745,89.5,756,89.5z"/>
		<path class="st0" d="M756,89.5h16c11,0,20,9,20,20v261c0,11-9,20-20,20h-16c-11,0-20-9-20-20v-261C736,98.5,745,89.5,756,89.5z"/>
		<path class="st0" d="M498,141.8h16c11,0,20,9,20,20v153c0,11-9,20-20,20h-16c-11,0-20-9-20-20v-153C478,150.8,487,141.8,498,141.8
			z"/>
		<path class="st0" d="M584,141.8h16c11,0,20,9,20,20v153c0,11-9,20-20,20h-16c-11,0-20-9-20-20v-153C564,150.8,573,141.8,584,141.8
			z"/>
		<path class="st0" d="M670,141.8h16c11,0,20,9,20,20v153c0,11-9,20-20,20h-16c-11,0-20-9-20-20v-153C650,150.8,659,141.8,670,141.8
			z"/>
		<path class="st0" d="M326,141.8h16c11,0,20,9,20,20v153c0,11-9,20-20,20h-16c-11,0-20-9-20-20v-153C306,150.8,315,141.8,326,141.8
			z"/>
		<path class="st0" d="M240,141.8h16c11,0,20,9,20,20v153c0,11-9,20-20,20h-16c-11,0-20-9-20-20v-153C220,150.8,229,141.8,240,141.8
			z"/>
		<path class="st0" d="M412,141.8h16c11,0,20,9,20,20v153c0,11-9,20-20,20h-16c-11,0-20-9-20-20v-153C392,150.8,401,141.8,412,141.8
			z"/>
		<path class="st0" d="M0,50v380c104.9,0,190-85.1,190-190S104.9,50,0,50z"/>
		<path class="st1" d="M1047,689.5h117c11,0,20,9,20,20v16c0,11-9,20-20,20h-117c-11,0-20-9-20-20v-16
			C1027,698.5,1036,689.5,1047,689.5z"/>
		<path class="st1" d="M1047,934.5h117c11,0,20,9,20,20v16c0,11-9,20-20,20h-117c-11,0-20-9-20-20v-16
			C1027,943.5,1036,934.5,1047,934.5z"/>
		<path class="st1" d="M1148,689.5h16c11,0,20,9,20,20v261c0,11-9,20-20,20h-16c-11,0-20-9-20-20v-261
			C1128,698.5,1137,689.5,1148,689.5z"/>
		<path class="st1" d="M1406,745.2h16c11,0,20,9,20,20v153c0,11-9,20-20,20h-16c-11,0-20-9-20-20v-153
			C1386,754.1,1395,745.2,1406,745.2z"/>
		<path class="st1" d="M1320,745.2h16c11,0,20,9,20,20v153c0,11-9,20-20,20h-16c-11,0-20-9-20-20v-153
			C1300,754.1,1309,745.2,1320,745.2z"/>
		<path class="st1" d="M1234,745.2h16c11,0,20,9,20,20v153c0,11-9,20-20,20h-16c-11,0-20-9-20-20v-153
			C1214,754.1,1223,745.2,1234,745.2z"/>
		<path class="st1" d="M1578,745.2h16c11,0,20,9,20,20v153c0,11-9,20-20,20h-16c-11,0-20-9-20-20v-153
			C1558,754.1,1567,745.2,1578,745.2z"/>
		<path class="st1" d="M1664,745.2h16c11,0,20,9,20,20v153c0,11-9,20-20,20h-16c-11,0-20-9-20-20v-153
			C1644,754.1,1653,745.2,1664,745.2z"/>
		<path class="st1" d="M1492,745.2h16c11,0,20,9,20,20v153c0,11-9,20-20,20h-16c-11,0-20-9-20-20v-153
			C1472,754.1,1481,745.2,1492,745.2z"/>
		<path class="st1" d="M1920,1030V650c-104.9,0-190,85.1-190,190S1815.1,1030,1920,1030z"/>
		<path class="st2" d="M464.5,445h16c11,0,20,9,20,20v117c0,11-9,20-20,20h-16c-11,0-20-9-20-20V465C444.5,454,453.5,445,464.5,445z
			"/>
		<path class="st2" d="M219.5,445h16c11,0,20,9,20,20v117c0,11-9,20-20,20h-16c-11,0-20-9-20-20V465C199.5,454,208.5,445,219.5,445z
			"/>
		<path class="st2" d="M219.5,546h261c11,0,20,9,20,20v16c0,11-9,20-20,20h-261c-11,0-20-9-20-20v-16C199.5,555,208.5,546,219.5,546
			z"/>
		<path class="st2" d="M271.8,804h153c11,0,20,9,20,20v16c0,11-9,20-20,20h-153c-11,0-20-9-20-20v-16C251.8,813,260.8,804,271.8,804
			z"/>
		<path class="st2" d="M271.8,718h153c11,0,20,9,20,20v16c0,11-9,20-20,20h-153c-11,0-20-9-20-20v-16C251.8,727,260.8,718,271.8,718
			z"/>
		<path class="st2" d="M271.8,632h153c11,0,20,9,20,20v16c0,11-9,20-20,20h-153c-11,0-20-9-20-20v-16C251.8,641,260.8,632,271.8,632
			z"/>
		<path class="st2" d="M160,1080h380c0-104.9-85.1-190-190-190S160,975.1,160,1080z"/>
		<path class="st3" d="M1439.5,481h16c11,0,20,9,20,20v117c0,11-9,20-20,20h-16c-11,0-20-9-20-20V501
			C1419.5,490,1428.5,481,1439.5,481z"/>
		<path class="st3" d="M1684.5,481h16c11,0,20,9,20,20v117c0,11-9,20-20,20h-16c-11,0-20-9-20-20V501
			C1664.5,490,1673.5,481,1684.5,481z"/>
		<path class="st3" d="M1439.5,481h261c11,0,20,9,20,20v16c0,11-9,20-20,20h-261c-11,0-20-9-20-20v-16
			C1419.5,490,1428.5,481,1439.5,481z"/>
		<path class="st3" d="M1495.2,223h153c11,0,20,9,20,20v16c0,11-9,20-20,20h-153c-11,0-20-9-20-20v-16
			C1475.2,232,1484.1,223,1495.2,223z"/>
		<path class="st3" d="M1495.2,309h153c11,0,20,9,20,20v16c0,11-9,20-20,20h-153c-11,0-20-9-20-20v-16
			C1475.2,318,1484.1,309,1495.2,309z"/>
		<path class="st3" d="M1495.2,395h153c11,0,20,9,20,20v16c0,11-9,20-20,20h-153c-11,0-20-9-20-20v-16
			C1475.2,404,1484.1,395,1495.2,395z"/>
		<path class="st3" d="M1760,0h-380c0,104.9,85.1,190,190,190S1760,104.9,1760,0z"/>
	</g>
</g>
</svg>
