<svg id="Layer_1" data-name="Layer 1" xmlns="http://www.w3.org/2000/svg" viewBox="0 0 1242 2208"><defs><style>.cls-1{stroke:#000;stroke-miterlimit:10;}.cls-2{fill:#9ae6e4;}.cls-3{fill:#2f88cc;}</style></defs><rect class="cls-1" x="0.5" y="0.5" width="1241" height="2208"/><rect class="cls-2" x="718.89" y="1284.97" width="57.91" height="162.37" rx="20.68"/><rect class="cls-2" x="465.52" y="1284.97" width="57.91" height="162.37" rx="20.68"/><rect class="cls-2" x="465.52" y="1389.43" width="311.29" height="57.91" rx="20.68"/><rect class="cls-2" x="519.62" y="1656.25" width="199.6" height="57.91" rx="20.68"/><rect class="cls-2" x="519.62" y="1567.31" width="199.6" height="57.91" rx="20.68"/><rect class="cls-2" x="519.62" y="1478.37" width="199.6" height="57.91" rx="20.68"/><rect class="cls-2" x="519.62" y="1834.13" width="199.6" height="57.91" rx="20.68"/><rect class="cls-2" x="519.62" y="1923.07" width="199.6" height="57.91" rx="20.68"/><rect class="cls-2" x="519.62" y="1745.19" width="199.6" height="57.91" rx="20.68"/><path class="cls-2" d="M424.67,2208.5h393c0-108.52-88-196.5-196.5-196.5S424.67,2100,424.67,2208.5Z"/><rect class="cls-3" x="473.63" y="761.16" width="57.91" height="162.37" rx="20.68"/><rect class="cls-3" x="727" y="761.16" width="57.91" height="162.37" rx="20.68"/><rect class="cls-3" x="473.63" y="761.16" width="311.29" height="57.91" rx="20.68"/><rect class="cls-3" x="531.22" y="494.34" width="199.6" height="57.91" rx="20.68"/><rect class="cls-3" x="531.22" y="583.28" width="199.6" height="57.91" rx="20.68"/><rect class="cls-3" x="531.22" y="672.22" width="199.6" height="57.91" rx="20.68"/><rect class="cls-3" x="531.22" y="316.46" width="199.6" height="57.91" rx="20.68"/><rect class="cls-3" x="531.22" y="227.52" width="199.6" height="57.91" rx="20.68"/><rect class="cls-3" x="531.22" y="405.4" width="199.6" height="57.91" rx="20.68"/><path class="cls-3" d="M825.77,0h-393c0,108.52,88,196.5,196.49,196.5S825.77,108.52,825.77,0Z"/></svg>