<svg xmlns="http://www.w3.org/2000/svg" viewBox="0 0 1920 1080"><defs><style>.cls-1{fill:#9ae6e4;}.cls-2{fill:#2f88cc;}.cls-3{fill:#2daefd;}.cls-4{fill:#c9fffe;}.cls-5{fill:#fff;}</style></defs><g id="Background"><rect width="1920" height="1080"/></g><g id="Hands"><g id="Hand_1" data-name="Hand 1"><rect class="cls-1" x="736" y="334.5" width="157" height="56" rx="20"/><rect class="cls-1" x="736" y="89.5" width="157" height="56" rx="20"/><rect class="cls-1" x="736" y="89.5" width="56" height="301" rx="20"/><rect class="cls-1" x="478" y="141.81" width="56" height="193" rx="20"/><rect class="cls-1" x="564" y="141.81" width="56" height="193" rx="20"/><rect class="cls-1" x="650" y="141.81" width="56" height="193" rx="20"/><rect class="cls-1" x="306" y="141.81" width="56" height="193" rx="20"/><rect class="cls-1" x="220" y="141.81" width="56" height="193" rx="20"/><rect class="cls-1" x="392" y="141.81" width="56" height="193" rx="20"/><path class="cls-1" d="M0,50V430c104.93,0,190-85.07,190-190S104.93,50,0,50Z"/><rect class="cls-2" x="1027" y="689.5" width="157" height="56" rx="20"/><rect class="cls-2" x="1027" y="934.5" width="157" height="56" rx="20"/><rect class="cls-2" x="1128" y="689.5" width="56" height="301" rx="20"/><rect class="cls-2" x="1386" y="745.19" width="56" height="193" rx="20"/><rect class="cls-2" x="1300" y="745.19" width="56" height="193" rx="20"/><rect class="cls-2" x="1214" y="745.19" width="56" height="193" rx="20"/><rect class="cls-2" x="1558" y="745.19" width="56" height="193" rx="20"/><rect class="cls-2" x="1644" y="745.19" width="56" height="193" rx="20"/><rect class="cls-2" x="1472" y="745.19" width="56" height="193" rx="20"/><path class="cls-2" d="M1920,1030V650c-104.93,0-190,85.07-190,190S1815.07,1030,1920,1030Z"/><rect class="cls-3" x="444.5" y="445" width="56" height="157" rx="20"/><rect class="cls-3" x="199.5" y="445" width="56" height="157" rx="20"/><rect class="cls-3" x="199.5" y="546" width="301" height="56" rx="20"/><rect class="cls-3" x="251.81" y="804" width="193" height="56" rx="20"/><rect class="cls-3" x="251.81" y="718" width="193" height="56" rx="20"/><rect class="cls-3" x="251.81" y="632" width="193" height="56" rx="20"/><path class="cls-3" d="M160,1080H540c0-104.93-85.07-190-190-190S160,975.07,160,1080Z"/><rect class="cls-4" x="1419.5" y="481" width="56" height="157" rx="20"/><rect class="cls-4" x="1664.5" y="481" width="56" height="157" rx="20"/><rect class="cls-4" x="1419.5" y="481" width="301" height="56" rx="20"/><rect class="cls-4" x="1475.19" y="223" width="193" height="56" rx="20"/><rect class="cls-4" x="1475.19" y="309" width="193" height="56" rx="20"/><rect class="cls-4" x="1475.19" y="395" width="193" height="56" rx="20"/><path class="cls-4" d="M1760,0H1380c0,104.93,85.07,190,190,190S1760,104.93,1760,0Z"/></g><g id="Layer_4" data-name="Layer 4"><path class="cls-5" d="M1206.31,543.66a4.91,4.91,0,0,1,0-7.32l77.42-71.48c2.17-2,1.49-3.65-1.52-3.65H1039.43a10.9,10.9,0,0,0-8.3,4.51l-68.3,109.15c-1.56,2.49-4.1,2.49-5.66,0l-68.3-109.15a10.9,10.9,0,0,0-8.3-4.51H637.79c-3,0-3.69,1.64-1.52,3.65l77.42,71.48a4.91,4.91,0,0,1,0,7.32l-77.42,71.48c-2.17,2-1.49,3.65,1.52,3.65h644.42c3,0,3.69-1.64,1.52-3.65ZM901.72,590.73,749.26,591c-6,0-7.1-3-2.51-6.67l48.63-38.88c4.65-3.72,4.52-9.65-.28-13.17l-52.86-38.74c-4.75-3.48-3.75-6.35,2.23-6.38L840,486.7c6,0,13.26,4,16.22,9l50.94,85.94C910.15,586.63,907.69,590.72,901.72,590.73Zm277.83-96.82-52.43,38.42c-4.8,3.52-4.93,9.45-.28,13.17l48.23,38.56c4.59,3.68,3.46,6.68-2.51,6.67l-151.46-.22c-5.93,0-8.37-4.07-5.44-9l50.63-85.42c2.94-4.95,10.2-9,16.13-9l94.9.42C1183.3,487.56,1184.3,490.43,1179.55,493.91Z"/></g></g></svg>