<?xml version="1.0" encoding="utf-8"?>
<!-- Generator: Adobe Illustrator 24.1.3, SVG Export Plug-In . SVG Version: 6.00 Build 0)  -->
<svg version="1.1" id="Layer_1" xmlns="http://www.w3.org/2000/svg" xmlns:xlink="http://www.w3.org/1999/xlink" x="0px" y="0px"
	 viewBox="0 0 1050 250" style="enable-background:new 0 0 1050 250;" xml:space="preserve">
<style type="text/css">
	.st0{fill:#3E84BD;}
	.st1{fill:#282828;}
	.st2{fill:none;stroke:#FFFFFF;stroke-width:9;stroke-miterlimit:10;}
	.st3{fill:none;stroke:#FFFFFF;stroke-width:9;stroke-miterlimit:10;stroke-dasharray:11.9997,2.9999;}
	.st4{fill:#2D404E;}
	.st5{fill:#48B19B;}
	.st6{fill:#D3D3D3;}
	.st7{fill:#C1440E;}
	.st8{fill:#FDA600;}
	.st9{fill:#E77D11;}
	.st10{fill:#BDBDBD;}
	.st11{fill:#9E9E9E;}
	.st12{fill:#F5F5F5;}
	.st13{fill:#C77021;}
	.st14{fill:#F1881D;}
	.st15{fill:#3A3A3A;}
	.st16{fill:#889FC0;}
	.st17{fill:#C0D1E0;}
	.st18{fill:#ABFFFE;}
	.st19{fill:#3E727E;}
	.st20{fill:none;}
</style>
<path class="st0" d="M452,138.6"/>
<rect class="st1" width="1050" height="250"/>
<g>
	<g>
		<path class="st2" d="M201.5,197.5c1.5,1.3,3.1,2.5,4.7,3.7"/>
		<path class="st3" d="M208.6,203C342.4,296.1,672,33.6,770.3,54.3"/>
		<path class="st2" d="M771.8,54.6c2,0.5,3.9,1.1,5.7,1.9"/>
	</g>
</g>
<path class="st4" d="M161.2,44H71.3c-6,0-11.5,3.2-14.4,8.3L12,130.1c-3,5.2-3,11.5,0,16.7l44.9,77.8c3,5.2,8.5,8.3,14.4,8.3h89.9
	c6,0,11.5-3.2,14.4-8.3l44.9-77.8c3-5.2,3-11.5,0-16.7l-44.9-77.8C172.6,47.2,167.1,44,161.2,44z"/>
<path class="st5" d="M45.4,202.9c28.4,22.2,64.4,32.2,100.2,27.9c0.1-2.8,0.7-11.5,2-16.5c1.5-6,10.1-14.5,10.4-35.2
	c0.1-7.2-6.7-16.6-4.6-27.5c2.1-10.9-0.4-14.2-3.6-18.8s-12.6-5.5-10.4-14.4c0.9-3.6,1.1-6.7,0.8-9l-3.2-4.2
	c-2.3,1.7-4.7,12.7-2.1,18.4c2.7,5.9,9,7.7,8.4,15c-0.6,7.3-10.5,7-14.6,5.6c-4.1-1.4-9.9-7.6-9.7-10.7c0.3-3.1,0.6-7.3-1.8-8.8
	c-2.4-1.4-2.4,6.4-7.6,11.6s-24.5,5.6-41.6,6.1c-17.1,0.5-10.4,12.2-3.8,28.2c6.7,16,13.5-1.8,17-2.4c3.5-0.6,10.8,6.2,14,15
	s-2.2,13.8-12,13.3s-15.1,1.6-9.2,7.3c5.9,5.7,27.8,13.5,26.4,18c-1.4,4.4-11.9-0.1-24.5-4.8s-19.7-22-19.1-28.7s1.5-16.8-2.8-16.9
	s-12.8-1.8-6.1,15.6C53.3,201.2,47.7,202.8,45.4,202.9z"/>
<path class="st6" d="M577.4,44.2h-89.9c-6,0-11.5,3.2-14.4,8.3l-44.9,77.8c-3,5.2-3,11.5,0,16.7l44.9,77.8c3,5.2,8.5,8.3,14.4,8.3
	h89.9c6,0,11.5-3.2,14.4-8.3l44.9-77.8c3-5.2,3-11.5,0-16.7l-44.9-77.8C588.9,47.4,583.4,44.2,577.4,44.2z"/>
<path class="st7" d="M984.6,44h-89.9c-6,0-11.5,3.2-14.4,8.3l-44.9,77.8c-3,5.2-3,11.5,0,16.7l44.9,77.8c3,5.2,8.5,8.3,14.4,8.3
	h89.9c6,0,11.5-3.2,14.4-8.3l44.9-77.8c3-5.2,3-11.5,0-16.7L999,52.3C996.1,47.2,990.6,44,984.6,44z"/>
<circle class="st8" cx="902.8" cy="95.6" r="19.7"/>
<circle class="st9" cx="911" cy="200.7" r="19.7"/>
<circle class="st9" cx="984.7" cy="146.9" r="13.5"/>
<circle class="st10" cx="502.8" cy="85.1" r="33.3"/>
<circle class="st11" cx="594" cy="147.5" r="19.7"/>
<circle class="st10" cx="479.6" cy="190.2" r="13.5"/>
<circle class="st10" cx="548.2" cy="216.5" r="6.7"/>
<g>
	<path class="st12" d="M49.4,125.2H46V97.3h11.1c4.9,0,7.8,2.8,7.8,7.9c0,4.1-2,6.8-5.6,7.7l6.4,12.3H62l-6-12h-6.5L49.4,125.2
		L49.4,125.2z M57.2,110.3c2.6,0,4.2-1.4,4.2-4v-2.1c0-2.6-1.6-4-4.2-4h-7.8v10.1H57.2z"/>
	<path class="st12" d="M69.2,114.9c0-6.6,3.7-10.8,9.3-10.8c5.5,0,8.9,4.2,8.9,10.1v1.5H72.6v1c0,3.6,2.3,6.2,6.1,6.2
		c2.6,0,4.6-1.3,5.7-3.6l2.3,1.6c-1.3,2.8-4.3,4.7-8.2,4.7C72.9,125.7,69.2,121.4,69.2,114.9z M72.6,113v0.3H84v-0.4
		c0-3.6-2.2-6.1-5.5-6.1C75,106.7,72.6,109.4,72.6,113z"/>
	<path class="st12" d="M100.1,133.7c-6.4,0-9.1-1.8-9.1-5.1c0-2.2,1.2-3.4,3.3-4v-0.4c-1.2-0.6-1.8-1.5-1.8-2.9
		c0-2.1,1.5-3.1,3.6-3.6v-0.2c-2.4-1.2-3.9-3.4-3.9-6.3c0-4.2,3.1-7.1,7.8-7.1c1.5,0,2.8,0.3,3.9,0.8v-0.4c0-1.6,0.7-2.8,2.4-2.8
		h3.1v2.8h-3.9v1.3c1.5,1.3,2.4,3.1,2.4,5.3c0,4.2-3.1,7.1-7.8,7.1c-0.7,0-1.4-0.1-2-0.2c-1.4,0.4-2.7,1-2.7,2.3
		c0,1.2,1.3,1.6,3.2,1.6h4.4c5.1,0,7.3,2.1,7.3,5.5C110.1,131.7,106.7,133.7,100.1,133.7z M102.8,125h-6.9c-1.3,0.6-1.9,1.5-1.9,2.8
		c0,1.8,1.2,3.3,4.5,3.3h3c3.6,0,5.6-1.1,5.6-3.4C107.1,126.1,106,125,102.8,125z M104.4,111.7v-1.1c0-2.7-1.7-4-4.4-4
		c-2.7,0-4.4,1.3-4.4,4v1.1c0,2.7,1.7,4,4.4,4C102.6,115.7,104.4,114.5,104.4,111.7z"/>
	<path class="st12" d="M113.4,97.9v-0.5c0-1.1,0.6-1.8,2-1.8s2,0.7,2,1.8v0.5c0,1.1-0.6,1.8-2,1.8C114,99.7,113.4,99,113.4,97.9z
		 M113.8,104.5h3.2v20.6h-3.2V104.5z"/>
	<path class="st12" d="M121.8,121.6l2.3-1.8c1.6,2,3.5,3.2,6.1,3.2c2.7,0,4.3-1.2,4.3-3.4c0-1.6-0.9-2.8-3.6-3.2l-1.6-0.2
		c-3.8-0.6-6.6-2.1-6.6-6c0-4.1,3.2-6.1,7.4-6.1c3.3,0,5.5,1.2,7.2,3.3l-2.1,1.9c-0.9-1.3-2.7-2.5-5.3-2.5s-4,1.2-4,3.2
		s1.4,2.8,4,3.2l1.6,0.2c4.6,0.7,6.3,2.7,6.3,5.8c0,4-2.9,6.4-7.6,6.4C126.2,125.7,123.7,124.1,121.8,121.6z"/>
	<path class="st12" d="M147.6,125.2c-2.2,0-3.4-1.4-3.4-3.4v-14.4h-3.4v-2.8h1.9c1.4,0,1.8-0.5,1.8-1.9v-3.8h2.9v5.7h4.5v2.8h-4.5
		v15h4.2v2.8C151.6,125.2,147.6,125.2,147.6,125.2z"/>
	<path class="st12" d="M155.4,114.9c0-6.6,3.7-10.8,9.3-10.8c5.5,0,8.9,4.2,8.9,10.1v1.5h-14.8v1c0,3.6,2.3,6.2,6.1,6.2
		c2.6,0,4.6-1.3,5.7-3.6l2.3,1.6c-1.3,2.8-4.3,4.7-8.2,4.7C159,125.7,155.4,121.4,155.4,114.9z M158.7,113v0.3h11.4v-0.4
		c0-3.6-2.2-6.1-5.5-6.1C161.2,106.7,158.7,109.4,158.7,113z"/>
	<path class="st12" d="M178.8,125.2v-20.6h3.2v3.8h0.2c0.7-2,2.6-3.8,6-3.8h1.2v3.2h-1.9c-3.4,0-5.5,1.5-5.5,3.4v14H178.8z"/>
</g>
<g>
	<path d="M493.2,125.4l-2.8-8.2h-11.3l-2.8,8.2H473l9.8-27.9h4.3l9.8,27.9H493.2z M484.9,100.6h-0.2l-4.7,13.6h9.6L484.9,100.6z"/>
	<path d="M505.5,125.4c-2.2,0-3.4-1.4-3.4-3.4v-14.4h-3.4v-2.8h1.9c1.4,0,1.8-0.5,1.8-1.9v-3.8h2.9v5.7h4.5v2.8h-4.5v15h4.2v2.8
		C509.5,125.4,505.5,125.4,505.5,125.4z"/>
	<path d="M519.2,125.4c-2.2,0-3.4-1.4-3.4-3.4v-14.4h-3.4v-2.8h1.9c1.4,0,1.8-0.5,1.8-1.9v-3.8h2.9v5.7h4.5v2.8H519v15h4.2v2.8
		C523.2,125.4,519.2,125.4,519.2,125.4z"/>
	<path d="M527,115.1c0-6.6,3.7-10.8,9.3-10.8c5.5,0,8.9,4.2,8.9,10.1v1.5h-14.8v1c0,3.6,2.3,6.2,6.1,6.2c2.6,0,4.6-1.3,5.7-3.6
		l2.3,1.6c-1.3,2.8-4.3,4.7-8.2,4.7C530.6,125.9,527,121.6,527,115.1z M530.3,113.2v0.3h11.4v-0.4c0-3.6-2.2-6.1-5.5-6.1
		C532.8,107,530.3,109.6,530.3,113.2z"/>
	<path d="M550.4,125.4v-20.6h3.2v3.4h0.2c1-2.3,2.8-3.8,5.8-3.8c4.2,0,6.9,2.9,6.9,7.9v13.2h-3.2v-12.7c0-3.7-1.6-5.6-4.7-5.6
		c-2.6,0-5,1.3-5,3.9v14.3C553.6,125.4,550.4,125.4,550.4,125.4z"/>
	<path d="M586.4,122h-0.2c-1.2,2.6-3.2,3.8-6,3.8c-5.2,0-8.4-4.2-8.4-10.8c0-6.6,3.2-10.8,8.4-10.8c2.8,0,5,1.2,6,3.8h0.2V95.8h3.2
		v29.6h-3.2V122z M586.4,118.8v-7.7c0-2.3-2.4-4-5.3-4c-3.6,0-5.8,2.5-5.8,6.2v3.5c0,3.7,2.2,6.2,5.8,6.2
		C584,123,586.4,121.5,586.4,118.8z"/>
</g>
<g>
	<path class="st12" d="M879.4,97.3h4.5l8,15h0.2l8-15h4.3v27.9h-3.3v-23.5h-0.2l-2.4,4.7l-6.7,12.2l-6.7-12.2l-2.4-4.7h-0.2v23.5
		h-3.3V97.3H879.4z"/>
	<path class="st12" d="M910,114.9c0-6.6,3.7-10.8,9.3-10.8c5.5,0,8.9,4.2,8.9,10.1v1.5h-14.8v1c0,3.6,2.3,6.2,6.1,6.2
		c2.6,0,4.6-1.3,5.7-3.6l2.3,1.6c-1.3,2.8-4.3,4.7-8.2,4.7C913.7,125.7,910,121.4,910,114.9z M913.4,113v0.3h11.4v-0.4
		c0-3.6-2.2-6.1-5.5-6.1C915.8,106.7,913.4,109.4,913.4,113z"/>
	<path class="st12" d="M933.5,125.2v-20.6h3.2v3.4h0.2c1-2.3,2.8-3.8,5.8-3.8c4.2,0,6.9,2.9,6.9,7.9v13.2h-3.2v-12.7
		c0-3.7-1.6-5.6-4.7-5.6c-2.6,0-5,1.3-5,3.9v14.3C936.7,125.2,933.5,125.2,933.5,125.2z"/>
	<path class="st12" d="M960.8,125.2c-2.2,0-3.4-1.4-3.4-3.4v-14.4H954v-2.8h1.9c1.4,0,1.8-0.5,1.8-1.9v-3.8h2.9v5.7h4.5v2.8h-4.5v15
		h4.2v2.8C964.8,125.2,960.8,125.2,960.8,125.2z"/>
	<path class="st12" d="M968.6,114.9c0-6.6,3.8-10.8,9.3-10.8s9.3,4.2,9.3,10.8c0,6.6-3.8,10.8-9.3,10.8
		C972.4,125.7,968.6,121.4,968.6,114.9z M983.8,116.3v-3c0-4.4-2.4-6.5-5.9-6.5s-5.9,2.1-5.9,6.5v3c0,4.4,2.4,6.5,5.9,6.5
		S983.8,120.7,983.8,116.3z"/>
	<path class="st12" d="M992.5,125.2v-20.6h3.2v3.8h0.2c0.7-2,2.6-3.8,6-3.8h1.2v3.2h-1.9c-3.4,0-5.5,1.5-5.5,3.4v14H992.5z"/>
</g>
<g id="Left_Fin_2_">
	<path id="Outer_Fin" class="st13" d="M793.7,38.8c2.7,0.1,5.5,0.9,8.2,2.3c6.5,3.5,10,10.1,8.9,15.7c2,0.9,4,1.9,6.1,2.9
		c1.7-7.4-2.8-16.1-11.3-20.7c-4.2-2.3-8.8-3.3-12.9-3C793,36.9,793.4,37.9,793.7,38.8z"/>
	<path id="Inner_Fin_1_" class="st14" d="M794.5,51.2c4.9,1.2,10.4,3.1,16.2,5.7c1.1-5.6-2.4-12.1-8.9-15.7
		c-2.7-1.5-5.5-2.2-8.2-2.3C794.9,42.6,795.2,46.8,794.5,51.2z"/>
</g>
<g id="Right_Fin_2_">
	<path id="Outer_Fin_1_" class="st13" d="M772.8,76.9c1.5,2.2,3.7,4.2,6.4,5.6c6.5,3.5,13.8,3,18-0.9c1.8,1.2,3.7,2.4,5.7,3.6
		c-5.3,5.4-15,6.3-23.6,1.6c-4.2-2.3-7.5-5.6-9.5-9.3C770.9,77.4,771.8,77.2,772.8,76.9z"/>
	<path id="Inner_Fin" class="st14" d="M783.7,71c3.7,3.5,8.2,7.1,13.5,10.6c-4.2,3.9-11.6,4.5-18,0.9c-2.7-1.5-4.8-3.4-6.4-5.6
		C776.6,75.9,780.4,73.9,783.7,71z"/>
</g>
<path id="Engine" class="st15" d="M780.8,49.9l-5.6,10.2c0.9,2.1,2.5,4.4,4.5,6.8l9.2-16.8C785.8,49.6,783,49.5,780.8,49.9z"/>
<path id="Nose_Cone" class="st16" d="M851.2,95.1c-6,1.7-17,2-25.1,0.6l12.1-22.1C843.7,79.6,848.9,87.3,851.2,95.1z"/>
<path id="Body" class="st17" d="M838.1,73.6c-5-4.2-11.2-8.4-18.2-12.2c-11.4-6.2-22.6-10.2-31-11.4l-9.2,16.8
	c5.5,6.5,14.9,13.8,26.3,20c7,3.8,13.8,6.8,20,8.8L838.1,73.6z"/>
<g id="Center_Fin_2_">
	<path id="Outer_Fin_2_" class="st13" d="M808,72.5c1,0.2,1.7,0.2,1.9-0.1c0.6-1.1-5.4-5.4-13.3-9.8s-14.8-7-15.4-5.9
		c-0.2,0.3,0.2,0.9,1,1.6c2.7,0.6,7.8,2.9,13.5,6C801.4,67.5,806,70.6,808,72.5z"/>
	
		<ellipse id="Inner_Fin_2_" transform="matrix(0.4805 -0.877 0.877 0.4805 355.6725 731.2113)" class="st14" cx="795" cy="65.4" rx="1.2" ry="14.7"/>
</g>
<circle class="st18" cx="819.3" cy="77.7" r="5.4"/>
<path class="st19" d="M825.7,81.1c1.9-3.5,0.6-7.9-2.9-9.9c-3.5-1.9-7.9-0.6-9.9,2.9c-1.9,3.5-0.6,7.9,2.9,9.9
	S823.8,84.7,825.7,81.1z M814.6,75c1.4-2.6,4.8-3.6,7.4-2.2s3.6,4.8,2.2,7.4c-1.4,2.6-4.8,3.6-7.4,2.2C814.1,81,813.1,77.7,814.6,75
	z"/>
<g>
	<path class="st12" d="M32.5,139.8v8.6c0,2.7,0.9,4.1,3.3,4.1c2.5,0,3.3-1.4,3.3-4.1v-8.6h1.7v8.2c0,4.1-1.4,6-5.1,6
		c-3.7,0-5-1.9-5-6v-8.2H32.5z"/>
	<path class="st12" d="M43.3,152l1.1-0.9c0.8,1,1.8,1.6,3.1,1.6c1.4,0,2.2-0.6,2.2-1.7c0-0.8-0.4-1.4-1.8-1.6l-0.8-0.1
		c-1.9-0.3-3.3-1.1-3.3-3c0-2,1.6-3,3.7-3c1.7,0,2.8,0.6,3.6,1.7l-1.1,1c-0.5-0.6-1.3-1.3-2.7-1.3s-2,0.6-2,1.6s0.7,1.4,2,1.6
		l0.8,0.1c2.3,0.3,3.2,1.3,3.2,2.9c0,2-1.5,3.2-3.8,3.2C45.5,154,44.2,153.2,43.3,152z"/>
	<path class="st12" d="M53.3,148.6c0-3.3,1.8-5.4,4.6-5.4s4.5,2.1,4.5,5v0.8H55v0.5c0,1.8,1.1,3.1,3.1,3.1c1.3,0,2.3-0.6,2.8-1.8
		l1.1,0.8c-0.7,1.4-2.1,2.4-4.1,2.4C55.1,154,53.3,151.9,53.3,148.6z M55,147.7v0.1h5.7v-0.2c0-1.8-1.1-3-2.7-3
		C56.2,144.5,55,145.9,55,147.7z"/>
	<path class="st12" d="M72,153.8c-1.1,0-1.7-0.7-1.7-1.7v-7.2h-1.7v-1.4h1c0.7,0,0.9-0.2,0.9-0.9v-1.9h1.4v2.9h2.3v1.4h-2.3v7.5H74
		v1.4h-2V153.8z"/>
	<path class="st12" d="M76.8,139h1.6v6.2h0.1c0.5-1.2,1.4-1.9,2.9-1.9c2.1,0,3.5,1.4,3.5,3.9v6.6h-1.6v-6.3c0-1.8-0.8-2.8-2.3-2.8
		c-1.3,0-2.5,0.6-2.5,2v7.2h-1.6L76.8,139L76.8,139z"/>
	<path class="st12" d="M87.4,148.6c0-3.3,1.8-5.4,4.6-5.4c2.8,0,4.5,2.1,4.5,5v0.8H89v0.5c0,1.8,1.1,3.1,3.1,3.1
		c1.3,0,2.3-0.6,2.8-1.8l1.1,0.8c-0.7,1.4-2.1,2.4-4.1,2.4C89.2,154,87.4,151.9,87.4,148.6z M89,147.7v0.1h5.7v-0.2
		c0-1.8-1.1-3-2.7-3C90.3,144.5,89,145.9,89,147.7z"/>
	<path class="st12" d="M105.5,153.8c-1.1,0-1.7-0.7-1.7-1.7V139h1.6v13.4h1.5v1.4L105.5,153.8L105.5,153.8z"/>
	<path class="st12" d="M109.1,140.1v-0.3c0-0.5,0.3-0.9,1-0.9s1,0.4,1,0.9v0.3c0,0.5-0.3,0.9-1,0.9S109.1,140.7,109.1,140.1z
		 M109.2,143.4h1.6v10.3h-1.6V143.4z"/>
	<path class="st12" d="M114.2,153.8v-10.3h1.6v1.7h0.1c0.5-1.2,1.4-1.9,2.9-1.9c2.1,0,3.5,1.4,3.5,3.9v6.6h-1.6v-6.3
		c0-1.8-0.8-2.8-2.3-2.8c-1.3,0-2.5,0.6-2.5,2v7.2L114.2,153.8L114.2,153.8z"/>
	<path class="st12" d="M125.6,139h1.6v9.4h0.1l1.6-1.8l2.9-3.1h1.9l-3.8,4.1l4.2,6.2h-1.9l-3.4-5.3l-1.5,1.6v3.7h-1.6L125.6,139
		L125.6,139z"/>
	<path class="st12" d="M143.1,153.8c-1.1,0-1.7-0.7-1.7-1.7v-7.2h-1.7v-1.4h1c0.7,0,0.9-0.2,0.9-0.9v-1.9h1.4v2.9h2.3v1.4H143v7.5
		h2.1v1.4h-2V153.8z"/>
	<path class="st12" d="M147,148.6c0-3.3,1.9-5.4,4.7-5.4s4.7,2.1,4.7,5.4s-1.9,5.4-4.7,5.4S147,151.9,147,148.6z M154.7,149.3v-1.5
		c0-2.2-1.2-3.2-2.9-3.2s-2.9,1.1-2.9,3.2v1.5c0,2.2,1.2,3.2,2.9,3.2C153.4,152.6,154.7,151.5,154.7,149.3z"/>
	<path class="st12" d="M162.7,152l1.1-0.9c0.8,1,1.8,1.6,3.1,1.6c1.4,0,2.2-0.6,2.2-1.7c0-0.8-0.4-1.4-1.8-1.6l-0.8-0.1
		c-1.9-0.3-3.3-1.1-3.3-3c0-2,1.6-3,3.7-3c1.7,0,2.8,0.6,3.6,1.7l-1.1,1c-0.5-0.6-1.3-1.3-2.7-1.3s-2,0.6-2,1.6s0.7,1.4,2,1.6
		l0.8,0.1c2.3,0.3,3.2,1.3,3.2,2.9c0,2-1.5,3.2-3.8,3.2C164.9,154,163.7,153.2,162.7,152z"/>
	<path class="st12" d="M173.3,140.1v-0.3c0-0.5,0.3-0.9,1-0.9s1,0.4,1,0.9v0.3c0,0.5-0.3,0.9-1,0.9S173.3,140.7,173.3,140.1z
		 M173.5,143.4h1.6v10.3h-1.6V143.4z"/>
	<path class="st12" d="M182.2,158c-3.2,0-4.5-0.9-4.5-2.5c0-1.1,0.6-1.7,1.6-2v-0.2c-0.6-0.3-0.9-0.7-0.9-1.4c0-1,0.7-1.5,1.8-1.8
		V150c-1.2-0.6-1.9-1.7-1.9-3.2c0-2.1,1.5-3.6,3.9-3.6c0.7,0,1.4,0.1,2,0.4v-0.2c0-0.8,0.3-1.4,1.2-1.4h1.5v1.4h-2v0.7
		c0.7,0.6,1.2,1.6,1.2,2.7c0,2.1-1.5,3.6-3.9,3.6c-0.3,0-0.7,0-1-0.1c-0.7,0.2-1.4,0.5-1.4,1.2c0,0.6,0.6,0.8,1.6,0.8h2.2
		c2.6,0,3.7,1,3.7,2.7C187.2,157,185.5,158,182.2,158z M183.5,153.7h-3.4c-0.7,0.3-1,0.8-1,1.4c0,0.9,0.6,1.6,2.2,1.6h1.5
		c1.8,0,2.8-0.6,2.8-1.7C185.7,154.2,185.1,153.7,183.5,153.7z M184.3,147v-0.6c0-1.4-0.9-2-2.2-2s-2.2,0.6-2.2,2v0.6
		c0,1.4,0.9,2,2.2,2S184.3,148.4,184.3,147z"/>
	<path class="st12" d="M189,153.8v-10.3h1.6v1.7h0.1c0.5-1.2,1.4-1.9,2.9-1.9c2.1,0,3.5,1.4,3.5,3.9v6.6h-1.6v-6.3
		c0-1.8-0.8-2.8-2.3-2.8c-1.3,0-2.5,0.6-2.5,2v7.2L189,153.8L189,153.8z"/>
	<path class="st12" d="M51.6,176.1L51.6,176.1c-0.5,1-1.3,1.9-3,1.9c-2.1,0-3.5-1.4-3.5-3.9v-6.6h1.6v6.3c0,1.8,0.8,2.8,2.4,2.8
		c1.3,0,2.5-0.6,2.5-2v-7.1h1.6v10.3h-1.6V176.1z"/>
	<path class="st12" d="M56.6,167.4h1.6v1.7h0.1c0.5-1.3,1.6-1.9,3-1.9c2.6,0,4.2,2.1,4.2,5.4s-1.6,5.4-4.2,5.4c-1.4,0-2.4-0.6-3-1.9
		h-0.1v5.7h-1.6C56.6,181.8,56.6,167.4,56.6,167.4z M63.8,173.5v-1.8c0-1.8-1.1-3.1-2.9-3.1c-1.5,0-2.7,0.8-2.7,2v3.8
		c0,1.3,1.2,2.1,2.7,2.1C62.7,176.6,63.8,175.3,63.8,173.5z"/>
	<path class="st12" d="M73.5,168.8h-1.7v-1.4h1.7v-2.1c0-1.4,0.7-2.4,2.3-2.4h1.6v1.4h-2.2v3.1h2.2v1.4h-2.2v8.9h-1.6v-8.9H73.5z"/>
	<path class="st12" d="M78.6,172.6c0-3.3,1.9-5.4,4.7-5.4c2.8,0,4.7,2.1,4.7,5.4s-2,5.4-4.7,5.4C80.5,178,78.6,175.9,78.6,172.6z
		 M86.2,173.3v-1.5c0-2.2-1.2-3.2-2.9-3.2c-1.7,0-2.9,1.1-2.9,3.2v1.5c0,2.2,1.2,3.2,2.9,3.2C85,176.6,86.2,175.5,86.2,173.3z"/>
	<path class="st12" d="M90.5,177.8v-10.3h1.6v1.9h0.1c0.4-1,1.3-1.9,3-1.9h0.6v1.6h-0.9c-1.7,0-2.8,0.7-2.8,1.7v7H90.5z"/>
	<path class="st12" d="M110.1,177.8c-1.2,0-1.7-0.7-1.8-1.7h-0.1c-0.4,1.3-1.5,1.9-3,1.9c-2.2,0-3.5-1.2-3.5-3.1c0-1.9,1.4-3,4.4-3
		h2v-1c0-1.5-0.8-2.3-2.4-2.3c-1.2,0-2.1,0.6-2.6,1.5l-1-0.9c0.6-1.1,1.8-2,3.7-2c2.5,0,4,1.3,4,3.5v5.7h1.2v1.4L110.1,177.8
		L110.1,177.8z M108.2,174.8v-1.7h-2.1c-1.8,0-2.6,0.6-2.6,1.6v0.4c0,1,0.8,1.6,2,1.6C107.1,176.6,108.2,175.8,108.2,174.8z"/>
	<path class="st12" d="M117,176l1.1-0.9c0.8,1,1.8,1.6,3.1,1.6c1.4,0,2.2-0.6,2.2-1.7c0-0.8-0.4-1.4-1.8-1.6l-0.8-0.1
		c-1.9-0.3-3.3-1.1-3.3-3c0-2,1.6-3,3.7-3c1.7,0,2.8,0.6,3.6,1.7l-1.1,1c-0.5-0.6-1.3-1.3-2.7-1.3s-2,0.6-2,1.6s0.7,1.4,2,1.6
		l0.8,0.1c2.3,0.3,3.2,1.3,3.2,2.9c0,2-1.5,3.2-3.8,3.2C119.2,178,117.9,177.2,117,176z"/>
	<path class="st12" d="M127,172.6c0-3.3,1.8-5.4,4.6-5.4s4.5,2.1,4.5,5v0.8h-7.4v0.5c0,1.8,1.1,3.1,3.1,3.1c1.3,0,2.3-0.6,2.8-1.8
		l1.1,0.8c-0.7,1.4-2.1,2.4-4.1,2.4C128.8,178,127,175.9,127,172.6z M128.7,171.7v0.1h5.7v-0.2c0-1.8-1.1-3-2.7-3
		C129.9,168.5,128.7,169.9,128.7,171.7z"/>
	<path class="st12" d="M138.7,177.8v-10.3h1.6v1.7h0.1c0.5-1.1,1.2-1.9,2.8-1.9c1.4,0,2.6,0.6,3.2,2.1l0,0c0.4-1.1,1.4-2.1,3.1-2.1
		c2.1,0,3.4,1.4,3.4,3.9v6.6h-1.6v-6.3c0-1.8-0.7-2.8-2.3-2.8c-1.3,0-2.4,0.6-2.4,2v7.2H145v-6.3c0-1.8-0.7-2.8-2.2-2.8
		c-1.3,0-2.5,0.6-2.5,2v7.2h-1.6V177.8z"/>
	<path class="st12" d="M156,164.1v-0.3c0-0.5,0.3-0.9,1-0.9s1,0.4,1,0.9v0.3c0,0.5-0.3,0.9-1,0.9S156,164.7,156,164.1z M156.2,167.4
		h1.6v10.3h-1.6V167.4z"/>
	<path class="st12" d="M161.2,177.8v-10.3h1.6v1.7h0.1c0.5-1.2,1.4-1.9,2.9-1.9c2.1,0,3.5,1.4,3.5,3.9v6.6h-1.6v-6.3
		c0-1.8-0.8-2.8-2.3-2.8c-1.3,0-2.5,0.6-2.5,2v7.2L161.2,177.8L161.2,177.8z"/>
	<path class="st12" d="M180.1,177.8c-1.2,0-1.7-0.7-1.8-1.7h-0.1c-0.4,1.3-1.5,1.9-3,1.9c-2.2,0-3.5-1.2-3.5-3.1c0-1.9,1.4-3,4.4-3
		h2v-1c0-1.5-0.8-2.3-2.4-2.3c-1.2,0-2.1,0.6-2.6,1.5l-1-0.9c0.6-1.1,1.8-2,3.7-2c2.5,0,4,1.3,4,3.5v5.7h1.2v1.4L180.1,177.8
		L180.1,177.8z M178.2,174.8v-1.7H176c-1.8,0-2.6,0.6-2.6,1.6v0.4c0,1,0.8,1.6,2,1.6C177,176.6,178.2,175.8,178.2,174.8z"/>
	<path class="st12" d="M183.2,177.8v-10.3h1.6v1.9h0.1c0.4-1,1.3-1.9,3-1.9h0.6v1.6h-0.9c-1.7,0-2.8,0.7-2.8,1.7v7H183.2z"/>
</g>
<g>
	<path d="M476,153.8l-1-3.1h-4.2l-1,3.1h-1.3l3.7-10.5h1.6l3.7,10.5H476z M472.9,144.5L472.9,144.5l-1.8,5.1h3.6L472.9,144.5z"/>
	<path d="M480.6,153.8c-0.8,0-1.3-0.5-1.3-1.3v-5.4H478v-1h0.7c0.5,0,0.7-0.2,0.7-0.7V144h1.1v2.1h1.7v1h-1.7v5.6h1.6v1L480.6,153.8
		L480.6,153.8z"/>
	<path d="M485.7,153.8c-0.8,0-1.3-0.5-1.3-1.3v-5.4h-1.3v-1h0.7c0.5,0,0.7-0.2,0.7-0.7V144h1.1v2.1h1.7v1h-1.7v5.6h1.6v1
		L485.7,153.8L485.7,153.8z"/>
	<path d="M488.7,150c0-2.5,1.4-4,3.5-4s3.3,1.6,3.3,3.8v0.6h-5.6v0.4c0,1.3,0.9,2.3,2.3,2.3c1,0,1.7-0.5,2.1-1.3l0.9,0.6
		c-0.5,1-1.6,1.8-3.1,1.8C490,154,488.7,152.4,488.7,150z M489.9,149.3v0.1h4.3v-0.2c0-1.4-0.8-2.3-2.1-2.3
		C490.8,146.9,489.9,147.9,489.9,149.3z"/>
	<path d="M497.5,153.8v-7.7h1.2v1.3h0.1c0.4-0.9,1-1.4,2.2-1.4c1.6,0,2.6,1.1,2.6,3v5h-1.2v-4.8c0-1.4-0.6-2.1-1.8-2.1
		c-1,0-1.9,0.5-1.9,1.5v5.4h-1.2V153.8z"/>
	<path d="M510.9,152.6L510.9,152.6c-0.5,1-1.3,1.4-2.3,1.4c-1.9,0-3.1-1.6-3.1-4c0-2.5,1.2-4,3.1-4c1.1,0,1.9,0.5,2.3,1.4h0.1v-4.6
		h1.2v11.1H511v-1.3H510.9z M510.9,151.4v-2.9c0-0.9-0.9-1.5-2-1.5c-1.4,0-2.2,0.9-2.2,2.3v1.3c0,1.4,0.8,2.3,2.2,2.3
		C510,152.9,510.9,152.4,510.9,151.4z"/>
	<path d="M519.9,153.8c-0.8,0-1.3-0.5-1.3-1.3v-5.4h-1.3v-1h0.7c0.5,0,0.7-0.2,0.7-0.7V144h1.1v2.1h1.7v1h-1.7v5.6h1.6v1
		L519.9,153.8L519.9,153.8z"/>
	<path d="M523.5,142.7h1.2v4.6h0.1c0.4-0.9,1-1.4,2.2-1.4c1.6,0,2.6,1.1,2.6,3v5h-1.2v-4.8c0-1.4-0.6-2.1-1.8-2.1
		c-1,0-1.9,0.5-1.9,1.5v5.4h-1.2L523.5,142.7L523.5,142.7z"/>
	<path d="M531.4,150c0-2.5,1.4-4,3.5-4s3.3,1.6,3.3,3.8v0.6h-5.6v0.4c0,1.3,0.9,2.3,2.3,2.3c1,0,1.7-0.5,2.1-1.3l0.9,0.6
		c-0.5,1-1.6,1.8-3.1,1.8C532.8,154,531.4,152.4,531.4,150z M532.7,149.3v0.1h4.3v-0.2c0-1.4-0.8-2.3-2.1-2.3
		C533.6,146.9,532.7,147.9,532.7,149.3z"/>
	<path d="M543.1,152.5l0.9-0.7c0.6,0.8,1.3,1.2,2.3,1.2s1.6-0.5,1.6-1.3c0-0.6-0.3-1.1-1.3-1.2l-0.6-0.1c-1.4-0.2-2.5-0.8-2.5-2.2
		c0-1.5,1.2-2.3,2.8-2.3c1.2,0,2.1,0.5,2.7,1.2l-0.8,0.7c-0.3-0.5-1-0.9-2-0.9s-1.5,0.5-1.5,1.2c0,0.8,0.5,1.1,1.5,1.2l0.6,0.1
		c1.7,0.3,2.4,1,2.4,2.2c0,1.5-1.1,2.4-2.9,2.4C544.7,154,543.7,153.4,543.1,152.5z"/>
	<path d="M550.5,150c0-2.5,1.4-4,3.5-4s3.3,1.6,3.3,3.8v0.6h-5.6v0.4c0,1.3,0.9,2.3,2.3,2.3c1,0,1.7-0.5,2.1-1.3l0.9,0.6
		c-0.5,1-1.6,1.8-3.1,1.8C551.9,154,550.5,152.4,550.5,150z M551.8,149.3v0.1h4.3v-0.2c0-1.4-0.8-2.3-2.1-2.3
		C552.7,146.9,551.8,147.9,551.8,149.3z"/>
	<path d="M559.3,153.8v-7.7h1.2v1.3h0.1c0.3-0.8,0.9-1.4,2.1-1.4c1,0,2,0.5,2.4,1.6l0,0c0.3-0.8,1-1.6,2.4-1.6c1.6,0,2.5,1.1,2.5,3
		v5h-1.2v-4.8c0-1.4-0.5-2.1-1.7-2.1c-0.9,0-1.8,0.5-1.8,1.5v5.4H564v-4.8c0-1.4-0.5-2.1-1.7-2.1c-0.9,0-1.8,0.5-1.8,1.5v5.4h-1.2
		V153.8z"/>
	<path d="M572.3,143.6v-0.2c0-0.4,0.2-0.7,0.7-0.7s0.7,0.3,0.7,0.7v0.2c0,0.4-0.2,0.7-0.7,0.7S572.3,144,572.3,143.6z M572.4,146.1
		h1.2v7.7h-1.2V146.1z"/>
	<path d="M576.2,153.8v-7.7h1.2v1.3h0.1c0.4-0.9,1-1.4,2.2-1.4c1.6,0,2.6,1.1,2.6,3v5H581v-4.8c0-1.4-0.6-2.1-1.8-2.1
		c-1,0-1.9,0.5-1.9,1.5v5.4h-1.1V153.8z"/>
	<path d="M590.3,153.8c-0.9,0-1.2-0.5-1.3-1.3h-0.1c-0.3,0.9-1.2,1.4-2.2,1.4c-1.6,0-2.6-0.9-2.6-2.3c0-1.5,1-2.3,3.3-2.3h1.5v-0.8
		c0-1.1-0.6-1.7-1.8-1.7c-0.9,0-1.5,0.5-2,1.2l-0.7-0.7c0.4-0.8,1.3-1.5,2.7-1.5c1.9,0,3,1,3,2.6v4.3h0.9v1h-0.7V153.8z
		 M588.9,151.6v-1.3h-1.6c-1.4,0-2,0.4-2,1.2v0.3c0,0.8,0.6,1.2,1.5,1.2C588.1,153,588.9,152.4,588.9,151.6z"/>
	<path d="M592.7,153.8v-7.7h1.2v1.4h0.1c0.3-0.7,1-1.4,2.2-1.4h0.5v1.2H596c-1.3,0-2.1,0.6-2.1,1.3v5.3h-1.2V153.8z"/>
	<path d="M464.7,171.8v-10.5h1.3v9.4h4.5v1.1H464.7z"/>
	<path d="M471.4,168c0-2.5,1.4-4,3.5-4s3.3,1.6,3.3,3.8v0.6h-5.6v0.4c0,1.3,0.9,2.3,2.3,2.3c1,0,1.7-0.5,2.1-1.3l0.9,0.6
		c-0.5,1-1.6,1.8-3.1,1.8C472.8,172,471.4,170.4,471.4,168z M472.6,167.3v0.1h4.3v-0.2c0-1.4-0.8-2.3-2.1-2.3
		C473.5,164.9,472.6,165.9,472.6,167.3z"/>
	<path d="M485.8,171.8c-0.9,0-1.2-0.5-1.3-1.3h-0.1c-0.3,0.9-1.2,1.4-2.2,1.4c-1.6,0-2.6-0.9-2.6-2.3c0-1.5,1-2.3,3.3-2.3h1.5v-0.8
		c0-1.1-0.6-1.7-1.8-1.7c-0.9,0-1.5,0.5-2,1.2l-0.7-0.7c0.4-0.8,1.3-1.5,2.7-1.5c1.9,0,3,1,3,2.6v4.3h0.9v1h-0.7V171.8z
		 M484.4,169.6v-1.3h-1.6c-1.4,0-2,0.4-2,1.2v0.3c0,0.8,0.6,1.2,1.5,1.2C483.5,171,484.4,170.4,484.4,169.6z"/>
	<path d="M488.2,171.8v-7.7h1.2v1.4h0.1c0.3-0.7,1-1.4,2.2-1.4h0.5v1.2h-0.7c-1.3,0-2.1,0.6-2.1,1.3v5.3h-1.2V171.8z"/>
	<path d="M493.7,171.8v-7.7h1.2v1.3h0.1c0.4-0.9,1-1.4,2.2-1.4c1.6,0,2.6,1.1,2.6,3v5h-1.2v-4.8c0-1.4-0.6-2.1-1.8-2.1
		c-1,0-1.9,0.5-1.9,1.5v5.4h-1.2V171.8z"/>
	<path d="M511.4,171.8c-0.9,0-1.2-0.5-1.3-1.3H510c-0.3,0.9-1.2,1.4-2.2,1.4c-1.6,0-2.6-0.9-2.6-2.3c0-1.5,1-2.3,3.3-2.3h1.5v-0.8
		c0-1.1-0.6-1.7-1.8-1.7c-0.9,0-1.5,0.5-2,1.2l-0.7-0.7c0.4-0.8,1.3-1.5,2.7-1.5c1.9,0,3,1,3,2.6v4.3h0.9v1h-0.7V171.8z M510,169.6
		v-1.3h-1.6c-1.4,0-2,0.4-2,1.2v0.3c0,0.8,0.6,1.2,1.5,1.2C509.1,171,510,170.4,510,169.6z"/>
	<path d="M513.8,160.7h1.2v4.6h0.1c0.4-1,1.2-1.4,2.3-1.4c1.9,0,3.1,1.6,3.1,4c0,2.5-1.2,4-3.1,4c-1.1,0-1.8-0.5-2.3-1.4H515v1.3
		h-1.2V160.7z M519.1,168.6v-1.3c0-1.4-0.8-2.3-2.2-2.3c-1.1,0-2,0.6-2,1.5v2.9c0,1,0.9,1.6,2,1.6
		C518.3,170.9,519.1,170,519.1,168.6z"/>
	<path d="M521.9,168c0-2.5,1.4-4,3.5-4s3.5,1.6,3.5,4s-1.4,4-3.5,4S521.9,170.4,521.9,168z M527.6,168.5v-1.1c0-1.6-0.9-2.4-2.2-2.4
		s-2.2,0.8-2.2,2.4v1.1c0,1.6,0.9,2.4,2.2,2.4C526.7,171,527.6,170.2,527.6,168.5z"/>
	<path d="M535.6,170.6L535.6,170.6c-0.4,0.7-0.9,1.4-2.2,1.4c-1.6,0-2.6-1.1-2.6-3v-5h1.2v4.8c0,1.4,0.6,2.1,1.8,2.1
		c0.9,0,1.9-0.5,1.9-1.5V164h1.2v7.7h-1.2v-1.1H535.6z"/>
	<path d="M541.1,171.8c-0.8,0-1.3-0.5-1.3-1.3v-5.4h-1.3v-1h0.7c0.5,0,0.7-0.2,0.7-0.7V162h1.1v2.1h1.7v1H541v5.6h1.6v1L541.1,171.8
		L541.1,171.8z"/>
	<path d="M548.2,171.8v-7.7h1.2v1.4h0.1c0.3-0.7,1-1.4,2.2-1.4h0.5v1.2h-0.7c-1.3,0-2.1,0.6-2.1,1.3v5.3h-1.2V171.8z"/>
	<path d="M553,168c0-2.5,1.4-4,3.5-4s3.5,1.6,3.5,4s-1.4,4-3.5,4C554.5,172,553,170.4,553,168z M558.7,168.5v-1.1
		c0-1.6-0.9-2.4-2.2-2.4s-2.2,0.8-2.2,2.4v1.1c0,1.6,0.9,2.4,2.2,2.4S558.7,170.2,558.7,168.5z"/>
	<path d="M562,160.7h1.2v4.6h0.1c0.4-1,1.2-1.4,2.3-1.4c1.9,0,3.1,1.6,3.1,4c0,2.5-1.2,4-3.1,4c-1.1,0-1.8-0.5-2.3-1.4h-0.1v1.3H562
		V160.7z M567.4,168.6v-1.3c0-1.4-0.8-2.3-2.2-2.3c-1.1,0-2,0.6-2,1.5v2.9c0,1,0.9,1.6,2,1.6C566.6,170.9,567.4,170,567.4,168.6z"/>
	<path d="M570.1,168c0-2.5,1.4-4,3.5-4s3.5,1.6,3.5,4s-1.4,4-3.5,4C571.6,172,570.1,170.4,570.1,168z M575.8,168.5v-1.1
		c0-1.6-0.9-2.4-2.2-2.4s-2.2,0.8-2.2,2.4v1.1c0,1.6,0.9,2.4,2.2,2.4S575.8,170.2,575.8,168.5z"/>
	<path d="M580.8,171.8c-0.8,0-1.3-0.5-1.3-1.3v-5.4h-1.3v-1h0.7c0.5,0,0.7-0.2,0.7-0.7V162h1.1v2.1h1.7v1h-1.7v5.6h1.6v1
		L580.8,171.8L580.8,171.8z"/>
	<path d="M584.2,161.6v-0.2c0-0.4,0.2-0.7,0.7-0.7s0.7,0.3,0.7,0.7v0.2c0,0.4-0.2,0.7-0.7,0.7S584.2,162,584.2,161.6z M584.4,164.1
		h1.2v7.7h-1.2V164.1z"/>
	<path d="M587.6,168c0-2.5,1.3-4,3.5-4c1.5,0,2.4,0.8,2.9,1.8l-1,0.5c-0.3-0.8-0.9-1.3-1.9-1.3c-1.4,0-2.2,1-2.2,2.3v1.3
		c0,1.3,0.7,2.3,2.2,2.3c1,0,1.7-0.5,2.1-1.4l0.9,0.6c-0.5,1.1-1.5,1.8-3,1.8C588.8,172,587.6,170.5,587.6,168z"/>
	<path d="M594.9,170.5l0.9-0.7c0.6,0.8,1.3,1.2,2.3,1.2s1.6-0.5,1.6-1.3c0-0.6-0.3-1.1-1.3-1.2l-0.6-0.1c-1.4-0.2-2.5-0.8-2.5-2.2
		c0-1.5,1.2-2.3,2.8-2.3c1.2,0,2.1,0.5,2.7,1.2l-0.8,0.7c-0.3-0.5-1-0.9-2-0.9s-1.5,0.5-1.5,1.2c0,0.8,0.5,1.1,1.5,1.2l0.6,0.1
		c1.7,0.3,2.4,1,2.4,2.2c0,1.5-1.1,2.4-2.9,2.4C596.6,172,595.6,171.4,594.9,170.5z"/>
	<path d="M468.4,185.1h-5.3v4.7h-1.3v-10.5h1.3v4.6h5.3v-4.6h1.3v10.5h-1.3V185.1z"/>
	<path d="M471.8,186c0-2.5,1.4-4,3.5-4s3.3,1.6,3.3,3.8v0.6H473v0.4c0,1.3,0.9,2.3,2.3,2.3c1,0,1.7-0.5,2.1-1.3l0.9,0.6
		c-0.5,1-1.6,1.8-3.1,1.8C473.1,190,471.8,188.4,471.8,186z M473,185.3v0.1h4.3v-0.2c0-1.4-0.8-2.3-2.1-2.3
		C473.9,182.9,473,183.9,473,185.3z"/>
	<path d="M481.8,189.8c-0.8,0-1.3-0.5-1.3-1.2v-9.9h1.2v10h1.1v1L481.8,189.8L481.8,189.8z"/>
	<path d="M484.6,182.1h1.2v1.3h0.1c0.4-1,1.2-1.4,2.3-1.4c1.9,0,3.1,1.6,3.1,4c0,2.5-1.2,4-3.1,4c-1.1,0-1.8-0.5-2.3-1.4h-0.1v4.3
		h-1.2V182.1z M490,186.6v-1.3c0-1.4-0.8-2.3-2.2-2.3c-1.1,0-2,0.6-2,1.5v2.9c0,1,0.9,1.6,2,1.6C489.2,188.9,490,188,490,186.6z"/>
	<path d="M501.6,182.1h1.2l-3.5,9.5c-0.3,0.9-0.7,1.2-1.8,1.2H497v-1h1.2l0.6-1.7l-2.9-8h1.2l1.9,5.3l0.4,1.3h0.1l0.4-1.3
		L501.6,182.1z"/>
	<path d="M503.7,186c0-2.5,1.4-4,3.5-4s3.5,1.6,3.5,4s-1.4,4-3.5,4S503.7,188.4,503.7,186z M509.4,186.5v-1.1c0-1.6-0.9-2.4-2.2-2.4
		s-2.2,0.8-2.2,2.4v1.1c0,1.6,0.9,2.4,2.2,2.4S509.4,188.2,509.4,186.5z"/>
	<path d="M517.5,188.6L517.5,188.6c-0.4,0.7-0.9,1.4-2.2,1.4c-1.6,0-2.6-1.1-2.6-3v-5h1.2v4.8c0,1.4,0.6,2.1,1.8,2.1
		c0.9,0,1.9-0.5,1.9-1.5V182h1.2v7.7h-1.2v-1.1H517.5z"/>
	<path d="M521.2,189.8v-7.7h1.2v1.4h0.1c0.3-0.7,1-1.4,2.2-1.4h0.5v1.2h-0.7c-1.3,0-2.1,0.6-2.1,1.3v5.3h-1.2V189.8z"/>
	<path d="M529.7,186c0-2.5,1.3-4,3.4-4c1.5,0,2.4,0.8,2.9,1.8l-1,0.5c-0.3-0.8-0.9-1.3-1.9-1.3c-1.4,0-2.2,1-2.2,2.3v1.3
		c0,1.3,0.7,2.3,2.2,2.3c1,0,1.7-0.5,2.1-1.4l0.9,0.6c-0.5,1.1-1.5,1.8-3,1.8C531,190,529.7,188.5,529.7,186z"/>
	<path d="M537.1,186c0-2.5,1.4-4,3.5-4s3.5,1.6,3.5,4s-1.4,4-3.5,4C538.6,190,537.1,188.4,537.1,186z M542.8,186.5v-1.1
		c0-1.6-0.9-2.4-2.2-2.4s-2.2,0.8-2.2,2.4v1.1c0,1.6,0.9,2.4,2.2,2.4S542.8,188.2,542.8,186.5z"/>
	<path d="M546.1,189.8v-7.7h1.2v1.3h0.1c0.3-0.8,0.9-1.4,2.1-1.4c1,0,2,0.5,2.4,1.6l0,0c0.3-0.8,1-1.6,2.4-1.6c1.6,0,2.5,1.1,2.5,3
		v5h-1.2v-4.8c0-1.4-0.5-2.1-1.7-2.1c-0.9,0-1.8,0.5-1.8,1.5v5.4h-1.2v-4.8c0-1.4-0.5-2.1-1.7-2.1c-0.9,0-1.8,0.5-1.8,1.5v5.4h-1.3
		V189.8z"/>
	<path d="M559.2,189.8v-7.7h1.2v1.3h0.1c0.3-0.8,0.9-1.4,2.1-1.4c1,0,2,0.5,2.4,1.6l0,0c0.3-0.8,1-1.6,2.4-1.6c1.6,0,2.5,1.1,2.5,3
		v5h-1.2v-4.8c0-1.4-0.5-2.1-1.7-2.1c-0.9,0-1.8,0.5-1.8,1.5v5.4H564v-4.8c0-1.4-0.5-2.1-1.7-2.1c-0.9,0-1.8,0.5-1.8,1.5v5.4h-1.3
		V189.8z"/>
	<path d="M577.1,188.6L577.1,188.6c-0.4,0.7-0.9,1.4-2.2,1.4c-1.6,0-2.6-1.1-2.6-3v-5h1.2v4.8c0,1.4,0.6,2.1,1.8,2.1
		c0.9,0,1.9-0.5,1.9-1.5V182h1.2v7.7h-1.2v-1.1H577.1z"/>
	<path d="M580.8,189.8v-7.7h1.2v1.3h0.1c0.4-0.9,1-1.4,2.2-1.4c1.6,0,2.6,1.1,2.6,3v5h-1.2v-4.8c0-1.4-0.6-2.1-1.8-2.1
		c-1,0-1.9,0.5-1.9,1.5v5.4h-1.2V189.8z"/>
	<path d="M589.2,179.6v-0.2c0-0.4,0.2-0.7,0.7-0.7s0.7,0.3,0.7,0.7v0.2c0,0.4-0.2,0.7-0.7,0.7S589.2,180,589.2,179.6z M589.3,182.1
		h1.2v7.7h-1.2V182.1z"/>
	<path d="M594.8,189.8c-0.8,0-1.3-0.5-1.3-1.3v-5.4h-1.3v-1h0.7c0.5,0,0.7-0.2,0.7-0.7V180h1.1v2.1h1.7v1h-1.7v5.6h1.6v1
		L594.8,189.8L594.8,189.8z"/>
	<path d="M603.1,182.1h1.2l-3.5,9.5c-0.3,0.9-0.7,1.2-1.8,1.2h-0.6v-1h1.2l0.6-1.7l-2.9-8h1.2l1.9,5.3l0.4,1.3h0.1l0.4-1.3
		L603.1,182.1z"/>
</g>
<g>
	<path class="st12" d="M860.9,141.3v7.8c0,2.4,0.8,3.7,3,3.7s3-1.3,3-3.7v-7.8h1.5v7.4c0,3.7-1.2,5.4-4.6,5.4
		c-3.3,0-4.5-1.7-4.5-5.4v-7.4H860.9z"/>
	<path class="st12" d="M870.6,152.2l1-0.8c0.7,0.9,1.6,1.4,2.8,1.4s1.9-0.6,1.9-1.5c0-0.7-0.4-1.3-1.6-1.5l-0.7-0.1
		c-1.7-0.3-3-1-3-2.7c0-1.8,1.4-2.7,3.3-2.7c1.5,0,2.5,0.6,3.2,1.5l-1,0.9c-0.4-0.6-1.2-1.1-2.4-1.1s-1.8,0.6-1.8,1.4
		c0,0.9,0.6,1.3,1.8,1.4l0.7,0.1c2.1,0.3,2.8,1.2,2.8,2.6c0,1.8-1.3,2.9-3.4,2.9C872.6,154.1,871.5,153.3,870.6,152.2z"/>
	<path class="st12" d="M879.6,149.2c0-3,1.7-4.9,4.2-4.9s4,1.9,4,4.5v0.7h-6.7v0.4c0,1.6,1,2.8,2.8,2.8c1.2,0,2.1-0.6,2.6-1.6l1,0.7
		c-0.6,1.3-1.9,2.1-3.7,2.1C881.2,154.1,879.6,152.2,879.6,149.2z M881.1,148.4v0.1h5.1v-0.2c0-1.6-1-2.7-2.5-2.7
		C882.2,145.5,881.1,146.7,881.1,148.4z"/>
	<path class="st12" d="M896.5,153.8c-1,0-1.5-0.6-1.5-1.5v-6.5h-1.5v-1.3h0.9c0.6,0,0.8-0.2,0.8-0.8V142h1.3v2.6h2v1.3h-2v6.8h1.9
		v1.3h-1.9V153.8z"/>
	<path class="st12" d="M900.7,140.5h1.4v5.5h0.1c0.5-1,1.2-1.7,2.6-1.7c1.9,0,3.1,1.3,3.1,3.5v6h-1.4v-5.7c0-1.7-0.7-2.5-2.1-2.5
		c-1.2,0-2.3,0.6-2.3,1.8v6.4h-1.4L900.7,140.5L900.7,140.5z"/>
	<path class="st12" d="M910.3,149.2c0-3,1.7-4.9,4.2-4.9s4,1.9,4,4.5v0.7h-6.7v0.4c0,1.6,1,2.8,2.8,2.8c1.2,0,2.1-0.6,2.6-1.6l1,0.7
		c-0.6,1.3-1.9,2.1-3.7,2.1C911.9,154.1,910.3,152.2,910.3,149.2z M911.8,148.4v0.1h5.1v-0.2c0-1.6-1-2.7-2.5-2.7
		C912.9,145.5,911.8,146.7,911.8,148.4z"/>
	<path class="st12" d="M924.2,152.2l1-0.8c0.7,0.9,1.6,1.4,2.8,1.4s1.9-0.6,1.9-1.5c0-0.7-0.4-1.3-1.6-1.5l-0.7-0.1
		c-1.7-0.3-3-1-3-2.7c0-1.8,1.4-2.7,3.3-2.7c1.5,0,2.5,0.6,3.2,1.5l-1,0.9c-0.4-0.6-1.2-1.1-2.4-1.1s-1.8,0.6-1.8,1.4
		c0,0.9,0.6,1.3,1.8,1.4l0.7,0.1c2.1,0.3,2.8,1.2,2.8,2.6c0,1.8-1.3,2.9-3.4,2.9C926.2,154.1,925,153.3,924.2,152.2z"/>
	<path class="st12" d="M933.8,140.5h1.4v8.4h0.1l1.4-1.6l2.6-2.8h1.7l-3.4,3.7l3.8,5.6h-1.7l-3.1-4.7l-1.4,1.4v3.3h-1.4L933.8,140.5
		L933.8,140.5z"/>
	<path class="st12" d="M943.2,141.6v-0.2c0-0.5,0.3-0.8,0.9-0.8c0.6,0,0.9,0.3,0.9,0.8v0.2c0,0.5-0.3,0.8-0.9,0.8
		C943.4,142.4,943.2,142.1,943.2,141.6z M943.3,144.6h1.4v9.3h-1.4V144.6z"/>
	<path class="st12" d="M949.4,153.8c-1,0-1.5-0.6-1.5-1.5v-11.8h1.4v12.1h1.4v1.3h-1.3V153.8z"/>
	<path class="st12" d="M954.2,153.8c-1,0-1.5-0.6-1.5-1.5v-11.8h1.4v12.1h1.4v1.3h-1.3V153.8z"/>
	<path class="st12" d="M956.7,152.2l1-0.8c0.7,0.9,1.6,1.4,2.8,1.4s1.9-0.6,1.9-1.5c0-0.7-0.4-1.3-1.6-1.5l-0.7-0.1
		c-1.7-0.3-3-1-3-2.7c0-1.8,1.4-2.7,3.3-2.7c1.5,0,2.5,0.6,3.2,1.5l-1,0.9c-0.4-0.6-1.2-1.1-2.4-1.1s-1.8,0.6-1.8,1.4
		c0,0.9,0.6,1.3,1.8,1.4l0.7,0.1c2.1,0.3,2.8,1.2,2.8,2.6c0,1.8-1.3,2.9-3.4,2.9C958.6,154.1,957.5,153.3,956.7,152.2z"/>
	<path class="st12" d="M976.3,144.6h1.4l-4.2,11.5c-0.4,1.1-0.8,1.4-2.2,1.4h-0.7v-1.3h1.5l0.7-2l-3.5-9.7h1.4l2.2,6.3l0.4,1.5h0.1
		l0.5-1.5L976.3,144.6z"/>
	<path class="st12" d="M978.8,149.2c0-3,1.7-4.9,4.2-4.9s4.2,1.9,4.2,4.9s-1.7,4.9-4.2,4.9C980.5,154.1,978.8,152.2,978.8,149.2z
		 M985.6,149.9v-1.3c0-2-1.1-2.9-2.6-2.9s-2.6,1-2.6,2.9v1.3c0,2,1.1,2.9,2.6,2.9C984.5,152.8,985.6,151.8,985.6,149.9z"/>
	<path class="st12" d="M995.2,152.3L995.2,152.3c-0.4,0.9-1.1,1.7-2.7,1.7c-1.9,0-3.1-1.3-3.1-3.5v-6h1.4v5.7c0,1.7,0.7,2.5,2.1,2.5
		c1.1,0,2.3-0.6,2.3-1.8v-6.4h1.4v9.3h-1.4V152.3z"/>
	<path class="st12" d="M1002,141.4v0.3c0,1-0.6,2.3-1.6,3.2h-1.2c0.7-0.8,1.2-1.4,1.4-2.2c-0.5-0.1-0.7-0.5-0.7-1v-0.3
		c0-0.6,0.3-1.1,1.1-1.1C1001.7,140.3,1002,140.8,1002,141.4z"/>
	<path class="st12" d="M1006.6,153.8l-3.3-9.3h1.4l1.6,4.6l1,3.2h0.1l1-3.2l1.7-4.6h1.4l-3.3,9.3H1006.6z"/>
	<path class="st12" d="M1012.6,149.2c0-3,1.7-4.9,4.2-4.9s4,1.9,4,4.5v0.7h-6.7v0.4c0,1.6,1,2.8,2.8,2.8c1.2,0,2.1-0.6,2.6-1.6
		l1,0.7c-0.6,1.3-1.9,2.1-3.7,2.1C1014.3,154.1,1012.6,152.2,1012.6,149.2z M1014.1,148.4v0.1h5.1v-0.2c0-1.6-1-2.7-2.5-2.7
		C1015.2,145.5,1014.1,146.7,1014.1,148.4z"/>
	<path class="st12" d="M859.7,175.4c-1,0-1.5-0.6-1.5-1.5v-11.8h1.4v12.1h1.4v1.3h-1.3V175.4z"/>
	<path class="st12" d="M862.4,170.8c0-3,1.7-4.9,4.2-4.9s4,1.9,4,4.5v0.7h-6.7v0.4c0,1.6,1,2.8,2.8,2.8c1.2,0,2.1-0.6,2.6-1.6l1,0.7
		c-0.6,1.3-1.9,2.1-3.7,2.1C864.1,175.7,862.4,173.8,862.4,170.8z M863.9,170v0.1h5.1v-0.2c0-1.6-1-2.7-2.5-2.7
		C865,167.1,863.9,168.3,863.9,170z"/>
	<path class="st12" d="M879.7,175.4c-1.1,0-1.5-0.6-1.6-1.5H878c-0.4,1.1-1.4,1.7-2.7,1.7c-2,0-3.1-1.1-3.1-2.8s1.3-2.7,4-2.7h1.8
		v-0.9c0-1.3-0.7-2-2.2-2c-1.1,0-1.9,0.5-2.4,1.4l-0.9-0.8c0.5-1,1.6-1.8,3.3-1.8c2.2,0,3.6,1.2,3.6,3.1v5.1h1.1v1.3h-0.8V175.4z
		 M878,172.7v-1.5h-1.9c-1.6,0-2.4,0.5-2.4,1.4v0.4c0,0.9,0.7,1.4,1.8,1.4C877,174.4,878,173.7,878,172.7z"/>
	<path class="st12" d="M882.6,175.4v-9.3h1.4v1.7h0.1c0.3-0.9,1.2-1.7,2.7-1.7h0.6v1.4h-0.8c-1.5,0-2.5,0.7-2.5,1.5v6.3h-1.5V175.4z
		"/>
	<path class="st12" d="M889.2,175.4v-9.3h1.4v1.5h0.1c0.5-1,1.2-1.7,2.6-1.7c1.9,0,3.1,1.3,3.1,3.5v6H895v-5.7
		c0-1.7-0.7-2.5-2.1-2.5c-1.2,0-2.3,0.6-2.3,1.8v6.4H889.2z"/>
	<path class="st12" d="M898.7,170.8c0-3,1.7-4.9,4.2-4.9s4,1.9,4,4.5v0.7h-6.7v0.4c0,1.6,1,2.8,2.8,2.8c1.2,0,2.1-0.6,2.6-1.6l1,0.7
		c-0.6,1.3-1.9,2.1-3.7,2.1C900.4,175.7,898.7,173.8,898.7,170.8z M900.2,170v0.1h5.1v-0.2c0-1.6-1-2.7-2.5-2.7
		C901.3,167.1,900.2,168.3,900.2,170z"/>
	<path class="st12" d="M915.2,173.9L915.2,173.9c-0.6,1.2-1.5,1.7-2.8,1.7c-2.3,0-3.8-1.9-3.8-4.9s1.5-4.9,3.8-4.9
		c1.3,0,2.2,0.6,2.7,1.7h0.1V162h1.4v13.3h-1.4V173.9z M915.2,172.5V169c0-1-1.1-1.8-2.4-1.8c-1.6,0-2.6,1.1-2.6,2.8v1.6
		c0,1.7,1,2.8,2.6,2.8C914.1,174.4,915.2,173.7,915.2,172.5z"/>
	<path class="st12" d="M926,175.4c-1,0-1.5-0.6-1.5-1.5v-6.5H923v-1.3h0.9c0.6,0,0.8-0.2,0.8-0.8v-1.7h1.3v2.6h2v1.3h-2v6.8h1.9v1.3
		H926V175.4z"/>
	<path class="st12" d="M929.5,170.8c0-3,1.7-4.9,4.2-4.9s4.2,1.9,4.2,4.9s-1.7,4.9-4.2,4.9S929.5,173.8,929.5,170.8z M936.4,171.5
		v-1.3c0-2-1.1-2.9-2.6-2.9s-2.6,1-2.6,2.9v1.3c0,2,1.1,2.9,2.6,2.9C935.3,174.4,936.4,173.4,936.4,171.5z"/>
	<path class="st12" d="M944.5,162.1h1.4v5.5h0.1c0.5-1,1.2-1.7,2.6-1.7c1.9,0,3.1,1.3,3.1,3.5v6h-1.4v-5.7c0-1.7-0.7-2.5-2.1-2.5
		c-1.2,0-2.3,0.6-2.3,1.8v6.4h-1.4L944.5,162.1L944.5,162.1z"/>
	<path class="st12" d="M954.1,170.8c0-3,1.7-4.9,4.2-4.9s4,1.9,4,4.5v0.7h-6.7v0.4c0,1.6,1,2.8,2.8,2.8c1.2,0,2.1-0.6,2.6-1.6l1,0.7
		c-0.6,1.3-1.9,2.1-3.7,2.1C955.7,175.7,954.1,173.8,954.1,170.8z M955.6,170v0.1h5.1v-0.2c0-1.6-1-2.7-2.5-2.7
		C956.7,167.1,955.6,168.3,955.6,170z"/>
	<path class="st12" d="M966.2,175.4c-1,0-1.5-0.6-1.5-1.5v-11.8h1.4v12.1h1.4v1.3h-1.3V175.4z"/>
	<path class="st12" d="M969.5,166.2h1.4v1.5h0.1c0.5-1.2,1.4-1.7,2.7-1.7c2.3,0,3.8,1.9,3.8,4.9s-1.5,4.9-3.8,4.9
		c-1.3,0-2.2-0.6-2.7-1.7l0,0v5.1h-1.4L969.5,166.2L969.5,166.2z M976,171.6V170c0-1.7-1-2.8-2.6-2.8c-1.3,0-2.4,0.8-2.4,1.8v3.5
		c0,1.2,1.1,1.9,2.4,1.9C975,174.4,976,173.3,976,171.6z"/>
	<path class="st12" d="M990,166.2h1.4l-4.2,11.5c-0.4,1.1-0.8,1.4-2.2,1.4h-0.7v-1.3h1.5l0.7-2l-3.5-9.7h1.4l2.2,6.3l0.4,1.5h0.1
		l0.5-1.5L990,166.2z"/>
	<path class="st12" d="M992.4,170.8c0-3,1.7-4.9,4.2-4.9s4.2,1.9,4.2,4.9s-1.7,4.9-4.2,4.9C994.2,175.7,992.4,173.8,992.4,170.8z
		 M999.3,171.5v-1.3c0-2-1.1-2.9-2.6-2.9s-2.6,1-2.6,2.9v1.3c0,2,1.1,2.9,2.6,2.9S999.3,173.4,999.3,171.5z"/>
	<path class="st12" d="M1008.9,173.9L1008.9,173.9c-0.4,0.9-1.1,1.7-2.7,1.7c-1.9,0-3.1-1.3-3.1-3.5v-6h1.4v5.7
		c0,1.7,0.7,2.5,2.1,2.5c1.1,0,2.3-0.6,2.3-1.8v-6.4h1.4v9.3h-1.4V173.9z"/>
	<path class="st12" d="M1013.4,175.4v-9.3h1.4v1.7h0.1c0.3-0.9,1.2-1.7,2.7-1.7h0.6v1.4h-0.8c-1.5,0-2.5,0.7-2.5,1.5v6.3h-1.5V175.4
		z"/>
	<path class="st12" d="M895.2,192.4c0-3,1.5-4.9,4.1-4.9c1.8,0,2.9,0.9,3.5,2.2l-1.2,0.6c-0.3-1-1.1-1.5-2.3-1.5
		c-1.7,0-2.6,1.2-2.6,2.8v1.6c0,1.6,0.9,2.8,2.6,2.8c1.2,0,2-0.6,2.5-1.6l1,0.7c-0.6,1.3-1.8,2.2-3.6,2.2
		C896.7,197.3,895.2,195.4,895.2,192.4z"/>
	<path class="st12" d="M904.1,192.4c0-3,1.7-4.9,4.2-4.9s4.2,1.9,4.2,4.9s-1.7,4.9-4.2,4.9C905.9,197.3,904.1,195.4,904.1,192.4z
		 M911,193.1v-1.3c0-2-1.1-2.9-2.6-2.9s-2.6,1-2.6,2.9v1.3c0,2,1.1,2.9,2.6,2.9S911,195,911,193.1z"/>
	<path class="st12" d="M914.9,197v-9.3h1.4v1.5h0.1c0.4-1,1.1-1.7,2.5-1.7c1.2,0,2.3,0.6,2.8,1.9l0,0c0.3-1,1.2-1.9,2.8-1.9
		c1.9,0,3,1.3,3,3.5v6h-1.4v-5.7c0-1.6-0.6-2.5-2-2.5c-1.1,0-2.2,0.6-2.2,1.8v6.4h-1.4v-5.7c0-1.7-0.6-2.5-2-2.5
		c-1.1,0-2.2,0.6-2.2,1.8v6.4H914.9z"/>
	<path class="st12" d="M930.6,197v-9.3h1.4v1.5h0.1c0.4-1,1.1-1.7,2.5-1.7c1.2,0,2.3,0.6,2.8,1.9l0,0c0.3-1,1.2-1.9,2.8-1.9
		c1.9,0,3,1.3,3,3.5v6h-1.4v-5.7c0-1.6-0.6-2.5-2-2.5c-1.1,0-2.2,0.6-2.2,1.8v6.4h-1.4v-5.7c0-1.7-0.6-2.5-2-2.5
		c-1.1,0-2.2,0.6-2.2,1.8v6.4H930.6z"/>
	<path class="st12" d="M952.1,195.5L952.1,195.5c-0.4,0.9-1.1,1.7-2.7,1.7c-1.9,0-3.1-1.3-3.1-3.5v-6h1.4v5.7c0,1.7,0.7,2.5,2.1,2.5
		c1.1,0,2.3-0.6,2.3-1.8v-6.4h1.4v9.3h-1.4V195.5z"/>
	<path class="st12" d="M956.6,197v-9.3h1.4v1.5h0.1c0.5-1,1.2-1.7,2.6-1.7c1.9,0,3.1,1.3,3.1,3.5v6h-1.4v-5.7c0-1.7-0.7-2.5-2.1-2.5
		c-1.2,0-2.3,0.6-2.3,1.8v6.4H956.6z"/>
	<path class="st12" d="M966.6,184.8v-0.2c0-0.5,0.3-0.8,0.9-0.8s0.9,0.3,0.9,0.8v0.2c0,0.5-0.3,0.8-0.9,0.8S966.6,185.3,966.6,184.8
		z M966.8,187.8h1.4v9.3h-1.4V187.8z"/>
	<path class="st12" d="M973.3,197c-1,0-1.5-0.6-1.5-1.5V189h-1.5v-1.3h0.9c0.6,0,0.8-0.2,0.8-0.8v-1.7h1.3v2.6h2v1.3h-2v6.8h1.9v1.3
		h-1.9V197z"/>
	<path class="st12" d="M983.3,187.8h1.4l-4.2,11.5c-0.4,1.1-0.8,1.4-2.2,1.4h-0.7v-1.3h1.5l0.7-2l-3.5-9.7h1.4l2.2,6.3l0.4,1.5h0.1
		l0.5-1.5L983.3,187.8z"/>
</g>
<polygon class="st20" points="1013.1,171.9 1015.4,171.9 1015.4,171.9 "/>
</svg>
