<?xml version="1.0" encoding="utf-8"?>
<!-- Generator: Adobe Illustrator 24.2.3, SVG Export Plug-In . SVG Version: 6.00 Build 0)  -->
<svg version="1.1" id="Layer_1" xmlns="http://www.w3.org/2000/svg" xmlns:xlink="http://www.w3.org/1999/xlink" x="0px" y="0px"
	 viewBox="0 0 341 382" style="enable-background:new 0 0 341 382;" xml:space="preserve">
<style type="text/css">
	.st0{fill:#282828;}
	.st1{fill:#F8F8F8;}
	.st2{fill:#666666;}
	.st3{fill:#C1187C;}
	.st4{fill:#EE3996;}
	.st5{fill:#106190;}
	.st6{fill:#127AB9;}
	.st7{fill:#76AE35;}
	.st8{fill:#A4CE3C;}
	.st9{fill:#E7D9B9;}
	.st10{fill:#F5EDD7;}
</style>
<g>
	<path class="st0" d="M319.6,287.9L183.7,368c-6.2,3.6-13.8,3.7-20,0.2L26.3,290.6c-6.2-3.5-10.1-10.1-10.2-17.2l-1.5-157.7
		c-0.1-7.1,3.7-13.8,9.8-17.4l135.9-80.1c6.2-3.6,13.8-3.7,20-0.2l137.3,77.6c6.2,3.5,10.1,10.1,10.2,17.2l1.5,157.7
		C329.5,277.6,325.7,284.2,319.6,287.9z"/>
	<path class="st1" d="M310.3,281.7l-126.5,74.6c-6.2,3.6-13.8,3.7-20,0.2L35.9,284.3c-6.2-3.5-10.1-10.1-10.2-17.2l-1.4-146.9
		c-0.1-7.1,3.7-13.8,9.8-17.4l126.5-74.6c6.2-3.6,13.8-3.7,20-0.2l127.9,72.2c6.2,3.5,10.1,10.1,10.2,17.2l1.4,146.9
		C320.2,271.5,316.5,278.1,310.3,281.7z"/>
</g>
<g>
	<g id="layer1_1_" transform="translate(1892 533.1)">
		<g id="g4976_1_">
			<path id="path4933_1_" class="st2" d="M-1718-421.6c-1.9,0.3-3.6,1.2-5.4,1.8c-25.3,8.7-50.5,17.2-75.8,25.9
				c-0.3,0.1-0.9-0.3-1.1-0.1c-1.5,1.4-3,3.3-3.8,5.2c-0.7,0.8-1,1.9-1.3,2.9c-0.3,0.4-0.5,0.9-0.5,1.4c-0.1,0.4-0.2,0.7-0.3,1.1
				s-0.1,0.7-0.2,1.1c-0.1,0.4-0.1,0.7-0.2,1.1c0-0.4,0.1-0.7,0.2-1.1c0.1-0.4,0.1-0.7,0.2-1.1s0.2-0.7,0.3-1.1
				c-1.8,5.6-1.1,12,1,17.4c0,0.7,0.3,1.3,0.7,1.9c0.1,0.2,0.3,0.5,0.4,0.7c-0.1-0.3-0.3-0.5-0.4-0.7c0.3,1.1,0.9,2.1,1.5,3
				c0.7,0.2,1.6,0.6,2.4,0.6c0.1,0,0.1,0,0.2,0c0.1,0,0.1,0,0.2,0c1.3,0.5,2.7,0.8,4.1,1c0.1,0,0.2,0.1,0.3,0.1
				c0.5,0.2,1,0.3,1.5,0.4c0.4,0.1,0.8,0.2,1.3,0.3c0.4,0.1,0.8,0.2,1.2,0.3c0,0,0,0,0,0c0.1,0,0.2,0.1,0.3,0.1
				c0.1,0,0.2,0.1,0.3,0.1c-0.1,0-0.1,0-0.2,0c0,0-0.1,0-0.1,0s-0.1,0-0.1,0.1c0,0,0,0,0,0c-0.6,0.1-1.2,0.2-1.7,0.4
				c-0.2,0.1-0.3,0.1-0.5,0.2c0,0,0,0,0,0c0,0,0,0,0,0c-0.1,0-0.2,0-0.3,0.1c-0.8,0-2.1,0.5-2.9,0.7c0,0,0,0,0,0
				c-0.1,0-0.2,0-0.4,0.1c-0.2,0-0.5,0.1-0.7,0.2s-0.5,0.1-0.7,0.2c-0.4,0.1-0.7,0.2-1,0.3c0,0,0,0,0,0l0,0c-0.1,0-0.3,0-0.4,0.1
				c-0.8,0.1-1.7,0.3-2.5,0.6c-0.1,0-0.3,0.1-0.4,0.1c-0.8,0.1-1.7,0.4-2.5,0.6c-0.2,0-0.3,0-0.5,0.1c-0.4,0.1-0.8,0.1-1.2,0.3
				c-0.1,0-0.1,0.1-0.2,0.1c-1.1,0.2-2.2,0.4-3.2,0.8c-0.9,0.1-1.8,0.5-2.8,0.6c-0.1,0-0.3,0-0.4,0c-0.4-0.4-0.5,0.1-0.7,0.4
				c-4.3,4.9-7.3,11.2-6.8,17.8c-0.1,0.3-0.1,0.7,0,1.1c0,0.1,0,0.2,0,0.3c0,0.1,0,0.2,0.1,0.3c0,0.2,0.1,0.4,0.1,0.5c0,0,0,0,0,0
				c0.6,5.5,3.2,10.9,7,14.9c3.6,1.4,7.1,2.9,10.7,4.1c-0.5,1.3-2.7,1.1-3.3,2.5c-2.6,2.8-4.4,6.4-5,10.1c0,0,0,0,0,0
				c-0.4,1.4-0.4,3.3-0.3,4.7c0.2,5.4,2.8,10.5,5.9,14.9c8.9,1.5,17.8,3,26.6,4.4c0,0-0.1,0-0.1,0c0.1,0,0.2,0.1,0.3,0.1
				c0.4,0.1,0.9,0.2,1.4,0.3c0.1,0,0.3,0,0.4,0c0.2,0,0.5,0.1,0.7,0.1c10.4,1.8,20.9,3.6,31.4,5.2h0c0,0,0.5,0,0.8,0.1
				c0.8,0.2,1.6,0.3,2.5,0.5c1.1,0.2,3.3,0.4,3.3,0.4s0.1,0,0.1,0h0c8.4,1.5,16.8,2.9,25.2,4.2c0.7,0.3,1.8,0.4,2.7,0.5
				c8.4,1.5,16.9,2.8,25.3,4.2c21.9-20.7,43.6-41.6,65.4-62.3c1.4-1.3,0.2-3.9-1.4-3.9c-0.3,0-0.6,0.1-1,0.3c-0.2,0-0.3,0-0.4-0.1
				c0,0,0-0.1-0.1-0.1c-0.1-0.2-0.1-0.4-0.2-0.6c-0.5-1.3-0.9-2.7-1.1-4c0-0.3-0.1-0.6-0.1-0.8c0-0.1,0-0.3-0.1-0.4
				c0-0.4-0.1-0.8-0.1-1.3c0-0.6-0.1-1.1-0.1-1.7c0-1.7,0.1-3.4,0.3-5c0.5-2.2,0.6-4.7,1.5-6.7c1.3-1.3,3.7-2.4,3.2-4.6
				c-0.1-1-1.1-1.7-2.1-1.7c-0.4,0-0.8,0.2-1.1,0.5c-0.3,0.2-0.7,0.3-1.1,0.3c-0.1,0-0.1,0-0.2,0c-0.6,0-1.2-0.2-1.7-0.2
				c-2-0.1-4.1-0.5-6.1-0.5c-0.3,0-0.6,0-0.8,0c-0.1-0.1-0.1-0.1-0.2-0.2c0.7-1.4,0.8-3.5,1.3-5.1c1-0.3,2.2-0.5,2.9-1.4
				c0.5-1,0.4-2.6-0.6-3.2c-0.1-0.1-0.1-0.1-0.2-0.1c-0.3-0.2-0.6-0.3-0.9-0.3c-0.1,0-0.2,0-0.3,0c-0.1,0-0.2,0-0.3,0s-0.2,0-0.3,0
				c-0.7-0.1-1.4,0-2-0.2c-0.5-0.3-1.4-0.3-2.1-0.4c0,0,0,0,0,0c-0.7-0.2-1.4-0.3-2.1-0.4c-0.6-0.3-1.4-0.3-2.1-0.4
				c-0.9-0.2-1.8-0.4-2.7-0.5c-0.9-0.1-1.8-0.3-2.7-0.4c-1.1-0.4-2.5-0.5-3.7-0.6c0,0,0,0,0,0c-0.1,0-0.4-0.1-0.5-0.1
				c0,0,0.1,0,0.1,0c-0.6-0.3-1.5-0.3-2.3-0.5c0.8-0.5,2-0.6,2.8-1.2c0.8-0.1,1.8-0.4,2.5-0.9c2-0.6,4.1-1.4,6-2.3
				c0.8-0.3,1.7-0.6,2.5-0.9c0.3-0.1,0.6-0.2,0.9-0.3c1.1-0.4,2.3-0.9,3.3-1.4c0.1,0,0.2,0,0.3-0.1c1.4-0.5,3-0.8,4-1.7
				c0.9-0.7,1-2.2,0.3-3c-0.1-0.3-0.4-0.5-0.7-0.7c0,0,0,0,0,0c-0.5-0.3-1.1-0.3-1.6-0.1c-0.4,0.1-0.1-0.4-0.4-0.6
				c-1.8-5.4-2.5-11.1-1.7-16.7c0.1-0.4,0.1-0.8,0.2-1.2c0-0.2,0.1-0.4,0.1-0.6c0.5-1.4,0.7-3,1.4-4.4c1-0.6,2.5-0.6,3.1-1.6
				c0.5-0.6,0.7-1.7,0.2-2.3c-0.2-1.2-1.8-1.6-2.8-1.2C-1659.7-413.9-1688.9-417.9-1718-421.6L-1718-421.6z M-1717.3-421.9
				c0,0,0.1,0,0.1,0c0,0,0,0,0.1,0c0,0,0,0,0,0C-1717.2-421.8-1717.3-421.8-1717.3-421.9C-1717.3-421.9-1717.3-421.9-1717.3-421.9
				L-1717.3-421.9z M-1804.7-387.5c-0.1,0.2-0.2,0.5-0.3,0.7C-1804.9-387-1804.8-387.3-1804.7-387.5z M-1806.6-379.1
				c0,0.4,0,0.7,0,1.1C-1806.6-378.4-1806.6-378.8-1806.6-379.1z M-1806.6-376.9c0,0.4,0,0.7,0.1,1.1
				C-1806.6-376.2-1806.6-376.5-1806.6-376.9z M-1802.7-362.5c0.1,0.1,0.1,0.2,0.2,0.4C-1802.6-362.3-1802.7-362.4-1802.7-362.5z
				 M-1812.5-348.4c-0.3,0.4-0.6,0.9-0.9,1.4C-1813.2-347.5-1812.9-347.9-1812.5-348.4z M-1815.1-344.1c-0.2,0.4-0.3,0.8-0.5,1.1
				C-1815.5-343.4-1815.3-343.7-1815.1-344.1z M-1805.8-305.5c-0.1,0.3-0.3,0.6-0.4,0.8C-1806.1-305-1806-305.3-1805.8-305.5z
				 M-1807.5-300.6c-0.1,0.7-0.2,1.4-0.2,2C-1807.7-299.3-1807.6-299.9-1807.5-300.6z M-1807.6-296.1c0,0.3,0.1,0.7,0.2,1
				C-1807.5-295.4-1807.5-295.7-1807.6-296.1z"/>
			<g id="g4915_1_" transform="matrix(.5 0 0 .5 -600 7.6097)">
				<g id="g4261_1_" transform="matrix(1.25 0 0 1.25 -20779 -1360.3)">
					<path id="path4233_1_" class="st3" d="M14989.3,507.7c-0.7,0-1.4,0.3-1.8,0.8c-1.4,0.8-3.2,0.1-4.8,0.1
						c-3.2-0.1-6.6-0.7-9.8-0.8c-0.5,0-0.9,0-1.3,0c-0.7,5.1-1.1,10.3-0.4,15.5c0.3,2.6,0.9,5.1,1.6,7.5c5.1-4.1,9.8-8.9,14.8-13.1
						c2-2,6-3.9,5.1-7.4C14992.4,508.8,14990.8,507.7,14989.3,507.7L14989.3,507.7z M14951.9,549.7c-5.5,1.6-10.8,3.6-16.2,5.5
						c-36.8,12.6-73.5,25.4-110.3,38c-4.8,1.7-9.6,3.2-14.4,5c25.3,3.6,50.6,6.9,75.9,10.3C14908.6,589,14930.5,569.5,14951.9,549.7
						z M14989.5,550.6c-0.5,0-1,0.1-1.5,0.4c-34.3,32.4-68.3,65.2-102.6,97.6c-0.3,0.8-1.1,0.6-1.8,0.4c-62-10.4-124-20.6-186-30.9
						c-4.8-7.1-8.1-16-6-24.6c0.8-3.8,2.7-7.6,5.3-10.5c13.1,1.6,26.2,3.6,39.4,5.2c-9.1-3.8-18.4-7.2-27.6-10.8
						c-3.5-1.4-7-2.8-10.5-4.1c-0.7,2-4.3,1.8-5.3,3.9c-4.2,4.4-7.1,10.2-8,16.2c-0.3,2.5-0.5,5-0.4,7.5c0.3,8.7,4.4,16.8,9.4,23.7
						c14.2,2.5,28.5,4.9,42.6,7.1c1.5,0.1,3,0.4,4.4,0.7c16.6,2.9,33.3,5.7,50.1,8.3c3.5,0.5,7,1.1,10.5,1.8
						c13.4,2.3,26.9,4.7,40.5,6.7c1.5,0.2,2.9,0.4,4.4,0.8c13.5,2.5,27,4.6,40.5,6.8c35-33.2,69.9-66.6,104.9-99.9
						C14994,554.8,14992.2,550.7,14989.5,550.6L14989.5,550.6z"/>
					<path id="path4230_1_" class="st4" d="M14972.8,507.9c-0.5,0-0.9,0-1.3,0c-0.7,5.1-1.1,10.3-0.4,15.5c5.3-5,10.9-9.8,16.3-14.8
						c-1.4,0.8-3.2,0.1-4.8,0.1C14979.3,508.5,14975.9,507.9,14972.8,507.9L14972.8,507.9z M14935.6,555.2
						c-36.8,12.6-73.5,25.4-110.3,38c19.8,2.6,39.5,5.3,59.2,8c0.4,0.1,0.7-0.4,1-0.6C14902.2,585.5,14919.1,570.5,14935.6,555.2
						L14935.6,555.2z M14698.2,573.4c-0.7,2-4.3,1.8-5.3,3.9c1-0.9,1.9-2.1,3.5-1.6c4.1,0.6,8.2,1.1,12.3,1.7
						C14705.2,576,14701.7,574.6,14698.2,573.4L14698.2,573.4z"/>
				</g>
				<g id="g4265_1_" transform="matrix(1.25 0 0 1.25 -17779 -1360.3)">
					<path id="path4238_1_" class="st5" d="M12540.9,485.8c-0.6,0-1.1,0.3-1.7,0.5c-35.4,13.4-70.8,26.7-106.2,40.1
						c-1.8,0.6-3.5,1.7-5.4,1.7c-36.4-8.9-72.8-17.8-109.2-26.7c-0.2,0.1-0.5,0.1-0.7,0.1c-0.2,0-0.5,0-0.6,0.1
						c-1,0.6-2.4,0.6-3.5,0.9c-0.2,0-0.4,0-0.6,0.2c-1.4,0.6-3.1,0.8-4.6,1.2c-1.5,0.2-3.1,0.7-4.5,1.2c-1.6,0.7-3.5,0.9-5.3,1.3
						c-1.3,0.2-2.7,0.6-3.9,1c-0.8,0.6-2,0.5-2.9,0.7c-1.7,0.3-3.5,0.7-5.1,1.3c-1.5,0.7-3.2,0.8-4.8,1.2c-0.1,0-0.2-0.1-0.3-0.2
						c-0.6-0.6-0.9,0.2-1.2,0.6c-6.8,7.8-11.7,17.9-10.9,28.4c0.1,1.2,0.3,2.3,0.3,3.5c1,8.8,5.2,17.4,11.2,23.8
						c5.7,2.2,11.3,4.6,17.1,6.5c3.5,1.3,7,2.7,10.5,4.1c9.2,3.6,18.5,7,27.6,10.8c15.8,5.9,31.4,12.2,47.2,18.2
						c0.8,0.3,1.6,0.7,2.5,0.5c8.3-3,16.6-5.8,25-8.6c4.8-1.8,9.6-3.3,14.4-5c36.8-12.7,73.5-25.5,110.3-38
						c5.4-1.9,10.8-3.9,16.2-5.5c5-2,10.2-3.5,15.2-5.4c3.1-1.1,6.3-2.1,9.4-3.3c2.1-1.1,2.2-4.1,0.8-5.8c-1-0.6-2-1.2-3.2-0.8
						c-62.8,21.7-125.6,43.4-188.4,65.1c-0.4,0-0.8-0.1-1.2-0.2c-0.5-0.2-0.9-0.4-1.4-0.5c-32.7-12.8-65.5-25.4-98.3-38.2
						c-7.7-8.7-11.2-21.6-6.8-32.7c1.2-3.4,3.1-6.4,5.1-9.3c33.8,13.9,67.5,27.8,101.3,41.7c62.9-20.3,125.8-40.8,188.7-61
						c1.6-0.5,3.6-0.7,4.7-2.2c0.9-1.6,0.7-4.1-1-5.1c-1.6-1.4-4.3-0.8-6.3-1.3c-1.1-0.1-2.3-0.3-3.3-0.6c-1.1-0.4-2.2-0.5-3.4-0.6
						c-1.1-0.1-2.3-0.2-3.4-0.6c-2.8-0.7-5.7-1.1-8.6-1.5c-2-0.3-4-0.5-5.9-1c-0.2,0-0.6-0.1-0.9-0.1
						C12543.8,486.3,12542.4,485.9,12540.9,485.8L12540.9,485.8z"/>
					<path id="path28_1_" class="st6" d="M12539.2,486.2c0.5-0.2,1.1-0.5,1.7-0.5c1.4,0.2,2.8,0.6,4.3,0.6c0.3,0,0.7,0.1,0.9,0.2
						c1.9,0.5,3.9,0.7,5.8,1c2.9,0.4,5.8,0.8,8.6,1.5c1.1,0.3,2.2,0.4,3.4,0.6c1.1,0.1,2.3,0.2,3.4,0.6c1.1,0.3,2.2,0.5,3.3,0.6
						c2,0.6,4.7,0,6.3,1.3c-0.7-0.4-1.5-0.7-2.3-0.5c-63,20.6-126.1,41.3-189.1,61.9c-0.4,0-0.7-0.2-1.1-0.3
						c-32.1-13.3-64.3-26.6-96.4-39.9c-2-0.9-4.1-1.5-6-2.6c1.6-0.4,3.3-0.5,4.8-1.2c1.6-0.6,3.4-1,5.1-1.3c1-0.3,2.1-0.2,2.9-0.7
						c1.3-0.4,2.6-0.8,3.9-1c1.7-0.4,3.6-0.7,5.3-1.3c1.4-0.5,3-1,4.5-1.2c1.5-0.3,3.1-0.5,4.6-1.2c0.2-0.1,0.4-0.1,0.6-0.2
						c1.1-0.3,2.5-0.3,3.5-0.9c0.1-0.2,0.4-0.1,0.6-0.1c0.3,0,0.5-0.1,0.7-0.1c36.4,8.9,72.8,17.8,109.2,26.7
						c1.9-0.1,3.6-1.2,5.4-1.7C12468.4,513,12503.8,499.6,12539.2,486.2L12539.2,486.2z"/>
				</g>
				<g id="g4257_1_" transform="matrix(1.25 0 0 1.25 -23779 -1360.3)">
					<path id="path4243_1_" class="st7" d="M17234.1,401c-0.1,0-0.2,0-0.3,0c-42.3,14.8-84.7,29.2-127,43.8
						c-0.9,0.3-1.8,0.7-2.7,0.7c-0.4-0.1-0.8-0.2-1.2-0.3c-2.4,2.3-4.7,5.3-6.1,8.4c-0.7,1.6-1.3,3.2-2.1,4.7
						c-0.4,0.7-0.7,1.5-0.7,2.3c-2.4,9.2-1.4,19.1,1.6,28.1c0.1,1.1,0.6,2.2,1.1,3.1c0.9,1.5,1.5,3.3,2.5,4.8
						c1.3,0.6,2.9,0.5,4.2,1.2c2.1,0.7,4.4,1.3,6.5,1.6c2.9,0.6,5.7,1.3,8.5,2c36.4,8.9,72.8,17.8,109.2,26.7
						c1.9-0.1,3.6-1.2,5.4-1.7c35.4-13.4,70.8-26.7,106.2-40.1c0.5-0.2,1.1-0.5,1.7-0.5c1.6-0.8,3.4-1.4,5.1-2
						c1.3-0.5,2.6-1.1,4-1.4c3.3-1,6.5-2.3,9.6-3.6c3.5-1.5,7.2-2.9,10.8-4.1c0.2,0,0.3,0,0.4-0.1c2-1.1,4.5-1.5,6.5-2.7
						c1.5-1.1,1.6-3.5,0.4-4.9c-1-1-2.5-1.7-3.8-1.1c-48.6,18.3-97.1,36.7-145.6,55c-1,0.3-2-0.2-2.9-0.4
						c-40.5-9.9-80.9-19.8-121.4-29.7c-0.8,0.1-0.7-0.8-1-1.3c-4-9.1-5.4-19.8-1.8-29.2c0.9-2.3,2.1-4.4,3.5-6.4
						c0.3-0.8,1.1-0.5,1.7-0.4c39.8,9.6,79.7,19.1,119.5,28.7c0.5,0,0.9-0.2,1.3-0.4c49.8-18.5,99.5-36.9,149.3-55.4
						c0.7-0.3,1.4-0.8,1.9-1.3c0.8-1,1.1-2.7,0.3-3.7c-0.8-1.5-2.6-2.5-4.3-1.7c-45.2-5.8-90.3-12.3-135.5-18.1
						C17237.3,401.4,17235.7,401,17234.1,401L17234.1,401z"/>
					<path id="path6_1_" class="st8" d="M17233.8,401c1.7-0.1,3.4,0.3,5.1,0.5c45.2,5.8,90.3,12.2,135.5,18.1c0.3,0.2,1.9,0,1.5,0.6
						c-49.8,18.3-99.7,36.4-149.5,54.7c-0.5,0.2-1.1,0.2-1.6,0c-39.7-9.5-79.4-19.1-119.1-28.6c-0.6-0.2-1.3-0.2-1.6-0.7
						c1,0,1.8-0.4,2.7-0.7C17149.1,430.2,17191.5,415.8,17233.8,401L17233.8,401z"/>
				</g>
				<g id="g4253_1_" transform="matrix(1.25 0 0 1.25 -8779.5 -1360.3)">
					<path id="path4248_1_" class="st9" d="M5234.9,400.7c-3,0.6-5.7,2-8.6,2.9c-40.5,14-80.7,27.8-121.3,41.8
						c-0.5,0.2-1.4-0.5-1.7-0.1c0.4,0.1,0.8,0.2,1.2,0.3c1,0,1.8-0.4,2.7-0.7c42.3-14.6,84.8-29,127-43.8c1.7-0.1,3.4,0.3,5.1,0.5
						c45.2,5.8,90.3,12.2,135.5,18.1c1.7-0.8,3.5,0.2,4.3,1.7c-0.4-1.9-2.8-2.6-4.4-1.9C5328,413.2,5281.4,406.6,5234.9,400.7
						L5234.9,400.7z M5378.7,424.9c-0.6,0.5-1.2,1-1.9,1.3c-49.8,18.5-99.5,36.9-149.3,55.4c-0.4,0.1-0.9,0.4-1.3,0.4
						c-39.8-9.6-79.7-19.1-119.5-28.7c-0.6-0.1-1.4-0.4-1.7,0.4c-1.4,2-2.6,4.2-3.5,6.4c0,0,0,0,0.1,0c0,0,0,0-0.1,0
						c-3.7,9.4-2.2,20.1,1.8,29.2c0.3,0.5,0.2,1.4,1,1.3c40.5,9.9,80.9,19.8,121.4,29.7c0.9,0.2,2,0.7,2.9,0.4
						c48.6-18.3,97.1-36.7,145.6-55c1.4-0.6,2.9,0.1,3.8,1.1c-0.6-1.3-2.4-1.9-3.7-1.3c-0.6,0.1-0.2-0.7-0.6-0.9
						c-3.2-9.6-4.3-19.8-2.3-29.8c0.8-2.3,1.1-4.9,2.2-7.1C5375.3,426.7,5377.6,426.7,5378.7,424.9L5378.7,424.9z M5097.1,453.7
						c-1,1.3-1.5,3.1-2.1,4.7C5095.8,456.9,5096.4,455.2,5097.1,453.7z M5101.9,459.8C5101.9,459.8,5101.9,459.8,5101.9,459.8
						C5101.9,459.8,5101.9,459.8,5101.9,459.8z M5101.8,459.9C5101.8,459.9,5101.8,459.9,5101.8,459.9
						C5101.8,459.9,5101.8,459.9,5101.8,459.9z M5101.7,459.9C5101.7,459.9,5101.7,459.9,5101.7,459.9
						C5101.7,459.9,5101.7,459.9,5101.7,459.9z M5101.6,460C5101.6,460,5101.6,460,5101.6,460C5101.6,460,5101.6,460,5101.6,460z
						 M5094.3,460.7c-2.8,9-1.8,19.3,1.6,28.1C5092.9,479.7,5091.9,469.9,5094.3,460.7z M5377.7,471.7c-2,1.2-4.4,1.6-6.5,2.7
						C5373.4,473.6,5376,473.1,5377.7,471.7z M5370.8,474.6c-3.6,1.2-7.3,2.6-10.8,4.1C5363.5,477.5,5367.4,476.1,5370.8,474.6z
						 M5350.4,482.3c-1.4,0.3-2.7,0.9-4,1.4C5347.7,483.5,5349.2,483,5350.4,482.3z M5346.4,483.7c-1.7,0.6-3.5,1.2-5.1,2
						c1.4,0.2,2.8,0.6,4.3,0.6c-1-0.4-2.5-0.4-3.6-0.7C5343.2,484.9,5345.2,484.7,5346.4,483.7L5346.4,483.7z M5346.4,486.5
						c1.9,0.5,3.9,0.7,5.9,1C5350.5,486.9,5348.3,486.8,5346.4,486.5z M5360.8,489c1.1,0.3,2.2,0.4,3.4,0.6
						C5363.3,489.1,5361.9,489.1,5360.8,489z M5367.6,490.2c1.1,0.3,2.2,0.5,3.3,0.6C5370.1,490.3,5368.6,490.2,5367.6,490.2z
						 M5097.1,491.8c0.5,1.7,1.4,3.4,2.4,4.9c1.3,0.4,3.1,1.1,4.4,1c-1.3-0.6-2.9-0.5-4.2-1.2C5098.6,495.1,5098,493.3,5097.1,491.8
						L5097.1,491.8z M5373.5,499.4c-62.9,20.2-125.8,40.7-188.7,61c-33.8-13.9-67.5-27.8-101.3-41.7c-2.1,2.9-4,5.9-5.1,9.3
						c-4.4,11-0.9,24,6.8,32.7c32.7,12.8,65.5,25.5,98.3,38.2c-0.2-0.5-0.3-1.1-0.4-1.6c0.1,0.5,0.3,1.1,0.4,1.6
						c0.5,0.2,0.9,0.4,1.4,0.5c0.4,0.2,0.8,0.2,1.2,0.2c62.8-21.7,125.6-43.4,188.4-65.1c1.2-0.4,2.2,0.1,3.2,0.8
						c1.4,1.7,1.3,4.7-0.8,5.8c-3.1,1.1-6.3,2.2-9.4,3.3c-5.1,1.8-10.2,3.4-15.2,5.4c-21.5,19.8-43.3,39.3-65,59
						c-25.3-3.5-50.6-6.8-75.9-10.3c-8.3,2.8-16.7,5.7-25,8.6c-0.9,0.3-1.7-0.1-2.5-0.5c-15.7-6.1-31.4-12.4-47.2-18.2
						c-13.1-1.7-26.2-3.6-39.4-5.2c-2.7,2.9-4.5,6.6-5.3,10.5c-2.2,8.6,1.2,17.5,6,24.6c62,10.3,124,20.6,186,30.9
						c0.7,0.2,1.5,0.4,1.8-0.4c34.3-32.4,68.3-65.2,102.6-97.6c-0.9,0-0.6-0.7-1-1.3c-2.7-6.7-2.8-14.2-1.9-21.2
						c0.8-3.5,1-7.5,2.5-10.8c-5.1,4.2-9.7,9-14.8,13.1c-0.7-2.5-1.3-5-1.6-7.5c-0.7-5.1-0.3-10.4,0.4-15.5
						c-0.1-0.1-0.2-0.2-0.3-0.3C5372.7,505.3,5372.8,502,5373.5,499.4L5373.5,499.4z M5110.4,499.4c2.3,1,5.3,1.2,7.8,2.2
						c0.3,0,0.5-0.1,0.7-0.1C5116,500.7,5113.2,500,5110.4,499.4L5110.4,499.4z M5117.5,501.7c-1.2,0.2-2.5,0.4-3.5,0.9
						C5115.2,502.3,5116.5,502.3,5117.5,501.7z M5113.5,502.7c-1.2,0-3.3,0.7-4.6,1.2C5110.4,503.6,5112,503.4,5113.5,502.7z
						 M5104.4,505.1c-1.8,0.3-3.7,0.7-5.3,1.3C5100.9,506,5102.7,505.7,5104.4,505.1z M5095.2,507.4c-1,0.1-2.1,0.3-2.9,0.7
						C5093.2,507.9,5094.4,507.9,5095.2,507.4z M5087.1,509.4c-1.7,0.2-3.3,1-5.1,1c0.1,0,0.2,0.1,0.3,0.2
						C5083.9,510.2,5085.7,510.1,5087.1,509.4L5087.1,509.4z M5373.1,531.4c0.1,0.3,0.2,0.6,0.3,0.9
						C5373.3,532,5373.2,531.7,5373.1,531.4z M5373.6,532.7c0.1,0.3,0.2,0.6,0.4,0.9C5373.9,533.4,5373.8,533,5373.6,532.7z
						 M5070,539.5c-0.3,0.8,0.1,2.7,0.3,3.5C5070.2,541.8,5070.1,540.6,5070,539.5z M5180,575c0,0.6,0,1.2,0,1.7
						C5180,576.2,5180,575.6,5180,575z M5180,578.5c0,0.6,0,1.2,0.1,1.7C5180.1,579.6,5180,579,5180,578.5z M5180.2,581.9
						c0,0.6,0.1,1.2,0.2,1.7C5180.3,583.1,5180.3,582.5,5180.2,581.9z M5180.9,587.1c0.1,0.6,0.2,1.1,0.3,1.7
						C5181,588.3,5180.9,587.7,5180.9,587.1z M5181.6,591.4c0.1,0.6,0.2,1.1,0.4,1.7C5181.9,592.5,5181.7,591.9,5181.6,591.4z
						 M5085.3,593.5c-0.7,2.3-0.7,5.3-0.4,7.5C5084.7,598.5,5085,596,5085.3,593.5z M5182.4,594.7c0.1,0.6,0.3,1.1,0.4,1.7
						C5182.6,595.8,5182.5,595.3,5182.4,594.7z M5136.9,631.8c1.1,0.4,3,0.6,4.4,0.7C5139.9,632.1,5138.3,631.9,5136.9,631.8z
						 M5191.4,640.8c3.3,0.7,7,1.3,10.5,1.8C5198.4,641.9,5194.9,641.3,5191.4,640.8z M5242.3,649.3c1.2,0.5,2.9,0.7,4.4,0.8
						C5245.3,649.7,5243.8,649.4,5242.3,649.3z"/>
					<path id="path4_1_" class="st10" d="M5234.9,400.7c-3,0.6-5.7,2-8.6,2.9c-40.5,14-80.7,27.8-121.3,41.8
						c-0.5,0.2-1.4-0.5-1.7-0.1c0.4,0.1,0.8,0.2,1.2,0.3c1,0,1.8-0.4,2.7-0.7c42.3-14.6,84.8-29,127-43.8c1.7-0.1,3.4,0.3,5.1,0.5
						c45.2,5.8,90.3,12.2,135.5,18.1c1.7-0.8,3.5,0.2,4.3,1.7c-0.4-1.9-2.8-2.6-4.4-1.9C5328.1,413.2,5281.4,406.6,5234.9,400.7
						L5234.9,400.7z M5371.5,434.6c-48.9,18.1-97.8,36.4-146.7,54.5c-1.1,10.4,0.5,21,3,31.1c0,0.4,0.4,0.4,0.8,0.5
						c48.6-18.3,97.1-36.7,145.6-55c1.4-0.6,2.9,0.1,3.8,1.1c-0.6-1.3-2.4-1.9-3.7-1.3c-0.6,0.1-0.2-0.7-0.6-0.9
						C5370.6,454.8,5369.6,444.6,5371.5,434.6L5371.5,434.6z M5097.1,453.7c-1,1.3-1.5,3.1-2.1,4.7
						C5095.8,456.9,5096.4,455.2,5097.1,453.7z M5101.9,459.8c-0.2,0-0.3,0.2-0.5,0.3c-3.7,9.4-2.2,20.1,1.8,29.2
						c0.3,0.5,0.2,1.4,1,1.3c40.5,9.9,80.9,19.8,121.4,29.7c0.3,0,0.9-0.1,0.7-0.6c-2.5-9.9-3.5-20.2-3.1-30.4
						C5182.8,479.4,5142.4,469.7,5101.9,459.8C5102,459.8,5102,459.8,5101.9,459.8L5101.9,459.8z M5094.3,460.7
						c-2.8,9-1.8,19.3,1.6,28.1C5092.9,479.7,5091.9,469.9,5094.3,460.7z M5377.7,471.7c-2,1.2-4.4,1.6-6.5,2.7
						C5373.4,473.6,5376,473.1,5377.7,471.7z M5370.8,474.6c-3.6,1.2-7.3,2.6-10.8,4.1C5363.5,477.5,5367.4,476.1,5370.8,474.6z
						 M5350.4,482.3c-1.4,0.3-2.7,0.9-4,1.4C5347.7,483.5,5349.2,483,5350.4,482.3z M5346.4,483.7c-1.7,0.6-3.5,1.2-5.1,2
						c1.4,0.2,2.8,0.6,4.3,0.6c-1-0.4-2.5-0.4-3.6-0.7C5343.2,484.9,5345.2,484.7,5346.4,483.7L5346.4,483.7z M5346.4,486.5
						c1.9,0.5,3.9,0.7,5.9,1C5350.5,486.9,5348.3,486.8,5346.4,486.5z M5360.8,489c1.1,0.3,2.2,0.4,3.4,0.6
						C5363.3,489.1,5361.9,489.1,5360.8,489z M5367.6,490.2c1.1,0.3,2.2,0.5,3.3,0.6C5370.1,490.3,5368.6,490.2,5367.6,490.2z
						 M5097.1,491.8c0.5,1.7,1.4,3.4,2.4,4.9c1.3,0.4,3.1,1.1,4.4,1c-1.3-0.6-2.9-0.5-4.2-1.2C5098.6,495.1,5098,493.3,5097.1,491.8
						L5097.1,491.8z M5110.4,499.4c2.3,1,5.3,1.2,7.8,2.2c0.3,0,0.5-0.1,0.7-0.1C5116.1,500.7,5113.2,500,5110.4,499.4L5110.4,499.4
						z M5117.5,501.7c-1.2,0.2-2.5,0.4-3.5,0.9C5115.2,502.3,5116.5,502.3,5117.5,501.7z M5113.5,502.7c-1.2,0-3.3,0.7-4.6,1.2
						C5110.4,503.6,5112,503.4,5113.5,502.7z M5104.4,505.1c-1.8,0.3-3.7,0.7-5.3,1.3C5100.9,506,5102.7,505.7,5104.4,505.1z
						 M5095.2,507.4c-1,0.1-2.1,0.3-2.9,0.7C5093.2,507.9,5094.4,507.9,5095.2,507.4z M5371.5,507.6c-62.9,21-125.7,42.3-188.5,63.4
						c-0.6,0.2-1.6,0.4-1.4,1.3c-1,9.2,1.2,18.4,3.3,27.2c0.4,0.2,0.8,0.2,1.2,0.2c62.8-21.7,125.6-43.4,188.4-65.1
						c-0.6-1.2-1.1-2.4-1.5-3.6c-0.7-2.5-1.3-5-1.6-7.5c-0.7-5.1-0.3-10.4,0.4-15.5C5371.7,507.8,5371.6,507.7,5371.5,507.6
						L5371.5,507.6z M5087.2,509.4c-1.7,0.2-3.3,1-5.1,1c0.1,0,0.2,0.1,0.3,0.2C5083.9,510.2,5085.7,510.1,5087.2,509.4
						L5087.2,509.4z M5078.4,527.9c-4.4,11-0.9,24,6.8,32.7c32.7,12.8,65.5,25.5,98.3,38.2c-2.4-8.7-4-18.1-3.3-27.3
						C5146.4,556.8,5112.2,542.6,5078.4,527.9L5078.4,527.9z M5385.4,528.6c-2.6,2.2-4.9,4.9-7.7,6.7c1.4,1.7,1.3,4.7-0.8,5.8
						c-3.1,1.1-6.3,2.2-9.4,3.3c0.1,0.3,0.1,0.6-0.1,0.7c-27.5,25.3-55.2,50.5-82.6,75.9c-2.2,9.1-2,18.8,1.1,27.7
						c34.3-32.4,68.3-65.2,102.6-97.6c-0.9,0-0.6-0.7-1-1.3C5384.5,543.1,5384.5,535.6,5385.4,528.6L5385.4,528.6z M5069.9,539.5
						c-0.3,0.8,0.1,2.7,0.3,3.5C5070.2,541.8,5070.1,540.6,5069.9,539.5z M5091.9,593.5c-2.2,8.6,1.2,17.5,6,24.6
						c62,10.3,124,20.6,186,30.9c0.2,0,0.3-0.1,0.4-0.2c-3-8.8-3-18.5-1.3-27.6c-31.7-4.6-63.4-9.2-95.1-13.8
						c-0.5-0.2-1.3,0-1.6-0.5c-0.9,0.3-1.7-0.1-2.5-0.5c-0.3,0.2-0.6,0.4-0.9,0.2C5152.6,602.3,5122.3,598,5091.9,593.5
						L5091.9,593.5z M5085.2,593.5c-0.7,2.3-0.7,5.3-0.4,7.5C5084.7,598.5,5085,596,5085.2,593.5z M5136.8,631.8
						c1.1,0.4,3,0.6,4.4,0.7C5139.8,632.1,5138.3,631.9,5136.8,631.8z M5191.3,640.8c3.3,0.7,7,1.3,10.5,1.8
						C5198.4,641.9,5194.9,641.3,5191.3,640.8z M5242.3,649.2c1.2,0.5,2.9,0.7,4.4,0.8C5245.3,649.7,5243.8,649.4,5242.3,649.2z"/>
				</g>
			</g>
		</g>
	</g>
</g>
</svg>
