<?xml version="1.0" encoding="utf-8"?>
<!-- Generator: Adobe Illustrator 24.2.3, SVG Export Plug-In . SVG Version: 6.00 Build 0)  -->
<svg version="1.1" id="Layer_1" xmlns="http://www.w3.org/2000/svg" xmlns:xlink="http://www.w3.org/1999/xlink" x="0px" y="0px"
	 viewBox="0 0 681 756" style="enable-background:new 0 0 681 756;" xml:space="preserve">
<style type="text/css">
	.st0{fill:#282828;}
	.st1{fill:#F8F8F8;}
	.st2{fill:#072047;}
	.st3{fill:#001C3F;}
	.st4{fill:#65807F;}
	.st5{fill:#889FC0;}
	.st6{fill:#A1CCCB;}
</style>
<path class="st0" d="M664.1,569.9L350.4,745.1c-6.1,3.4-13.4,3.4-19.5,0L17,569.7c-6.3-3.5-10.2-10.2-10.2-17.5L6.6,202.9
	c0-7.3,3.9-13.9,10.3-17.5L330.6,10.3c6.1-3.4,13.4-3.4,19.5,0L664,185.7c6.3,3.5,10.2,10.2,10.2,17.5l0.1,349.3
	C674.4,559.7,670.5,566.4,664.1,569.9z"/>
<path class="st1" d="M646.2,554.3L354.1,720.9c-6,3.4-13.4,3.5-19.5,0.2L39.2,559.7c-6.4-3.5-10.3-10.1-10.4-17.4l-3.2-326.9
	c-0.1-7.3,3.8-14,10.1-17.6L327.9,31.2c6-3.4,13.4-3.5,19.5-0.2l295.4,161.4c6.4,3.5,10.3,10.1,10.4,17.4l3.2,326.9
	C656.4,543.9,652.5,550.7,646.2,554.3z"/>
<path class="st2" d="M242.5,270.7l-12.4-1.2c-1.4-3-3.1-5.8-5-8.5l5.6-10.7c1-1.9,0.5-4.2-1.3-5.5l-21-15.9c-1.7-1.3-4.2-1.3-6,0
	l-9.7,7.5c-3.2-1.1-6.5-2-9.9-2.7l-4-11.3c-0.7-2-2.8-3.3-5-3l-26.8,2.9c-2.2,0.2-4,1.9-4.2,4l-1.3,11.9c-3.1,1.4-6.1,2.9-9,4.8
	l-11.2-5.3c-2-0.9-4.4-0.4-5.8,1.2L98.6,259c-1.4,1.7-1.4,4,0,5.7l7.9,9.2c-1.2,3.1-2.2,6.2-2.9,9.4l-11.9,3.8
	c-2.1,0.7-3.5,2.7-3.2,4.8l3,25.5c0.2,2.1,2,3.8,4.2,4l12.4,1.2c1.4,3,3.1,5.8,5,8.5l-5.6,10.7c-1,1.9-0.5,4.2,1.3,5.5l21,15.9
	c1.7,1.3,4.2,1.3,6,0l9.7-7.5c3.2,1.1,6.5,2,9.9,2.7l4,11.3c0.7,2,2.8,3.3,5,3l26.8-2.9c2.2-0.2,4-1.9,4.2-4l1.3-11.9
	c3.1-1.4,6.1-2.9,9-4.8l11.2,5.3c2,0.9,4.4,0.4,5.8-1.2l16.8-20.1c1.4-1.7,1.4-4,0-5.7l-7.9-9.2c1.2-3.1,2.2-6.2,2.9-9.4l11.9-3.8
	c2.1-0.7,3.5-2.7,3.2-4.8l-3-25.5C246.5,272.6,244.7,270.9,242.5,270.7z M197.5,293c1.7,14.9-9.6,28.4-25.2,30.1s-29.8-9-31.5-23.9
	c-1.7-14.9,9.6-28.4,25.2-30.1C181.6,267.4,195.7,278.1,197.5,293z"/>
<path class="st3" d="M586.8,391.1l-17.4-4.6c-1.3-4.7-3-9.2-5-13.7l10.5-14.4c1.9-2.6,1.7-6.1-0.5-8.4l-26.1-28.2
	c-2.2-2.3-5.7-2.9-8.5-1.3l-15.6,8.8c-4.3-2.4-8.8-4.5-13.4-6.2l-3-17.4c-0.5-3.1-3.2-5.4-6.4-5.6l-38.8-1.8c-3.2-0.2-6.1,1.9-7,5
	l-4.7,17.1c-4.8,1.3-9.4,2.9-13.9,4.9l-14.7-10.3c-2.6-1.8-6.2-1.6-8.6,0.5l-28.8,25.6c-2.4,2.1-2.9,5.6-1.3,8.3l9,15.3
	c-2.5,4.2-4.6,8.6-6.3,13.1l-17.8,2.9c-3.2,0.5-5.6,3.1-5.7,6.3l-1.9,38c-0.2,3.2,1.9,6,5.1,6.8l17.4,4.6c1.3,4.7,3,9.2,5,13.7
	l-10.5,14.4c-1.9,2.6-1.7,6.1,0.5,8.4l26.1,28.2c2.2,2.3,5.7,2.9,8.5,1.3l15.6-8.8c4.3,2.4,8.8,4.5,13.4,6.2l3,17.4
	c0.5,3.1,3.2,5.4,6.4,5.6l38.8,1.8c3.2,0.2,6.1-1.9,7-5l4.7-17.1c4.8-1.3,9.4-2.9,13.9-4.9l14.7,10.3c2.6,1.8,6.2,1.6,8.6-0.5
	l28.8-25.6c2.4-2.1,2.9-5.6,1.3-8.3l-9-15.3c2.5-4.2,4.6-8.6,6.3-13.1l17.8-2.9c3.2-0.5,5.6-3.1,5.7-6.3l1.9-38
	C592.1,394.8,590,392,586.8,391.1z M515.9,422.7c-6.5,21.3-29.4,33.6-51.2,27.5s-34.2-28.5-27.7-49.8c6.5-21.3,29.4-33.6,51.2-27.5
	C509.9,379,522.3,401.4,515.9,422.7z"/>
<path class="st4" d="M494.6,336.1l-25.3-5.3c-2.2-6.5-4.9-12.9-8.1-19l14-21.1c2.5-3.8,2-8.7-1.3-11.9l-39.4-38.1
	c-3.3-3.2-8.4-3.7-12.3-1.3L400.3,253c-6.3-3.1-12.9-5.7-19.6-7.9l-5.5-24.5c-1-4.4-5-7.5-9.6-7.5h-55.8c-4.6,0-8.6,3.1-9.6,7.5
	l-5.5,24.5c-6.7,2.1-13.3,4.8-19.6,7.9l-21.8-13.5c-3.9-2.4-9-1.9-12.3,1.3l-39.4,38.1c-3.3,3.2-3.8,8.1-1.3,11.9l14,21.1
	c-3.2,6.1-5.9,12.5-8.1,19l-25.3,5.3c-4.5,1-7.7,4.8-7.7,9.3v53.9c0,4.5,3.2,8.3,7.7,9.3l25.3,5.3c2.2,6.5,4.9,12.9,8.1,19l-14,21.1
	c-2.5,3.8-2,8.7,1.3,11.9l39.4,38.1c3.3,3.2,8.4,3.7,12.3,1.3l21.8-13.5c6.3,3.1,12.9,5.7,19.6,7.9l5.5,24.5c1,4.4,5,7.5,9.6,7.5
	h55.8c4.6,0,8.6-3.1,9.6-7.5l5.5-24.5c6.7-2.1,13.3-4.8,19.6-7.9l21.8,13.5c3.9,2.4,9,1.9,12.3-1.3l39.4-38.1
	c3.3-3.2,3.8-8.1,1.3-11.9l-14-21.1c3.2-6.1,5.9-12.5,8.1-19l25.3-5.3c4.5-1,7.7-4.8,7.7-9.3v-53.9
	C502.4,340.9,499.1,337,494.6,336.1z M396.7,372.3c0,31.5-26.5,57.1-59,57.1s-59-25.6-59-57.1s26.5-57.1,59-57.1
	S396.7,340.8,396.7,372.3z"/>
<path class="st5" d="M432.5,414.6l-15.6-1.5c-1.8-3.7-3.9-7.3-6.2-10.7l7-13.4c1.2-2.4,0.6-5.3-1.6-6.9l-26.4-20
	c-2.2-1.7-5.3-1.6-7.5,0.1l-12.2,9.5c-4-1.4-8.2-2.6-12.4-3.4l-5-14.1c-0.9-2.5-3.5-4.1-6.3-3.8l-33.5,3.7c-2.8,0.3-5,2.4-5.3,5.1
	l-1.6,14.8c-3.9,1.7-7.7,3.7-11.3,6l-14-6.6c-2.5-1.2-5.5-0.5-7.3,1.6L252.3,400c-1.7,2.1-1.7,5,0,7.1l9.9,11.6
	c-1.5,3.8-2.7,7.8-3.6,11.8l-14.9,4.8c-2.7,0.9-4.3,3.4-4,6l3.7,31.9c0.3,2.6,2.5,4.7,5.3,5l15.6,1.5c1.8,3.7,3.9,7.3,6.2,10.7
	l-7,13.4c-1.2,2.4-0.6,5.3,1.6,6.9l26.4,20c2.2,1.7,5.3,1.6,7.5-0.1l12.2-9.5c4,1.4,8.2,2.6,12.4,3.4l5,14.1
	c0.9,2.5,3.5,4.1,6.3,3.8l33.5-3.7c2.8-0.3,5-2.4,5.3-5.1l1.6-14.8c3.9-1.7,7.7-3.7,11.3-6l14,6.6c2.5,1.2,5.5,0.5,7.3-1.6
	l21.1-25.2c1.7-2.1,1.7-5,0-7.1l-9.9-11.6c1.5-3.8,2.7-7.8,3.6-11.8l14.9-4.8c2.7-0.9,4.3-3.4,4-6l-3.7-31.9
	C437.5,417,435.3,414.9,432.5,414.6z M376.2,442.5c2.2,18.6-12,35.5-31.6,37.7c-19.6,2.1-37.3-11.3-39.5-29.9
	c-2.2-18.6,12-35.5,31.6-37.7C356.3,410.5,374,423.9,376.2,442.5z"/>
<path class="st6" d="M333.7,313.5L322,308c-0.3-3.4-0.9-6.8-1.7-10.1l9.4-8.6c1.7-1.5,2-4,0.8-5.9l-14.8-22.9
	c-1.2-1.9-3.7-2.7-5.9-2l-12.3,4.1c-2.7-2.2-5.6-4.2-8.7-6l0.2-12.4c0-2.2-1.5-4.2-3.8-4.7l-27.4-6.4c-2.3-0.5-4.6,0.5-5.6,2.5
	l-5.6,11.2c-3.6,0.3-7.1,0.8-10.6,1.6l-9.1-9c-1.6-1.6-4.2-1.9-6.2-0.8l-23.9,13.9c-2,1.2-2.8,3.5-2.1,5.6l4.3,11.8
	c-2.3,2.6-4.4,5.3-6.3,8.2l-13.1-0.3c-2.3-0.1-4.4,1.4-4.9,3.6l-6.5,26c-0.5,2.2,0.6,4.4,2.7,5.4l11.8,5.5c0.3,3.4,0.9,6.8,1.7,10.1
	l-9.4,8.6c-1.7,1.5-2,4-0.8,5.9l14.8,22.9c1.2,1.9,3.7,2.7,5.9,2l12.3-4.1c2.7,2.2,5.6,4.2,8.7,6l-0.2,12.4c0,2.2,1.5,4.2,3.8,4.7
	l27.4,6.4c2.3,0.5,4.6-0.5,5.6-2.5l5.6-11.2c3.6-0.3,7.1-0.8,10.6-1.6l9.1,9c1.6,1.6,4.2,1.9,6.2,0.8l23.9-13.9
	c2-1.2,2.8-3.5,2.1-5.6l-4.3-11.8c2.3-2.6,4.4-5.3,6.3-8.2l13.1,0.3c2.3,0.1,4.4-1.4,4.9-3.6l6.5-26
	C337,316.7,335.8,314.4,333.7,313.5z M281.3,319.8c-3.8,15.2-19.9,24.6-35.8,20.8s-25.9-19.1-22.1-34.3
	c3.8-15.2,19.9-24.6,35.8-20.8S285.1,304.6,281.3,319.8z"/>
</svg>
