<?xml version="1.0" encoding="utf-8"?>
<!-- Generator: Adobe Illustrator 24.2.3, SVG Export Plug-In . SVG Version: 6.00 Build 0)  -->
<svg version="1.1" id="Layer_1" xmlns="http://www.w3.org/2000/svg" xmlns:xlink="http://www.w3.org/1999/xlink" x="0px" y="0px"
	 viewBox="0 0 552 629" style="enable-background:new 0 0 552 629;" xml:space="preserve">
<style type="text/css">
	.st0{fill:#282828;}
	.st1{fill:#F8F8F8;}
	.st2{fill:#F4F3F2;}
	.st3{fill:#363838;}
	.st4{fill:#F06678;}
	.st5{fill:#F0EAD4;}
	.st6{fill:#94CFCE;}
</style>
<g>
	<path class="st0" d="M537.2,474.9L288.9,621.4c-6.2,3.6-13.8,3.7-20,0.2l-251-141.8c-6.2-3.5-10.1-10.1-10.2-17.2L5,174.3
		c-0.1-7.1,3.7-13.8,9.8-17.4L263.2,10.4c6.2-3.6,13.8-3.7,20-0.2l251,141.8c6.2,3.5,10.1,10.1,10.2,17.2l2.7,288.3
		C547.2,464.7,543.4,471.3,537.2,474.9z"/>
	<path class="st1" d="M521.3,464.4l-232.2,137c-6.2,3.6-13.8,3.7-20,0.2L34.4,469c-6.2-3.5-10.1-10.1-10.2-17.2l-2.5-269.6
		c-0.1-7.1,3.7-13.8,9.8-17.4l232.2-137c6.2-3.6,13.8-3.7,20-0.2l234.7,132.6c6.2,3.5,10.1,10.1,10.2,17.2l2.5,269.6
		C531.2,454.1,527.5,460.8,521.3,464.4z"/>
</g>
<g>
	<g>
		<path class="st2" d="M515.4,299.9"/>
		<path class="st3" d="M226.5,171.4c0-27.5,22.3-49.9,49.9-49.9c27.5,0,49.9,22.3,49.9,49.9c0,27.5-22.3,49.9-49.9,49.9
			C248.9,221.3,226.5,199,226.5,171.4"/>
		<path class="st3" d="M300.4,255.6c0.5-10.9,4.2-20.9,10.3-29.2c-4.2-0.9-8.6-1.4-13.1-1.4h-42.3c-4.5,0-8.8,0.5-13,1.3
			c6.4,8.9,10.2,19.7,10.3,31.5c7.8-4.3,16.7-6.7,26.2-6.7C286.4,251.1,293.7,252.7,300.4,255.6"/>
		<path class="st4" d="M308.8,259.8c14.5,9.1,24.6,24.5,26.5,42.3c5.9,2.8,12.5,4.4,19.4,4.4c25.4,0,46-20.6,46-46
			c0-25.4-20.6-46-46-46C329.6,214.5,309.2,234.7,308.8,259.8"/>
		<path class="st5" d="M278.7,353.9c25.4,0,46-20.6,46-46c0-25.4-20.6-46-46-46c-25.4,0-46,20.6-46,46
			C232.8,333.3,253.3,353.9,278.7,353.9"/>
		<path class="st5" d="M298,357.2h-38.9c-32.5,0-58.8,26.3-58.8,58.8v47.7l0.1,0.7l3.3,1c31,9.7,58,12.9,80.2,12.9
			c43.3,0,68.5-12.3,70-13.1l3.1-1.6h0.3v-47.7c0-32.4-26.4-58.9-59-58.9"/>
		<path class="st4" d="M374.1,309.9h-38.8c-0.4,15.5-7,29.4-17.4,39.5c28.8,8.6,49.8,35.3,49.8,66.9V431c38.1-1.4,60.1-12.2,61.5-13
			l3.1-1.6h0.3v-47.7c0-32.4-26.3-58.9-58.7-58.9"/>
		<path class="st6" d="M198.1,306.4c9,0,17.4-2.6,24.4-7.1c2.3-14.7,10.1-27.5,21.4-36.3c0-0.9,0.1-1.7,0.1-2.6
			c0-25.4-20.6-46-45.9-46c-25.4,0-46,20.6-46,46C152.1,285.9,172.7,306.4,198.1,306.4"/>
		<path class="st6" d="M239,349.4c-10.4-10-17-23.8-17.5-39.2c-1.4-0.1-2.9-0.2-4.3-0.2h-39c-32.5,0-58.8,26.3-58.8,58.8v47.7
			l0.1,0.7l3.3,1c24.8,7.8,47,11.3,66.3,12.5v-14.4C189,384.7,210.1,358,239,349.4"/>
		<path class="st3" d="M451.8,362.5c0,14.2-8.4,25.7-18.7,25.7s-18.7-11.5-18.7-25.7c0-14.2,8.4-25.7,18.7-25.7
			S451.8,348.3,451.8,362.5"/>
		<path class="st3" d="M138.4,362.5c0,14.2-8.4,25.7-18.7,25.7c-10.3,0-18.7-11.5-18.7-25.7c0-14.2,8.4-25.7,18.7-25.7
			C130,336.8,138.4,348.3,138.4,362.5"/>
	</g>
</g>
</svg>
