<svg id="Layer_1" data-name="Layer 1" xmlns="http://www.w3.org/2000/svg" viewBox="0 0 750 1000"><defs><style>.cls-1{fill:#282828;}.cls-2,.cls-3{fill:none;stroke:#fff;stroke-miterlimit:10;stroke-width:8px;}.cls-3{stroke-dasharray:11.96 2.99;}.cls-4{fill:#2daefd;}.cls-5{fill:#f5f5f5;}.cls-6{fill:#c77021;}.cls-7{fill:#f1881d;}.cls-8{fill:#3a3a3a;}.cls-9{fill:#889fc0;}.cls-10{fill:#c0d1e0;}.cls-11{fill:#abfffe;}.cls-12{fill:#3e727e;}</style></defs><rect class="cls-1" width="750" height="1000"/><path class="cls-2" d="M344,253c1.78.07,3.77.27,6,.57"/><path class="cls-3" d="M352.92,254c90.89,15.54,468.44,199.5,115,481.32"/><path class="cls-2" d="M466.71,736.29,462,740"/><path class="cls-4" d="M300.12,32.8H158.33a16.66,16.66,0,0,0-14.43,8.33L73,163.92a16.64,16.64,0,0,0,0,16.66L143.9,303.37a16.67,16.67,0,0,0,14.43,8.34H300.12a16.67,16.67,0,0,0,14.43-8.34l70.89-122.79a16.64,16.64,0,0,0,0-16.66L314.55,41.13A16.66,16.66,0,0,0,300.12,32.8Z"/><path class="cls-5" d="M130.62,152.59h-5v-41.2h16.41c7.2,0,11.5,4.19,11.5,11.69,0,6-2.89,10.09-8.26,11.33l9.45,18.18h-5.61l-8.91-17.71h-9.62Zm11.45-22c3.89,0,6.19-2.12,6.19-5.9v-3.07c0-3.78-2.3-5.9-6.19-5.9H130.62v14.87Z"/><path class="cls-5" d="M159.84,137.36c0-9.68,5.43-15.94,13.69-15.94s13.16,6.26,13.16,14.88v2.24h-21.9V140c0,5.25,3.37,9.2,9,9.2a8.81,8.81,0,0,0,8.38-5.25l3.37,2.42c-1.95,4.13-6.32,7-12,7C165.27,153.3,159.84,147,159.84,137.36Zm4.95-2.77V135h16.83v-.65c0-5.37-3.25-9-8.09-9C168.39,125.38,164.79,129.27,164.79,134.59Z"/><path class="cls-5" d="M205.4,165.1c-9.5,0-13.39-2.71-13.39-7.49,0-3.31,1.83-5.08,4.84-5.91v-.65a4.41,4.41,0,0,1-2.72-4.25c0-3.07,2.19-4.54,5.25-5.31v-.23a9.91,9.91,0,0,1-5.72-9.33c0-6.2,4.54-10.51,11.45-10.51a13.61,13.61,0,0,1,5.78,1.19v-.54c0-2.36,1-4.07,3.54-4.07H219v4.13h-5.79v2a10.1,10.1,0,0,1,3.49,7.85c0,6.2-4.55,10.51-11.51,10.51a15.27,15.27,0,0,1-2.95-.3c-2,.53-4,1.54-4,3.42s1.89,2.31,4.67,2.31h6.49c7.55,0,10.8,3.06,10.8,8.08C220.16,162.21,215.2,165.1,205.4,165.1Zm4-12.81H199.27a4.26,4.26,0,0,0-2.84,4.13c0,2.66,1.83,4.84,6.61,4.84h4.37c5.25,0,8.32-1.65,8.32-4.95C215.73,153.89,214.14,152.29,209.42,152.29Zm2.3-19.53V131.1c0-4-2.54-5.9-6.55-5.9s-6.55,1.89-6.55,5.9v1.66c0,4,2.54,5.9,6.55,5.9S211.72,136.77,211.72,132.76Z"/><path class="cls-5" d="M225.12,112.34v-.77c0-1.59.89-2.66,2.89-2.66s2.9,1.07,2.9,2.66v.77c0,1.59-.89,2.65-2.9,2.65S225.12,113.93,225.12,112.34Zm.53,9.79h4.72v30.46h-4.72Z"/><path class="cls-5" d="M237.52,147.33l3.36-2.71c2.36,2.95,5.2,4.66,9,4.66,4,0,6.38-1.83,6.38-5,0-2.36-1.3-4.19-5.31-4.78l-2.42-.35c-5.61-.83-9.8-3.13-9.8-8.79,0-6,4.66-9,10.86-9a12.67,12.67,0,0,1,10.62,4.9l-3.13,2.84a9.38,9.38,0,0,0-7.85-3.72c-3.89,0-6,1.83-6,4.72s2.07,4.13,5.85,4.72l2.36.36c6.72,1,9.32,3.95,9.32,8.55,0,5.91-4.31,9.51-11.27,9.51A14.15,14.15,0,0,1,237.52,147.33Z"/><path class="cls-5" d="M275.47,152.59a4.65,4.65,0,0,1-5-5V126.26h-5v-4.13h2.83c2,0,2.66-.71,2.66-2.77v-5.67h4.25v8.44h6.67v4.13h-6.67v22.2h6.2v4.13Z"/><path class="cls-5" d="M287,137.36c0-9.68,5.42-15.94,13.69-15.94s13.16,6.26,13.16,14.88v2.24h-21.9V140c0,5.25,3.37,9.2,9,9.2a8.81,8.81,0,0,0,8.38-5.25l3.37,2.42c-2,4.13-6.32,7-12,7C292.41,153.3,287,147,287,137.36Zm4.95-2.77V135h16.82v-.65c0-5.37-3.24-9-8.08-9C295.54,125.38,291.94,129.27,291.94,134.59Z"/><path class="cls-5" d="M321.63,152.59V122.13h4.73v5.61h.29c1.06-2.89,3.84-5.61,8.8-5.61h1.83v4.72H334.5c-5.07,0-8.14,2.19-8.14,5.08v20.66Z"/><path class="cls-5" d="M105.64,174.17v12.76c0,3.92,1.26,6,4.93,6s4.93-2.07,4.93-6V174.17H118v12.17c0,6-2,8.79-7.5,8.79s-7.32-2.8-7.32-8.79V174.17Z"/><path class="cls-5" d="M121.63,192.15l1.68-1.36a5.54,5.54,0,0,0,4.52,2.34c2,0,3.19-.92,3.19-2.48,0-1.18-.65-2.1-2.66-2.39l-1.21-.18c-2.8-.42-4.9-1.57-4.9-4.4,0-3,2.33-4.49,5.43-4.49a6.37,6.37,0,0,1,5.32,2.45l-1.57,1.42a4.69,4.69,0,0,0-3.92-1.86c-2,0-3,.91-3,2.36s1,2.07,2.93,2.36l1.18.18c3.36.5,4.66,2,4.66,4.28,0,3-2.15,4.75-5.64,4.75A7.08,7.08,0,0,1,121.63,192.15Z"/><path class="cls-5" d="M136.33,187.16c0-4.84,2.72-8,6.85-8s6.58,3.13,6.58,7.44v1.12H138.81v.71a4.32,4.32,0,0,0,4.52,4.61,4.43,4.43,0,0,0,4.19-2.63l1.68,1.21a6.38,6.38,0,0,1-6,3.48C139.05,195.13,136.33,192,136.33,187.16Zm2.48-1.38v.2h8.41v-.32c0-2.69-1.62-4.49-4-4.49A4.33,4.33,0,0,0,138.81,185.78Z"/><path class="cls-5" d="M164,194.78a2.32,2.32,0,0,1-2.51-2.51V181.61H159v-2.06h1.41c1,0,1.33-.36,1.33-1.39v-2.83h2.13v4.22h3.33v2.06h-3.33v11.1h3.1v2.07Z"/><path class="cls-5" d="M171,172.93h2.36V182h.12a4.32,4.32,0,0,1,4.31-2.84c3.13,0,5.11,2.13,5.11,5.82v9.77h-2.37v-9.36c0-2.71-1.18-4.1-3.45-4.1-1.89,0-3.72.94-3.72,2.89v10.57H171Z"/><path class="cls-5" d="M186.62,187.16c0-4.84,2.72-8,6.85-8s6.58,3.13,6.58,7.44v1.12h-11v.71a4.32,4.32,0,0,0,4.52,4.61,4.42,4.42,0,0,0,4.19-2.63l1.68,1.21a6.38,6.38,0,0,1-6,3.48C189.34,195.13,186.62,192,186.62,187.16Zm2.48-1.38v.2h8.41v-.32c0-2.69-1.62-4.49-4-4.49A4.33,4.33,0,0,0,189.1,185.78Z"/><path class="cls-5" d="M213.42,194.78a2.31,2.31,0,0,1-2.51-2.45v-19.4h2.36v19.78h2.25v2.07Z"/><path class="cls-5" d="M218.67,174.65v-.39c0-.8.45-1.33,1.45-1.33s1.45.53,1.45,1.33v.39c0,.79-.45,1.32-1.45,1.32S218.67,175.44,218.67,174.65Zm.27,4.9h2.36v15.23h-2.36Z"/><path class="cls-5" d="M226.32,194.78V179.55h2.36V182h.12a4.32,4.32,0,0,1,4.31-2.84c3.13,0,5.11,2.13,5.11,5.82v9.77h-2.37v-9.36c0-2.71-1.18-4.1-3.45-4.1-1.89,0-3.72.94-3.72,2.89v10.57Z"/><path class="cls-5" d="M243.08,172.93h2.36v13.85h.12l2.33-2.6,4.31-4.63h2.87l-5.64,6,6.2,9.21h-2.87l-5-7.76-2.28,2.33v5.43h-2.36Z"/><path class="cls-5" d="M269,194.78a2.32,2.32,0,0,1-2.51-2.51V181.61H264v-2.06h1.42c1,0,1.32-.36,1.32-1.39v-2.83h2.13v4.22h3.33v2.06h-3.33v11.1h3.1v2.07Z"/><path class="cls-5" d="M274.72,187.16c0-4.84,2.81-8,6.88-8s6.88,3.13,6.88,8-2.81,8-6.88,8S274.72,192,274.72,187.16Zm11.22,1.1v-2.19c0-3.22-1.8-4.78-4.34-4.78s-4.34,1.56-4.34,4.78v2.19c0,3.21,1.8,4.78,4.34,4.78S285.94,191.47,285.94,188.26Z"/><path class="cls-5" d="M297.89,192.15l1.68-1.36a5.53,5.53,0,0,0,4.52,2.34c2,0,3.19-.92,3.19-2.48,0-1.18-.65-2.1-2.66-2.39l-1.21-.18c-2.8-.42-4.9-1.57-4.9-4.4,0-3,2.33-4.49,5.43-4.49a6.37,6.37,0,0,1,5.32,2.45l-1.57,1.42a4.69,4.69,0,0,0-3.93-1.86c-1.94,0-3,.91-3,2.36s1,2.07,2.93,2.36l1.18.18c3.36.5,4.66,2,4.66,4.28,0,3-2.15,4.75-5.64,4.75A7.08,7.08,0,0,1,297.89,192.15Z"/><path class="cls-5" d="M313.44,174.65v-.39c0-.8.45-1.33,1.45-1.33s1.45.53,1.45,1.33v.39c0,.79-.45,1.32-1.45,1.32S313.44,175.44,313.44,174.65Zm.27,4.9h2.36v15.23h-2.36Z"/><path class="cls-5" d="M326.55,201c-4.75,0-6.7-1.36-6.7-3.75a2.85,2.85,0,0,1,2.42-2.95V194a2.2,2.2,0,0,1-1.36-2.12c0-1.54,1.09-2.28,2.63-2.66v-.12a5,5,0,0,1-2.87-4.66c0-3.1,2.28-5.26,5.73-5.26a7,7,0,0,1,2.9.59v-.26c0-1.18.5-2,1.77-2h2.27v2.07h-2.89v1a5.08,5.08,0,0,1,1.74,3.93c0,3.1-2.28,5.25-5.76,5.25a7.62,7.62,0,0,1-1.47-.15c-1,.27-2,.77-2,1.72s.94,1.15,2.33,1.15h3.25c3.78,0,5.4,1.53,5.4,4C333.93,199.59,331.45,201,326.55,201Zm2-6.41h-5.08a2.13,2.13,0,0,0-1.42,2.07c0,1.33.92,2.42,3.31,2.42h2.18c2.63,0,4.17-.83,4.17-2.48C331.72,195.43,330.92,194.63,328.56,194.63Zm1.15-9.77V184c0-2-1.27-2.95-3.28-2.95s-3.28.95-3.28,2.95v.83c0,2,1.27,2.95,3.28,2.95S329.71,186.87,329.71,184.86Z"/><path class="cls-5" d="M336.67,194.78V179.55H339V182h.12a4.32,4.32,0,0,1,4.31-2.84c3.13,0,5.11,2.13,5.11,5.82v9.77h-2.36v-9.36c0-2.71-1.18-4.1-3.46-4.1-1.89,0-3.72.94-3.72,2.89v10.57Z"/><path class="cls-5" d="M133.91,227.72h-.12a4.24,4.24,0,0,1-4.28,2.83c-3.13,0-5.13-2.12-5.13-5.82V215h2.36v9.36c0,2.72,1.21,4.11,3.48,4.11,1.86,0,3.69-.92,3.69-2.93V215h2.36V230.2h-2.36Z"/><path class="cls-5" d="M141.29,215h2.36v2.48h.12a4.45,4.45,0,0,1,4.46-2.83c3.8,0,6.19,3.1,6.19,8s-2.39,8-6.19,8a4.58,4.58,0,0,1-4.46-2.83h-.12v8.38h-2.36Zm10.6,8.92v-2.6c0-2.71-1.66-4.54-4.31-4.54-2.16,0-3.93,1.23-3.93,2.92v5.67c0,2,1.77,3.1,3.93,3.1C150.23,228.43,151.89,226.6,151.89,223.88Z"/><path class="cls-5" d="M166.2,217h-2.48V215h2.48v-3.07c0-2.09,1.09-3.54,3.33-3.54h2.31v2.07h-3.28V215h3.28V217h-3.28V230.2H166.2Z"/><path class="cls-5" d="M173.69,222.58c0-4.84,2.81-8,6.88-8s6.88,3.13,6.88,8-2.8,8-6.88,8S173.69,227.42,173.69,222.58Zm11.22,1.09v-2.18c0-3.22-1.8-4.78-4.34-4.78s-4.34,1.56-4.34,4.78v2.18c0,3.22,1.8,4.78,4.34,4.78S184.91,226.89,184.91,223.67Z"/><path class="cls-5" d="M191.34,230.2V215h2.37v2.81h.14a4.38,4.38,0,0,1,4.4-2.81h.92v2.37h-1.39c-2.54,0-4.07,1.09-4.07,2.53V230.2Z"/><path class="cls-5" d="M220.21,230.2a2.47,2.47,0,0,1-2.63-2.48h-.14a4.31,4.31,0,0,1-4.4,2.83c-3.22,0-5.11-1.77-5.11-4.6s2.07-4.46,6.49-4.46h3V220c0-2.15-1.18-3.33-3.61-3.33a4.23,4.23,0,0,0-3.86,2.27l-1.42-1.33a5.8,5.8,0,0,1,5.4-3c3.66,0,5.85,1.92,5.85,5.14v8.38h1.74v2.07Zm-2.77-4.43v-2.51h-3.13c-2.69,0-3.9.83-3.9,2.3v.62c0,1.51,1.18,2.36,3,2.36C215.75,228.54,217.44,227.33,217.44,225.77Z"/><path class="cls-5" d="M230.42,227.57l1.68-1.36a5.52,5.52,0,0,0,4.52,2.33c2,0,3.19-.91,3.19-2.48,0-1.18-.65-2.09-2.66-2.39l-1.21-.17c-2.8-.42-4.9-1.57-4.9-4.4,0-3,2.33-4.49,5.43-4.49a6.34,6.34,0,0,1,5.32,2.45l-1.57,1.42a4.69,4.69,0,0,0-3.93-1.86c-1.94,0-3,.91-3,2.36s1,2.07,2.93,2.36l1.18.18c3.36.5,4.66,2,4.66,4.28,0,2.95-2.15,4.75-5.64,4.75A7.08,7.08,0,0,1,230.42,227.57Z"/><path class="cls-5" d="M245.12,222.58c0-4.84,2.71-8,6.85-8s6.58,3.13,6.58,7.44v1.12h-11v.71a4.31,4.31,0,0,0,4.51,4.6,4.43,4.43,0,0,0,4.2-2.62l1.68,1.21a6.41,6.41,0,0,1-6,3.48C247.83,230.55,245.12,227.42,245.12,222.58Zm2.48-1.39v.21H256v-.33c0-2.68-1.62-4.48-4-4.48A4.33,4.33,0,0,0,247.6,221.19Z"/><path class="cls-5" d="M262.44,230.2V215h2.36v2.48h.12a4.1,4.1,0,0,1,4.11-2.83,4.68,4.68,0,0,1,4.66,3.1h.06a4.57,4.57,0,0,1,4.63-3.1c3.1,0,5,2.13,5,5.82v9.77H281v-9.36c0-2.69-1-4.1-3.33-4.1-1.86,0-3.58.94-3.58,2.89V230.2h-2.36v-9.36c0-2.72-1-4.1-3.27-4.1-1.86,0-3.64.94-3.64,2.89V230.2Z"/><path class="cls-5" d="M287.94,210.06v-.38c0-.8.45-1.33,1.45-1.33s1.45.53,1.45,1.33v.38c0,.8-.45,1.33-1.45,1.33S287.94,210.86,287.94,210.06Zm.27,4.9h2.36V230.2h-2.36Z"/><path class="cls-5" d="M295.59,230.2V215H298v2.48h.12a4.31,4.31,0,0,1,4.31-2.83c3.13,0,5.1,2.13,5.1,5.82v9.77h-2.36v-9.36c0-2.72-1.18-4.1-3.45-4.1-1.89,0-3.72.94-3.72,2.89V230.2Z"/><path class="cls-5" d="M323.42,230.2a2.47,2.47,0,0,1-2.63-2.48h-.14a4.31,4.31,0,0,1-4.4,2.83c-3.22,0-5.11-1.77-5.11-4.6s2.07-4.46,6.5-4.46h3V220c0-2.15-1.18-3.33-3.6-3.33a4.25,4.25,0,0,0-3.87,2.27l-1.42-1.33a5.8,5.8,0,0,1,5.4-3c3.66,0,5.85,1.92,5.85,5.14v8.38h1.74v2.07Zm-2.77-4.43v-2.51h-3.13c-2.69,0-3.9.83-3.9,2.3v.62c0,1.51,1.18,2.36,3,2.36C319,228.54,320.65,227.33,320.65,225.77Z"/><path class="cls-5" d="M328.11,230.2V215h2.36v2.81h.15A4.38,4.38,0,0,1,335,215h.92v2.37h-1.39c-2.54,0-4.08,1.09-4.08,2.53V230.2Z"/><path class="cls-4" d="M627.77,385.8H489.86a16.66,16.66,0,0,0-14.44,8.33L406.47,513.56a16.66,16.66,0,0,0,0,16.67l68.95,119.44A16.68,16.68,0,0,0,489.86,658H627.77a16.68,16.68,0,0,0,14.43-8.33l69-119.44a16.66,16.66,0,0,0,0-16.67l-69-119.43A16.66,16.66,0,0,0,627.77,385.8Z"/><path class="cls-5" d="M502.26,502.71l-4-11.87H482l-4,11.87h-4.9l14.05-40.21h6.17l14.05,40.21Zm-12-35.72h-.29l-6.8,19.59H497Z"/><path class="cls-5" d="M519.9,502.71a4.54,4.54,0,0,1-4.9-4.9V477h-4.9v-4h2.77c2,0,2.59-.69,2.59-2.7v-5.53h4.15V473h6.51v4h-6.51v21.65h6v4Z"/><path class="cls-5" d="M539.6,502.71a4.54,4.54,0,0,1-4.9-4.9V477h-4.89v-4h2.76c2,0,2.59-.69,2.59-2.7v-5.53h4.15V473h6.51v4h-6.51v21.65h6.05v4Z"/><path class="cls-5" d="M550.83,487.85c0-9.45,5.3-15.56,13.37-15.56S577,478.4,577,486.81V489H555.67v1.38c0,5.13,3.28,9,8.81,9a8.61,8.61,0,0,0,8.18-5.13L576,496.6c-1.9,4-6.17,6.8-11.75,6.8C556.13,503.4,550.83,497.29,550.83,487.85Zm4.84-2.71v.4h16.42v-.63c0-5.24-3.17-8.76-7.89-8.76C559.19,476.15,555.67,480,555.67,485.14Z"/><path class="cls-5" d="M584.65,502.71V473h4.61v4.84h.23a8.42,8.42,0,0,1,8.41-5.53c6.1,0,10,4.15,10,11.35v19.07h-4.61V484.45c0-5.3-2.3-8-6.74-8-3.68,0-7.25,1.84-7.25,5.65v20.62Z"/><path class="cls-5" d="M636.38,497.87h-.23a9,9,0,0,1-8.7,5.53c-7.43,0-12.09-6-12.09-15.55s4.66-15.56,12.09-15.56c4.09,0,7.14,1.79,8.7,5.53h.23V460.08H641v42.63h-4.61Zm0-4.67V482.14c0-3.28-3.46-5.7-7.66-5.7-5.19,0-8.41,3.57-8.41,8.87v5.07c0,5.3,3.22,8.87,8.41,8.87C632.92,499.25,636.38,497.06,636.38,493.2Z"/><path class="cls-5" d="M477.47,543.67,476,539.22h-6.09l-1.51,4.45h-1.84l5.27-15.08h2.32l5.27,15.08ZM473,530.27h-.11l-2.55,7.35h5.21Z"/><path class="cls-5" d="M484.08,543.67a1.71,1.71,0,0,1-1.84-1.84V534H480.4v-1.51h1c.73,0,1-.26,1-1v-2.08H484v3.09h2.44V534H484v8.13h2.27v1.51Z"/><path class="cls-5" d="M491.46,543.67a1.7,1.7,0,0,1-1.83-1.84V534h-1.84v-1.51h1c.73,0,1-.26,1-1v-2.08h1.56v3.09h2.44V534h-2.44v8.13h2.26v1.51Z"/><path class="cls-5" d="M495.68,538.09c0-3.54,2-5.83,5-5.83s4.82,2.29,4.82,5.45v.82h-8V539a3.15,3.15,0,0,0,3.31,3.37,3.22,3.22,0,0,0,3.06-1.92l1.24.89a4.7,4.7,0,0,1-4.41,2.55C497.67,543.93,495.68,541.64,495.68,538.09Zm1.81-1v.15h6.16V537a3,3,0,0,0-3-3.28A3.17,3.17,0,0,0,497.49,537.08Z"/><path class="cls-5" d="M508.36,543.67V532.52h1.73v1.82h.08a3.16,3.16,0,0,1,3.16-2.08c2.29,0,3.73,1.56,3.73,4.26v7.15h-1.72v-6.85c0-2-.87-3-2.53-3-1.38,0-2.72.69-2.72,2.11v7.74Z"/><path class="cls-5" d="M527.76,541.85h-.09a3.36,3.36,0,0,1-3.26,2.08c-2.79,0-4.54-2.27-4.54-5.84s1.75-5.83,4.54-5.83a3.25,3.25,0,0,1,3.26,2.08h.09v-6.66h1.73v16h-1.73Zm0-1.75V536c0-1.24-1.3-2.14-2.87-2.14a3,3,0,0,0-3.16,3.32V539a3,3,0,0,0,3.16,3.33C526.46,542.37,527.76,541.55,527.76,540.1Z"/><path class="cls-5" d="M540.72,543.67a1.71,1.71,0,0,1-1.84-1.84V534h-1.83v-1.51h1c.74,0,1-.26,1-1v-2.08h1.55v3.09h2.44V534h-2.44v8.13h2.27v1.51Z"/><path class="cls-5" d="M545.84,527.68h1.73v6.66h.08a3.16,3.16,0,0,1,3.16-2.08c2.29,0,3.74,1.56,3.74,4.26v7.15h-1.73v-6.85c0-2-.87-3-2.53-3-1.38,0-2.72.69-2.72,2.11v7.74h-1.73Z"/><path class="cls-5" d="M557.29,538.09c0-3.54,2-5.83,5-5.83s4.82,2.29,4.82,5.45v.82h-8V539a3.16,3.16,0,0,0,3.31,3.37,3.24,3.24,0,0,0,3.07-1.92l1.23.89a4.68,4.68,0,0,1-4.41,2.55C559.28,543.93,557.29,541.64,557.29,538.09Zm1.81-1v.15h6.16V537a3,3,0,0,0-3-3.28A3.17,3.17,0,0,0,559.1,537.08Z"/><path class="cls-5" d="M574,541.74l1.23-1a4.06,4.06,0,0,0,3.31,1.71c1.47,0,2.33-.67,2.33-1.82,0-.86-.48-1.53-1.94-1.75l-.89-.13c-2-.3-3.59-1.14-3.59-3.21s1.71-3.29,4-3.29a4.66,4.66,0,0,1,3.89,1.79l-1.15,1a3.42,3.42,0,0,0-2.87-1.36c-1.43,0-2.18.67-2.18,1.73s.75,1.51,2.14,1.73l.86.13c2.46.36,3.41,1.44,3.41,3.13,0,2.16-1.57,3.48-4.12,3.48A5.18,5.18,0,0,1,574,541.74Z"/><path class="cls-5" d="M584.77,538.09c0-3.54,2-5.83,5-5.83s4.82,2.29,4.82,5.45v.82h-8V539a3.15,3.15,0,0,0,3.31,3.37,3.24,3.24,0,0,0,3.07-1.92l1.23.89a4.69,4.69,0,0,1-4.41,2.55C586.76,543.93,584.77,541.64,584.77,538.09Zm1.81-1v.15h6.16V537a3,3,0,0,0-3-3.28A3.17,3.17,0,0,0,586.58,537.08Z"/><path class="cls-5" d="M597.45,543.67V532.52h1.73v1.82h.08a3,3,0,0,1,3-2.08,3.42,3.42,0,0,1,3.41,2.27h0a3.36,3.36,0,0,1,3.4-2.27c2.26,0,3.63,1.56,3.63,4.26v7.15H611v-6.85c0-2-.76-3-2.44-3-1.36,0-2.62.69-2.62,2.11v7.74h-1.73v-6.85c0-2-.75-3-2.39-3-1.36,0-2.66.69-2.66,2.11v7.74Z"/><path class="cls-5" d="M616.12,528.93v-.28c0-.58.32-1,1-1s1.06.39,1.06,1v.28c0,.59-.32,1-1.06,1S616.12,529.52,616.12,528.93Zm.19,3.59H618v11.15h-1.73Z"/><path class="cls-5" d="M621.71,543.67V532.52h1.73v1.82h.08a3.17,3.17,0,0,1,3.16-2.08c2.29,0,3.74,1.56,3.74,4.26v7.15h-1.73v-6.85c0-2-.87-3-2.53-3-1.38,0-2.72.69-2.72,2.11v7.74Z"/><path class="cls-5" d="M642.08,543.67a1.8,1.8,0,0,1-1.92-1.82h-.11a3.15,3.15,0,0,1-3.22,2.08c-2.35,0-3.73-1.3-3.73-3.37s1.51-3.27,4.75-3.27h2.2v-1.1c0-1.57-.86-2.44-2.63-2.44a3.1,3.1,0,0,0-2.83,1.67l-1-1a4.24,4.24,0,0,1,4-2.18c2.68,0,4.28,1.41,4.28,3.76v6.14h1.27v1.51Zm-2-3.24v-1.84h-2.29c-2,0-2.85.61-2.85,1.69v.45c0,1.1.87,1.73,2.2,1.73C638.82,542.46,640.05,541.57,640.05,540.43Z"/><path class="cls-5" d="M645.52,543.67V532.52h1.73v2.05h.1a3.21,3.21,0,0,1,3.22-2.05h.67v1.73h-1c-1.86,0-3,.8-3,1.86v7.56Z"/><path class="cls-5" d="M461.15,569.59V554.51H463V568h6.42v1.6Z"/><path class="cls-5" d="M470.77,564c0-3.55,2-5.83,5-5.83s4.82,2.28,4.82,5.44v.82h-8V565a3.16,3.16,0,0,0,3.31,3.37,3.24,3.24,0,0,0,3.07-1.92l1.23.88a4.69,4.69,0,0,1-4.41,2.55C472.76,569.85,470.77,567.56,470.77,564Zm1.81-1v.15h6.16v-.23a3,3,0,0,0-3-3.29A3.17,3.17,0,0,0,472.58,563Z"/><path class="cls-5" d="M491.55,569.59a1.8,1.8,0,0,1-1.92-1.81h-.11a3.15,3.15,0,0,1-3.22,2.07c-2.35,0-3.74-1.29-3.74-3.37s1.52-3.26,4.76-3.26h2.2v-1.1c0-1.58-.86-2.44-2.64-2.44a3.12,3.12,0,0,0-2.83,1.66l-1-1a4.22,4.22,0,0,1,4-2.18c2.68,0,4.28,1.4,4.28,3.75v6.14h1.27v1.51Zm-2-3.24v-1.83h-2.29c-2,0-2.85.6-2.85,1.68v.45c0,1.1.86,1.73,2.2,1.73C488.29,568.38,489.52,567.5,489.52,566.35Z"/><path class="cls-5" d="M495,569.59V558.45h1.72v2h.11a3.21,3.21,0,0,1,3.22-2h.67v1.72h-1c-1.86,0-3,.8-3,1.86v7.56Z"/><path class="cls-5" d="M502.91,569.59V558.45h1.73v1.81h.09a3.16,3.16,0,0,1,3.15-2.07c2.29,0,3.74,1.55,3.74,4.25v7.15h-1.73v-6.85c0-2-.86-3-2.53-3-1.38,0-2.72.69-2.72,2.12v7.73Z"/><path class="cls-5" d="M528.38,569.59a1.8,1.8,0,0,1-1.92-1.81h-.11a3.14,3.14,0,0,1-3.22,2.07c-2.35,0-3.73-1.29-3.73-3.37s1.51-3.26,4.75-3.26h2.2v-1.1c0-1.58-.86-2.44-2.63-2.44a3.09,3.09,0,0,0-2.83,1.66l-1-1a4.23,4.23,0,0,1,3.95-2.18c2.68,0,4.28,1.4,4.28,3.75v6.14h1.28v1.51Zm-2-3.24v-1.83h-2.29c-2,0-2.85.6-2.85,1.68v.45c0,1.1.87,1.73,2.2,1.73C525.12,568.38,526.35,567.5,526.35,566.35Z"/><path class="cls-5" d="M531.82,553.61h1.73v6.65h.08a3.26,3.26,0,0,1,3.27-2.07c2.78,0,4.53,2.26,4.53,5.83s-1.75,5.83-4.53,5.83a3.37,3.37,0,0,1-3.27-2.07h-.08v1.81h-1.73ZM539.57,565v-1.9a3,3,0,0,0-3.15-3.33c-1.58,0-2.87.91-2.87,2.14V566c0,1.45,1.29,2.27,2.87,2.27A3,3,0,0,0,539.57,565Z"/><path class="cls-5" d="M543.53,564c0-3.55,2.05-5.83,5-5.83s5,2.28,5,5.83-2.05,5.83-5,5.83S543.53,567.56,543.53,564Zm8.21.8v-1.6c0-2.36-1.32-3.5-3.18-3.5s-3.17,1.14-3.17,3.5v1.6c0,2.35,1.31,3.5,3.17,3.5S551.74,567.17,551.74,564.82Z"/><path class="cls-5" d="M563.32,567.78h-.09a3.1,3.1,0,0,1-3.13,2.07c-2.29,0-3.76-1.55-3.76-4.25v-7.15h1.73v6.84c0,2,.88,3,2.55,3,1.36,0,2.7-.67,2.7-2.14v-7.71H565v11.14h-1.72Z"/><path class="cls-5" d="M571.18,569.59a1.7,1.7,0,0,1-1.84-1.84V560h-1.83v-1.51h1c.74,0,1-.26,1-1v-2.07h1.55v3.09h2.44V560h-2.44v8.12h2.27v1.51Z"/><path class="cls-5" d="M581.4,569.59V558.45h1.73v2h.1a3.21,3.21,0,0,1,3.22-2h.67v1.72h-1c-1.86,0-3,.8-3,1.86v7.56Z"/><path class="cls-5" d="M588.4,564c0-3.55,2.05-5.83,5-5.83s5,2.28,5,5.83-2.06,5.83-5,5.83S588.4,567.56,588.4,564Zm8.21.8v-1.6c0-2.36-1.32-3.5-3.18-3.5s-3.17,1.14-3.17,3.5v1.6c0,2.35,1.31,3.5,3.17,3.5S596.61,567.17,596.61,564.82Z"/><path class="cls-5" d="M601.32,553.61H603v6.65h.09a3.24,3.24,0,0,1,3.26-2.07c2.79,0,4.54,2.26,4.54,5.83s-1.75,5.83-4.54,5.83a3.36,3.36,0,0,1-3.26-2.07H603v1.81h-1.72ZM609.07,565v-1.9a3,3,0,0,0-3.15-3.33c-1.58,0-2.88.91-2.88,2.14V566c0,1.45,1.3,2.27,2.88,2.27A3,3,0,0,0,609.07,565Z"/><path class="cls-5" d="M613,564c0-3.55,2.05-5.83,5-5.83s5,2.28,5,5.83-2.05,5.83-5,5.83S613,567.56,613,564Zm8.2.8v-1.6c0-2.36-1.31-3.5-3.17-3.5s-3.18,1.14-3.18,3.5v1.6c0,2.35,1.32,3.5,3.18,3.5S621.23,567.17,621.23,564.82Z"/><path class="cls-5" d="M628.41,569.59a1.7,1.7,0,0,1-1.84-1.84V560h-1.84v-1.51h1c.74,0,1-.26,1-1v-2.07h1.56v3.09h2.44V560H628.3v8.12h2.27v1.51Z"/><path class="cls-5" d="M633.33,554.86v-.28c0-.58.33-1,1.06-1s1.06.39,1.06,1v.28c0,.58-.32,1-1.06,1S633.33,555.44,633.33,554.86Zm.2,3.59h1.73v11.14h-1.73Z"/><path class="cls-5" d="M638.11,564c0-3.57,1.83-5.83,5-5.83a4.16,4.16,0,0,1,4.16,2.61l-1.44.73a2.69,2.69,0,0,0-2.72-1.81c-2.06,0-3.12,1.4-3.12,3.35V565c0,1.94,1.06,3.35,3.12,3.35a3.14,3.14,0,0,0,3-2l1.25.84a4.39,4.39,0,0,1-4.27,2.64C639.94,569.85,638.11,567.58,638.11,564Z"/><path class="cls-5" d="M648.74,567.67l1.23-1a4,4,0,0,0,3.3,1.71c1.47,0,2.33-.67,2.33-1.81,0-.87-.47-1.54-1.94-1.75l-.88-.13c-2.06-.31-3.59-1.15-3.59-3.22s1.71-3.28,4-3.28a4.61,4.61,0,0,1,3.89,1.79l-1.14,1a3.42,3.42,0,0,0-2.87-1.36c-1.43,0-2.19.66-2.19,1.72s.76,1.52,2.14,1.73l.87.13c2.46.37,3.41,1.45,3.41,3.13,0,2.16-1.58,3.48-4.13,3.48A5.16,5.16,0,0,1,648.74,567.67Z"/><path class="cls-5" d="M466.48,588.69h-7.63v6.83H457V580.44h1.81v6.65h7.63v-6.65h1.81v15.08h-1.81Z"/><path class="cls-5" d="M471.32,589.94c0-3.54,2-5.83,5-5.83s4.82,2.29,4.82,5.44v.82h-8v.52a3.16,3.16,0,0,0,3.31,3.37,3.24,3.24,0,0,0,3.07-1.92l1.23.89a4.68,4.68,0,0,1-4.41,2.54C473.31,595.77,471.32,593.49,471.32,589.94Zm1.81-1v.15h6.16v-.24a3,3,0,0,0-3-3.28A3.17,3.17,0,0,0,473.13,588.93Z"/><path class="cls-5" d="M485.84,595.52a1.7,1.7,0,0,1-1.84-1.8V579.53h1.73V594h1.64v1.52Z"/><path class="cls-5" d="M489.88,584.37h1.72v1.81h.09a3.26,3.26,0,0,1,3.26-2.07c2.79,0,4.54,2.27,4.54,5.83s-1.75,5.83-4.54,5.83a3.36,3.36,0,0,1-3.26-2.07h-.09v6.14h-1.72Zm7.75,6.52V589a3,3,0,0,0-3.15-3.32c-1.58,0-2.88.9-2.88,2.13V592c0,1.45,1.3,2.27,2.88,2.27A3,3,0,0,0,497.63,590.89Z"/><path class="cls-5" d="M514.37,584.37h1.71l-5,13.74c-.5,1.34-.95,1.73-2.59,1.73h-.89v-1.52h1.75l.84-2.37L506,584.37h1.73l2.68,7.58.52,1.82h.11l.6-1.82Z"/><path class="cls-5" d="M517.36,589.94c0-3.54,2-5.83,5-5.83s5,2.29,5,5.83-2,5.83-5,5.83S517.36,593.49,517.36,589.94Zm8.2.8v-1.6c0-2.35-1.31-3.5-3.17-3.5s-3.18,1.15-3.18,3.5v1.6c0,2.36,1.32,3.5,3.18,3.5S525.56,593.1,525.56,590.74Z"/><path class="cls-5" d="M537.14,593.7h-.08a3.1,3.1,0,0,1-3.13,2.07c-2.29,0-3.76-1.55-3.76-4.25v-7.15h1.72v6.85c0,2,.89,3,2.55,3,1.36,0,2.7-.67,2.7-2.14v-7.71h1.73v11.15h-1.73Z"/><path class="cls-5" d="M542.55,595.52V584.37h1.72v2h.11a3.21,3.21,0,0,1,3.22-2h.67v1.73h-1c-1.85,0-3,.8-3,1.85v7.57Z"/><path class="cls-5" d="M554.75,589.94c0-3.56,1.84-5.83,5-5.83a4.19,4.19,0,0,1,4.17,2.61l-1.45.74a2.68,2.68,0,0,0-2.72-1.82c-2.05,0-3.11,1.41-3.11,3.35v1.9c0,2,1.06,3.35,3.11,3.35a3.14,3.14,0,0,0,3-1.94l1.26.84a4.4,4.4,0,0,1-4.28,2.63C556.59,595.77,554.75,593.51,554.75,589.94Z"/><path class="cls-5" d="M565.49,589.94c0-3.54,2-5.83,5-5.83s5,2.29,5,5.83-2,5.83-5,5.83S565.49,593.49,565.49,589.94Zm8.21.8v-1.6c0-2.35-1.32-3.5-3.18-3.5s-3.17,1.15-3.17,3.5v1.6c0,2.36,1.31,3.5,3.17,3.5S573.7,593.1,573.7,590.74Z"/><path class="cls-5" d="M578.41,595.52V584.37h1.72v1.81h.09a3,3,0,0,1,3-2.07,3.44,3.44,0,0,1,3.42,2.27h0a3.34,3.34,0,0,1,3.39-2.27c2.27,0,3.63,1.56,3.63,4.26v7.15H592v-6.85c0-2-.75-3-2.44-3-1.36,0-2.61.69-2.61,2.11v7.74h-1.73v-6.85c0-2-.76-3-2.4-3-1.36,0-2.66.69-2.66,2.11v7.74Z"/><path class="cls-5" d="M597.27,595.52V584.37H599v1.81h.09a3,3,0,0,1,3-2.07,3.44,3.44,0,0,1,3.42,2.27h0a3.34,3.34,0,0,1,3.39-2.27c2.27,0,3.63,1.56,3.63,4.26v7.15h-1.73v-6.85c0-2-.75-3-2.44-3-1.36,0-2.61.69-2.61,2.11v7.74h-1.73v-6.85c0-2-.76-3-2.4-3-1.36,0-2.66.69-2.66,2.11v7.74Z"/><path class="cls-5" d="M623,593.7h-.08a3.1,3.1,0,0,1-3.13,2.07c-2.29,0-3.76-1.55-3.76-4.25v-7.15h1.73v6.85c0,2,.88,3,2.54,3,1.37,0,2.7-.67,2.7-2.14v-7.71h1.73v11.15H623Z"/><path class="cls-5" d="M628.4,595.52V584.37h1.72v1.81h.09a3.16,3.16,0,0,1,3.15-2.07c2.29,0,3.74,1.56,3.74,4.26v7.15h-1.73v-6.85c0-2-.86-3-2.52-3-1.39,0-2.73.69-2.73,2.11v7.74Z"/><path class="cls-5" d="M640.47,580.78v-.28c0-.58.33-1,1.06-1s1.06.39,1.06,1v.28c0,.59-.33,1-1.06,1S640.47,581.37,640.47,580.78Zm.2,3.59h1.73v11.15h-1.73Z"/><path class="cls-5" d="M648.53,595.52a1.71,1.71,0,0,1-1.84-1.84v-7.8h-1.83v-1.51h1c.74,0,1-.26,1-1v-2.07h1.55v3.09h2.44v1.51h-2.44V594h2.27v1.52Z"/><path class="cls-5" d="M660.52,584.37h1.71l-5,13.74c-.5,1.34-1,1.73-2.6,1.73h-.88v-1.52h1.75l.84-2.37-4.17-11.58h1.73l2.68,7.58.52,1.82h.11l.6-1.82Z"/><path class="cls-4" d="M294.87,693H153.5a16.67,16.67,0,0,0-14.43,8.33L68.38,823.76a16.71,16.71,0,0,0,0,16.67l70.69,122.42a16.66,16.66,0,0,0,14.43,8.34H294.87a16.67,16.67,0,0,0,14.43-8.34L380,840.43a16.66,16.66,0,0,0,0-16.67L309.3,701.33A16.68,16.68,0,0,0,294.87,693Z"/><path class="cls-5" d="M135.37,771.19H142l11.78,22.13H154l11.83-22.13h6.36v41.09h-4.83V777.66h-.29l-3.47,6.89-9.83,17.9L144,784.55l-3.48-6.89h-.29v34.62h-4.83Z"/><path class="cls-5" d="M180.47,797.09c0-9.66,5.41-15.9,13.66-15.9s13.12,6.24,13.12,14.84v2.24H185.41v1.41c0,5.24,3.36,9.18,9,9.18a8.8,8.8,0,0,0,8.36-5.24l3.35,2.42c-1.94,4.12-6.3,6.94-12,6.94C185.88,813,180.47,806.74,180.47,797.09Zm4.94-2.77v.41h16.78v-.64c0-5.36-3.24-9-8.06-9C189,785.14,185.41,789,185.41,794.32Z"/><path class="cls-5" d="M215,812.28V781.9h4.71v5H220a8.61,8.61,0,0,1,8.6-5.66c6.24,0,10.18,4.24,10.18,11.6v19.49H234V793.62c0-5.42-2.35-8.19-6.89-8.19-3.76,0-7.41,1.89-7.41,5.77v21.08Z"/><path class="cls-5" d="M255.18,812.28a4.64,4.64,0,0,1-5-5V786h-5V781.9H248c2,0,2.65-.71,2.65-2.77v-5.65h4.24v8.42h6.65V786h-6.65v22.14h6.18v4.12Z"/><path class="cls-5" d="M266.66,797.09c0-9.66,5.59-15.9,13.72-15.9s13.71,6.24,13.71,15.9S288.5,813,280.38,813,266.66,806.74,266.66,797.09ZM289,799.27v-4.36c0-6.42-3.59-9.54-8.65-9.54s-8.66,3.12-8.66,9.54v4.36c0,6.41,3.59,9.53,8.66,9.53S289,805.68,289,799.27Z"/><path class="cls-5" d="M301.87,812.28V781.9h4.71v5.59h.29c1.06-2.88,3.83-5.59,8.77-5.59h1.83v4.71H314.7c-5.06,0-8.12,2.18-8.12,5.06v20.61Z"/><path class="cls-5" d="M108.16,836v11.45c0,3.53,1.14,5.38,4.42,5.38S117,851,117,847.43V836h2.22V846.9c0,5.38-1.8,7.9-6.73,7.9s-6.57-2.52-6.57-7.9V836Z"/><path class="cls-5" d="M122.51,852.12,124,850.9a4.94,4.94,0,0,0,4.05,2.1c1.8,0,2.86-.83,2.86-2.23,0-1.06-.58-1.88-2.38-2.15l-1.09-.16c-2.52-.37-4.4-1.4-4.4-3.94,0-2.71,2.1-4,4.88-4a5.7,5.7,0,0,1,4.77,2.2L131.31,844a4.2,4.2,0,0,0-3.52-1.67c-1.75,0-2.68.82-2.68,2.12s.93,1.85,2.63,2.12l1.06.16c3,.45,4.18,1.77,4.18,3.84,0,2.65-1.93,4.27-5.06,4.27A6.35,6.35,0,0,1,122.51,852.12Z"/><path class="cls-5" d="M135.71,847.64c0-4.34,2.44-7.15,6.15-7.15s5.91,2.81,5.91,6.68v1h-9.83v.64a3.87,3.87,0,0,0,4.05,4.13,3.94,3.94,0,0,0,3.76-2.36l1.51,1.09a5.72,5.72,0,0,1-5.4,3.13C138.15,854.8,135.71,852,135.71,847.64Zm2.23-1.24v.18h7.55v-.29c0-2.41-1.46-4-3.63-4A3.88,3.88,0,0,0,137.94,846.4Z"/><path class="cls-5" d="M160.53,854.48a2.09,2.09,0,0,1-2.25-2.25v-9.57H156V840.8h1.27c.9,0,1.19-.31,1.19-1.24V837h1.91v3.78h3v1.86h-3v10h2.78v1.86Z"/><path class="cls-5" d="M166.81,834.87h2.12V843H169a3.87,3.87,0,0,1,3.87-2.54c2.81,0,4.58,1.9,4.58,5.22v8.77h-2.12v-8.4c0-2.44-1.06-3.69-3.1-3.69-1.69,0-3.34.85-3.34,2.6v9.49h-2.12Z"/><path class="cls-5" d="M180.85,847.64c0-4.34,2.44-7.15,6.15-7.15s5.91,2.81,5.91,6.68v1h-9.83v.64a3.87,3.87,0,0,0,4.06,4.13,4,4,0,0,0,3.76-2.36l1.51,1.09A5.74,5.74,0,0,1,187,854.8C183.29,854.8,180.85,852,180.85,847.64Zm2.23-1.24v.18h7.55v-.29c0-2.41-1.45-4-3.63-4A3.89,3.89,0,0,0,183.08,846.4Z"/><path class="cls-5" d="M201.36,852.12l1.51-1.22a5,5,0,0,0,4.06,2.1c1.8,0,2.86-.83,2.86-2.23,0-1.06-.58-1.88-2.39-2.15l-1.08-.16c-2.52-.37-4.4-1.4-4.4-3.94,0-2.71,2.09-4,4.87-4a5.68,5.68,0,0,1,4.77,2.2l-1.4,1.27a4.22,4.22,0,0,0-3.53-1.67c-1.75,0-2.67.82-2.67,2.12s.92,1.85,2.62,2.12l1.06.16c3,.45,4.19,1.77,4.19,3.84,0,2.65-1.94,4.27-5.06,4.27A6.35,6.35,0,0,1,201.36,852.12Z"/><path class="cls-5" d="M215.56,834.87h2.12V847.3h.11l2.09-2.33,3.87-4.17h2.57l-5.06,5.41,5.56,8.27h-2.57l-4.53-7-2,2.09v4.88h-2.12Z"/><path class="cls-5" d="M229.28,836.41v-.35c0-.71.4-1.19,1.3-1.19s1.3.48,1.3,1.19v.35c0,.71-.4,1.19-1.3,1.19S229.28,837.12,229.28,836.41Zm.24,4.39h2.12v13.68h-2.12Z"/><path class="cls-5" d="M238.4,854.48a2.07,2.07,0,0,1-2.25-2.2V834.87h2.12v17.75h2v1.86Z"/><path class="cls-5" d="M245.47,854.48a2.08,2.08,0,0,1-2.25-2.2V834.87h2.12v17.75h2v1.86Z"/><path class="cls-5" d="M249.13,852.12l1.51-1.22a5,5,0,0,0,4.05,2.1c1.81,0,2.87-.83,2.87-2.23,0-1.06-.59-1.88-2.39-2.15l-1.09-.16c-2.51-.37-4.4-1.4-4.4-3.94,0-2.71,2.1-4,4.88-4a5.68,5.68,0,0,1,4.77,2.2l-1.4,1.27a4.22,4.22,0,0,0-3.53-1.67c-1.75,0-2.68.82-2.68,2.12s.93,1.85,2.63,2.12l1.06.16c3,.45,4.19,1.77,4.19,3.84,0,2.65-1.94,4.27-5.07,4.27A6.35,6.35,0,0,1,249.13,852.12Z"/><path class="cls-5" d="M278,840.8h2.09L274,857.66c-.61,1.64-1.17,2.12-3.18,2.12h-1.09v-1.85h2.15l1-2.92-5.11-14.21h2.12l3.28,9.31.64,2.22H274l.75-2.22Z"/><path class="cls-5" d="M281.66,847.64c0-4.34,2.52-7.15,6.18-7.15s6.17,2.81,6.17,7.15-2.52,7.16-6.17,7.16S281.66,852,281.66,847.64Zm10.07,1v-2c0-2.89-1.61-4.29-3.89-4.29s-3.9,1.4-3.9,4.29v2c0,2.89,1.62,4.3,3.9,4.3S291.73,851.51,291.73,848.62Z"/><path class="cls-5" d="M305.93,852.25h-.1A3.81,3.81,0,0,1,302,854.8c-2.8,0-4.61-1.91-4.61-5.22V840.8h2.12v8.41c0,2.43,1.09,3.68,3.13,3.68,1.67,0,3.31-.82,3.31-2.62V840.8h2.12v13.68h-2.12Z"/><path class="cls-5" d="M315.92,836.17v.37a6.83,6.83,0,0,1-2.41,4.69h-1.78a6.86,6.86,0,0,0,2-3.29,1.28,1.28,0,0,1-1-1.4v-.37a1.62,1.62,0,0,1,3.23,0Z"/><path class="cls-5" d="M322.68,854.48l-4.8-13.68H320l2.38,6.79,1.49,4.66H324l1.48-4.66,2.44-6.79h2l-4.82,13.68Z"/><path class="cls-5" d="M331.47,847.64c0-4.34,2.44-7.15,6.15-7.15s5.91,2.81,5.91,6.68v1H333.7v.64a3.87,3.87,0,0,0,4.05,4.13,3.94,3.94,0,0,0,3.76-2.36l1.51,1.09a5.72,5.72,0,0,1-5.4,3.13C333.91,854.8,331.47,852,331.47,847.64Zm2.23-1.24v.18h7.55v-.29c0-2.41-1.46-4-3.63-4A3.88,3.88,0,0,0,333.7,846.4Z"/><path class="cls-5" d="M106.45,886.27a2.07,2.07,0,0,1-2.25-2.2V866.66h2.12v17.76h2v1.85Z"/><path class="cls-5" d="M110.39,879.43c0-4.34,2.44-7.15,6.15-7.15s5.91,2.81,5.91,6.68v1h-9.83v.64a3.88,3.88,0,0,0,4.06,4.14,4,4,0,0,0,3.76-2.36l1.51,1.08a5.74,5.74,0,0,1-5.41,3.13C112.83,886.59,110.39,883.78,110.39,879.43Zm2.23-1.24v.19h7.55v-.3c0-2.41-1.45-4-3.63-4A3.89,3.89,0,0,0,112.62,878.19Z"/><path class="cls-5" d="M135.89,886.27a2.2,2.2,0,0,1-2.36-2.22h-.14a3.86,3.86,0,0,1-3.95,2.54c-2.88,0-4.58-1.59-4.58-4.13s1.85-4,5.83-4h2.7V877.1c0-1.93-1.06-3-3.23-3a3.81,3.81,0,0,0-3.47,2L125.42,875a5.19,5.19,0,0,1,4.85-2.68c3.28,0,5.24,1.72,5.24,4.61v7.53h1.57v1.85Zm-2.5-4V880h-2.81c-2.41,0-3.49.75-3.49,2.07v.56c0,1.35,1.06,2.12,2.7,2.12C131.88,884.79,133.39,883.7,133.39,882.3Z"/><path class="cls-5" d="M140.09,886.27V872.6h2.12v2.52h.14a3.92,3.92,0,0,1,4-2.52h.82v2.12h-1.25c-2.28,0-3.66,1-3.66,2.28v9.27Z"/><path class="cls-5" d="M149.82,886.27V872.6h2.12v2.22h.1a3.89,3.89,0,0,1,3.87-2.54c2.81,0,4.59,1.91,4.59,5.22v8.77h-2.12v-8.4c0-2.44-1.06-3.68-3.1-3.68-1.7,0-3.34.84-3.34,2.59v9.49Z"/><path class="cls-5" d="M163.86,879.43c0-4.34,2.44-7.15,6.15-7.15s5.91,2.81,5.91,6.68v1h-9.84v.64a3.88,3.88,0,0,0,4.06,4.14,4,4,0,0,0,3.76-2.36l1.51,1.08a5.72,5.72,0,0,1-5.4,3.13C166.3,886.59,163.86,883.78,163.86,879.43Zm2.22-1.24v.19h7.56v-.3c0-2.41-1.46-4-3.63-4A3.89,3.89,0,0,0,166.08,878.19Z"/><path class="cls-5" d="M188.16,884.05h-.11a4.13,4.13,0,0,1-4,2.54c-3.42,0-5.57-2.78-5.57-7.16s2.15-7.15,5.57-7.15a4,4,0,0,1,4,2.54h.11v-8.16h2.12v19.61h-2.12Zm0-2.15v-5.09c0-1.51-1.59-2.62-3.53-2.62a3.73,3.73,0,0,0-3.87,4.08v2.33a3.73,3.73,0,0,0,3.87,4.08C186.57,884.68,188.16,883.67,188.16,881.9Z"/><path class="cls-5" d="M204.05,886.27A2.08,2.08,0,0,1,201.8,884v-9.57h-2.26V872.6h1.28c.9,0,1.19-.32,1.19-1.25v-2.54h1.91v3.79h3v1.85h-3v10h2.78v1.85Z"/><path class="cls-5" d="M209.22,879.43c0-4.34,2.51-7.15,6.17-7.15s6.18,2.81,6.18,7.15-2.52,7.16-6.18,7.16S209.22,883.78,209.22,879.43Zm10.07,1v-2c0-2.88-1.62-4.29-3.9-4.29s-3.9,1.41-3.9,4.29v2c0,2.89,1.62,4.3,3.9,4.3S219.29,883.3,219.29,880.41Z"/><path class="cls-5" d="M231.31,866.66h2.12v8.16h.11a3.88,3.88,0,0,1,3.87-2.54c2.81,0,4.58,1.91,4.58,5.22v8.77h-2.12v-8.4c0-2.44-1.06-3.68-3.1-3.68-1.69,0-3.34.84-3.34,2.59v9.49h-2.12Z"/><path class="cls-5" d="M245.35,879.43c0-4.34,2.44-7.15,6.15-7.15s5.91,2.81,5.91,6.68v1h-9.83v.64a3.88,3.88,0,0,0,4,4.14,4,4,0,0,0,3.77-2.36l1.51,1.08a5.74,5.74,0,0,1-5.41,3.13C247.79,886.59,245.35,883.78,245.35,879.43Zm2.23-1.24v.19h7.55v-.3c0-2.41-1.46-4-3.63-4A3.88,3.88,0,0,0,247.58,878.19Z"/><path class="cls-5" d="M263.16,886.27a2.07,2.07,0,0,1-2.25-2.2V866.66H263v17.76h2v1.85Z"/><path class="cls-5" d="M268.11,872.6h2.12v2.22h.11a4,4,0,0,1,4-2.54c3.42,0,5.56,2.78,5.56,7.15s-2.14,7.16-5.56,7.16a4.13,4.13,0,0,1-4-2.54h-.11v7.52h-2.12Zm9.51,8v-2.33c0-2.44-1.48-4.08-3.86-4.08-1.94,0-3.53,1.11-3.53,2.62v5.09c0,1.77,1.59,2.78,3.53,2.78C276.14,884.68,277.62,883,277.62,880.6Z"/><path class="cls-5" d="M298.16,872.6h2.09l-6.12,16.85c-.61,1.65-1.17,2.12-3.18,2.12h-1.09v-1.85H292l1-2.92-5.11-14.2h2.12l3.28,9.3.64,2.23h.13l.74-2.23Z"/><path class="cls-5" d="M301.81,879.43c0-4.34,2.52-7.15,6.18-7.15s6.17,2.81,6.17,7.15-2.52,7.16-6.17,7.16S301.81,883.78,301.81,879.43Zm10.07,1v-2c0-2.88-1.62-4.29-3.89-4.29s-3.9,1.41-3.9,4.29v2c0,2.89,1.62,4.3,3.9,4.3S311.88,883.3,311.88,880.41Z"/><path class="cls-5" d="M326.08,884.05H326a3.8,3.8,0,0,1-3.85,2.54c-2.81,0-4.61-1.91-4.61-5.22V872.6h2.12V881c0,2.44,1.09,3.68,3.13,3.68,1.67,0,3.31-.82,3.31-2.62V872.6h2.12v13.67h-2.12Z"/><path class="cls-5" d="M332.7,886.27V872.6h2.12v2.52H335a3.92,3.92,0,0,1,3.94-2.52h.83v2.12h-1.25c-2.28,0-3.66,1-3.66,2.28v9.27Z"/><path class="cls-5" d="M158.68,911.23c0-4.37,2.25-7.16,6.09-7.16a5.14,5.14,0,0,1,5.12,3.21l-1.78.9a3.3,3.3,0,0,0-3.34-2.23c-2.51,0-3.81,1.73-3.81,4.11v2.33c0,2.39,1.3,4.11,3.81,4.11a3.85,3.85,0,0,0,3.71-2.38l1.54,1a5.39,5.39,0,0,1-5.25,3.23C160.93,918.38,158.68,915.6,158.68,911.23Z"/><path class="cls-5" d="M171.85,911.23c0-4.35,2.51-7.16,6.17-7.16s6.18,2.81,6.18,7.16-2.52,7.15-6.18,7.15S171.85,915.57,171.85,911.23Zm10.07,1v-2c0-2.89-1.62-4.3-3.9-4.3s-3.9,1.41-3.9,4.3v2c0,2.89,1.62,4.29,3.9,4.29S181.92,915.1,181.92,912.21Z"/><path class="cls-5" d="M187.69,918.07V904.39h2.12v2.23h.11a3.67,3.67,0,0,1,3.68-2.55,4.22,4.22,0,0,1,4.19,2.79h.05a4.1,4.1,0,0,1,4.16-2.79c2.78,0,4.45,1.91,4.45,5.22v8.78h-2.12v-8.41c0-2.41-.92-3.68-3-3.68-1.67,0-3.21.85-3.21,2.6v9.49H196v-8.41c0-2.43-.93-3.68-2.94-3.68-1.67,0-3.26.85-3.26,2.6v9.49Z"/><path class="cls-5" d="M210.82,918.07V904.39h2.12v2.23h.1a3.69,3.69,0,0,1,3.69-2.55,4.22,4.22,0,0,1,4.19,2.79H221a4.1,4.1,0,0,1,4.16-2.79c2.78,0,4.45,1.91,4.45,5.22v8.78h-2.12v-8.41c0-2.41-.93-3.68-3-3.68-1.67,0-3.21.85-3.21,2.6v9.49h-2.12v-8.41c0-2.43-.93-3.68-2.94-3.68-1.67,0-3.26.85-3.26,2.6v9.49Z"/><path class="cls-5" d="M242.37,915.84h-.1a3.79,3.79,0,0,1-3.84,2.54c-2.81,0-4.62-1.9-4.62-5.22v-8.77h2.12v8.4c0,2.44,1.09,3.69,3.13,3.69,1.67,0,3.31-.83,3.31-2.63v-9.46h2.12v13.68h-2.12Z"/><path class="cls-5" d="M249,918.07V904.39h2.13v2.23h.1a3.88,3.88,0,0,1,3.87-2.55c2.81,0,4.59,1.91,4.59,5.22v8.78h-2.12v-8.41c0-2.43-1.06-3.68-3.1-3.68-1.7,0-3.34.85-3.34,2.6v9.49Z"/><path class="cls-5" d="M263.81,900v-.34c0-.72.39-1.2,1.29-1.2s1.3.48,1.3,1.2V900c0,.72-.4,1.19-1.3,1.19S263.81,900.71,263.81,900Zm.23,4.4h2.12v13.68H264Z"/><path class="cls-5" d="M273.69,918.07a2.09,2.09,0,0,1-2.25-2.26v-9.56h-2.26v-1.86h1.28c.9,0,1.19-.32,1.19-1.24V900.6h1.91v3.79h3v1.86h-3v10h2.78v1.86Z"/><path class="cls-5" d="M288.4,904.39h2.09l-6.12,16.86c-.61,1.64-1.17,2.12-3.18,2.12H280.1v-1.86h2.15l1-2.91-5.11-14.21h2.12l3.28,9.3.64,2.23h.13l.74-2.23Z"/><g id="Center_Fin" data-name="Center Fin"><path id="Outer_Fin" data-name="Outer Fin" class="cls-6" d="M422,752.59c-1.12.8-1.68,1.44-1.53,1.85.53,1.45,9.79-.61,20.69-4.6s19.29-8.42,18.76-9.87c-.15-.41-1-.54-2.37-.43-2.86,2.05-9.4,5.14-17.23,8S425.5,752.3,422,752.59Z"/><ellipse id="Inner_Fin" data-name="Inner Fin" class="cls-7" cx="439.77" cy="746.06" rx="18.94" ry="1.59" transform="translate(-230.09 197.16) rotate(-20.15)"/></g><g id="Left_Fin" data-name="Left Fin"><path id="Outer_Fin-2" data-name="Outer Fin" class="cls-6" d="M466.76,767.22a24.22,24.22,0,0,1-9.17,5.93c-8.91,3.27-18.18,1.15-22.75-4.66-2.55,1.19-5.21,2.33-8,3.43,5.69,7.9,17.94,10.88,29.69,6.57a30.47,30.47,0,0,0,13.82-10A28.48,28.48,0,0,1,466.76,767.22Z"/><path id="Inner_Fin-2" data-name="Inner Fin" class="cls-7" d="M454.06,757.6a123.45,123.45,0,0,1-19.22,10.89c4.57,5.81,13.84,7.93,22.75,4.66a24.22,24.22,0,0,0,9.17-5.93A34.92,34.92,0,0,1,454.06,757.6Z"/></g><g id="Right_Fin" data-name="Right Fin"><path id="Outer_Fin-3" data-name="Outer Fin" class="cls-6" d="M447.51,714.75a24.15,24.15,0,0,0-10.83,1.42c-8.91,3.26-14.61,10.88-14.34,18.26-2.71.75-5.48,1.59-8.28,2.54-.78-9.72,6.63-19.91,18.38-24.22a30.46,30.46,0,0,1,17-1.32A29.35,29.35,0,0,0,447.51,714.75Z"/><path id="Inner_Fin-3" data-name="Inner Fin" class="cls-7" d="M444.05,730.3a124.17,124.17,0,0,0-21.71,4.13c-.27-7.38,5.43-15,14.34-18.26a24.15,24.15,0,0,1,10.83-1.42A34.86,34.86,0,0,0,444.05,730.3Z"/></g><path id="Engine" class="cls-8" d="M467,745.34l-5.15-14a37,37,0,0,0-10.44-1.37l8.51,23.2A37,37,0,0,0,467,745.34Z"/><path id="Nose_Cone" data-name="Nose Cone" class="cls-9" d="M363.58,775.32c3.35-7.24,12.45-18.26,20.72-24.85l11.15,30.39C384.88,781.18,373.1,779.73,363.58,775.32Z"/><path id="Body" class="cls-10" d="M395.45,780.86a150.54,150.54,0,0,0,27.16-7.3c15.71-5.77,29-13.24,37.27-20.42l-8.51-23.2c-11-.11-25.92,2.77-41.63,8.53a150.49,150.49,0,0,0-25.44,12Z"/><circle class="cls-11" cx="407.41" cy="759.23" r="7"/><path class="cls-12" d="M398.64,762.45a9.34,9.34,0,1,0,5.55-12A9.35,9.35,0,0,0,398.64,762.45ZM414,756.82a7,7,0,1,1-9-4.16A7,7,0,0,1,414,756.82Z"/></svg>