<?xml version="1.0" encoding="utf-8"?>
<!-- Generator: Adobe Illustrator 24.1.3, SVG Export Plug-In . SVG Version: 6.00 Build 0)  -->
<svg version="1.1" id="Layer_1" xmlns="http://www.w3.org/2000/svg" xmlns:xlink="http://www.w3.org/1999/xlink" x="0px" y="0px"
	 viewBox="0 0 750 1000" style="enable-background:new 0 0 750 1000;" xml:space="preserve">
<style type="text/css">
	.st0{fill:#282828;}
	.st1{fill:none;stroke:#FFFFFF;stroke-width:8;stroke-miterlimit:10;}
	.st2{fill:none;stroke:#FFFFFF;stroke-width:8;stroke-miterlimit:10;stroke-dasharray:11.96,2.99;}
	.st3{fill:#2D404E;}
	.st4{fill:#48B19B;}
	.st5{fill:#F5F5F5;}
	.st6{fill:#D3D3D3;}
	.st7{fill:#BDBDBD;}
	.st8{fill:#9E9E9E;}
	.st9{fill:#C1440E;}
	.st10{fill:#FDA600;}
	.st11{fill:#E77D11;}
	.st12{fill:#C77021;}
	.st13{fill:#F1881D;}
	.st14{fill:#3A3A3A;}
	.st15{fill:#889FC0;}
	.st16{fill:#C0D1E0;}
	.st17{fill:#ABFFFE;}
	.st18{fill:#3E727E;}
</style>
<rect y="-0.4" class="st0" width="750" height="1000"/>
<path class="st1" d="M344,253c1.8,0.1,3.8,0.3,6,0.6"/>
<path class="st2" d="M352.9,254c90.9,15.5,468.4,199.5,115,481.3"/>
<path class="st1" d="M466.7,736.3L462,740"/>
<path class="st3" d="M300.1,32.8H158.3c-6,0-11.5,3.2-14.4,8.3L73,163.9c-3,5.2-3,11.5,0,16.7l70.9,122.8c3,5.2,8.5,8.3,14.4,8.3
	h141.8c6,0,11.5-3.2,14.4-8.3l70.9-122.8c3-5.2,3-11.5,0-16.7L314.5,41.1C311.6,36,306.1,32.8,300.1,32.8z"/>
<path class="st4" d="M125.2,269.3c41.7,32.6,94.7,47.3,147.2,41c0.2-4.1,1-17,2.9-24.2c2.2-8.7,14.8-21.3,15.3-51.7
	c0.2-10.6-9.8-24.4-6.7-40.4c3.1-16-0.6-20.9-5.3-27.6s-18.5-8.1-15.3-21.1c1.3-5.3,1.6-9.8,1.2-13.2l-4.8-6.1
	c-3.4,2.5-6.9,18.6-3.1,27c4,8.7,13.2,11.3,12.3,22s-15.4,10.4-21.5,8.2c-6.1-2.1-14.6-11.1-14.2-15.7c0.4-4.6,0.9-10.8-2.6-12.9
	c-3.5-2.1-3.6,9.3-11.1,17.1c-7.5,7.8-36,8.2-61.1,8.9s-15.3,17.9-5.6,41.4c9.8,23.4,19.8-2.6,24.9-3.5s15.9,9.1,20.6,22.1
	c4.7,12.9-3.3,20.3-17.6,19.5c-14.3-0.7-22.2,2.4-13.5,10.7c8.7,8.3,40.9,19.9,38.8,26.4c-2,6.5-17.5-0.1-36-7.1s-29-32.3-28-42.1
	c1-9.8,2.2-24.7-4.2-24.9c-6.4-0.2-18.7-2.7-9,22.9C136.8,266.8,128.6,269.2,125.2,269.3z"/>
<path class="st5" d="M130.6,152.6h-5v-41.2H142c7.2,0,11.5,4.2,11.5,11.7c0,6-2.9,10.1-8.3,11.3l9.4,18.2h-5.6l-8.9-17.7h-9.6
	L130.6,152.6z M142.1,130.6c3.9,0,6.2-2.1,6.2-5.9v-3.1c0-3.8-2.3-5.9-6.2-5.9h-11.4v14.9H142.1z"/>
<path class="st5" d="M159.8,137.4c0-9.7,5.4-15.9,13.7-15.9s13.2,6.3,13.2,14.9v2.2h-21.9v1.5c0,5.3,3.4,9.2,9,9.2
	c3.6,0.1,6.9-1.9,8.4-5.3l3.4,2.4c-1.9,4.1-6.3,7-12,7C165.3,153.3,159.8,147,159.8,137.4z M164.8,134.6v0.4h16.8v-0.6
	c0-5.4-3.3-9-8.1-9C168.4,125.4,164.8,129.3,164.8,134.6z"/>
<path class="st5" d="M205.4,165.1c-9.5,0-13.4-2.7-13.4-7.5c0-3.3,1.8-5.1,4.8-5.9v-0.6c-1.7-0.7-2.8-2.4-2.7-4.3
	c0-3.1,2.2-4.5,5.3-5.3v-0.2c-3.6-1.7-5.9-5.4-5.7-9.3c0-6.2,4.5-10.5,11.4-10.5c2,0,4,0.4,5.8,1.2v-0.5c0-2.4,1-4.1,3.5-4.1h4.6
	v4.1h-5.8v2c2.3,2,3.6,4.8,3.5,7.9c0,6.2-4.6,10.5-11.5,10.5c-1,0-2-0.1-2.9-0.3c-2,0.5-4,1.5-4,3.4s1.9,2.3,4.7,2.3h6.5
	c7.6,0,10.8,3.1,10.8,8.1C220.2,162.2,215.2,165.1,205.4,165.1z M209.4,152.3h-10.1c-1.7,0.6-2.9,2.3-2.8,4.1c0,2.7,1.8,4.8,6.6,4.8
	h4.4c5.3,0,8.3-1.6,8.3-4.9C215.7,153.9,214.1,152.3,209.4,152.3L209.4,152.3z M211.7,132.8v-1.7c0-4-2.5-5.9-6.6-5.9
	s-6.6,1.9-6.6,5.9v1.7c0,4,2.5,5.9,6.6,5.9S211.7,136.8,211.7,132.8L211.7,132.8z"/>
<path class="st5" d="M225.1,112.3v-0.8c0-1.6,0.9-2.7,2.9-2.7s2.9,1.1,2.9,2.7v0.8c0,1.6-0.9,2.7-2.9,2.7S225.1,113.9,225.1,112.3z
	 M225.6,122.1h4.7v30.5h-4.7V122.1z"/>
<path class="st5" d="M237.5,147.3l3.4-2.7c2.4,2.9,5.2,4.7,9,4.7c4,0,6.4-1.8,6.4-5c0-2.4-1.3-4.2-5.3-4.8l-2.4-0.4
	c-5.6-0.8-9.8-3.1-9.8-8.8c0-6,4.7-9,10.9-9c4.1-0.2,8.1,1.6,10.6,4.9l-3.1,2.8c-1.9-2.4-4.8-3.8-7.9-3.7c-3.9,0-6,1.8-6,4.7
	s2.1,4.1,5.9,4.7l2.4,0.4c6.7,1,9.3,3.9,9.3,8.6c0,5.9-4.3,9.5-11.3,9.5C244.8,153.4,240.3,151.2,237.5,147.3z"/>
<path class="st5" d="M275.5,152.6c-2.6,0.2-4.8-1.7-5-4.3c0-0.2,0-0.5,0-0.7v-21.3h-5v-4.1h2.8c2,0,2.7-0.7,2.7-2.8v-5.7h4.3v8.4
	h6.7v4.1h-6.7v22.2h6.2v4.1L275.5,152.6z"/>
<path class="st5" d="M287,137.4c0-9.7,5.4-15.9,13.7-15.9s13.2,6.3,13.2,14.9v2.2H292v1.5c0,5.3,3.4,9.2,9,9.2
	c3.6,0.1,6.9-1.9,8.4-5.3l3.4,2.4c-2,4.1-6.3,7-12,7C292.4,153.3,287,147,287,137.4z M292,134.6v0.4h16.8v-0.6c0-5.4-3.2-9-8.1-9
	C295.5,125.4,291.9,129.3,292,134.6L292,134.6z"/>
<path class="st5" d="M321.6,152.6v-30.5h4.7v5.6h0.3c1.1-2.9,3.8-5.6,8.8-5.6h1.8v4.7h-2.8c-5.1,0-8.1,2.2-8.1,5.1v20.7H321.6z"/>
<path class="st5" d="M105.6,174.2v12.8c0,3.9,1.3,6,4.9,6s4.9-2.1,4.9-6v-12.8h2.5v12.2c0,6-2,8.8-7.5,8.8s-7.3-2.8-7.3-8.8v-12.2
	H105.6z"/>
<path class="st5" d="M121.6,192.1l1.7-1.4c1,1.5,2.7,2.3,4.5,2.3c2,0,3.2-0.9,3.2-2.5c0-1.2-0.6-2.1-2.7-2.4l-1.2-0.2
	c-2.8-0.4-4.9-1.6-4.9-4.4c0-3,2.3-4.5,5.4-4.5c2.1-0.1,4,0.8,5.3,2.4l-1.6,1.4c-0.9-1.2-2.4-1.9-3.9-1.9c-2,0-3,0.9-3,2.4
	s1,2.1,2.9,2.4l1.2,0.2c3.4,0.5,4.7,2,4.7,4.3c0,3-2.1,4.8-5.6,4.8C125.3,195.2,123,194.1,121.6,192.1z"/>
<path class="st5" d="M136.3,187.2c0-4.8,2.7-8,6.9-8s6.6,3.1,6.6,7.4v1.1h-11v0.7c-0.2,2.4,1.6,4.4,4,4.6c0.2,0,0.3,0,0.5,0
	c1.8,0.1,3.5-1,4.2-2.6l1.7,1.2c-1.1,2.2-3.5,3.6-6,3.5C139.1,195.1,136.3,192,136.3,187.2z M138.8,185.8v0.2h8.4v-0.3
	c0-2.7-1.6-4.5-4-4.5c-2.4,0-4.4,1.8-4.4,4.2C138.8,185.5,138.8,185.7,138.8,185.8z"/>
<path class="st5" d="M164,194.8c-1.3,0.1-2.4-0.8-2.5-2.1c0-0.1,0-0.3,0-0.4v-10.7H159v-2.1h1.4c1,0,1.3-0.4,1.3-1.4v-2.8h2.1v4.2
	h3.3v2.1h-3.3v11.1h3.1v2.1L164,194.8z"/>
<path class="st5" d="M171,172.9h2.4v9.1h0.1c0.7-1.8,2.4-2.9,4.3-2.8c3.1,0,5.1,2.1,5.1,5.8v9.8h-2.4v-9.4c0-2.7-1.2-4.1-3.4-4.1
	c-1.9,0-3.7,0.9-3.7,2.9v10.6H171V172.9z"/>
<path class="st5" d="M186.6,187.2c0-4.8,2.7-8,6.9-8s6.6,3.1,6.6,7.4v1.1h-11v0.7c-0.2,2.4,1.6,4.4,4,4.6c0.2,0,0.3,0,0.5,0
	c1.8,0.1,3.5-1,4.2-2.6l1.7,1.2c-1.1,2.2-3.5,3.6-6,3.5C189.3,195.1,186.6,192,186.6,187.2z M189.1,185.8v0.2h8.4v-0.3
	c0-2.7-1.6-4.5-4-4.5c-2.4,0-4.4,1.8-4.4,4.2C189.1,185.5,189.1,185.7,189.1,185.8L189.1,185.8z"/>
<path class="st5" d="M213.4,194.8c-1.3,0.1-2.4-0.8-2.5-2.1c0-0.1,0-0.2,0-0.4v-19.4h2.4v19.8h2.3v2.1L213.4,194.8z"/>
<path class="st5" d="M218.7,174.6v-0.4c0-0.8,0.4-1.3,1.4-1.3s1.4,0.5,1.4,1.3v0.4c0,0.8-0.4,1.3-1.4,1.3S218.7,175.4,218.7,174.6z
	 M218.9,179.5h2.4v15.2h-2.4V179.5z"/>
<path class="st5" d="M226.3,194.8v-15.2h2.4v2.4h0.1c0.7-1.8,2.4-2.9,4.3-2.8c3.1,0,5.1,2.1,5.1,5.8v9.8h-2.4v-9.4
	c0-2.7-1.2-4.1-3.4-4.1c-1.9,0-3.7,0.9-3.7,2.9v10.6L226.3,194.8z"/>
<path class="st5" d="M243.1,172.9h2.4v13.9h0.1l2.3-2.6l4.3-4.6h2.9l-5.6,6l6.2,9.2h-2.9l-5-7.8l-2.3,2.3v5.4h-2.4L243.1,172.9z"/>
<path class="st5" d="M269,194.8c-1.3,0.1-2.4-0.8-2.5-2.1c0-0.1,0-0.3,0-0.4v-10.7H264v-2.1h1.4c1,0,1.3-0.4,1.3-1.4v-2.8h2.1v4.2
	h3.3v2.1h-3.3v11.1h3.1v2.1L269,194.8z"/>
<path class="st5" d="M274.7,187.2c0-4.8,2.8-8,6.9-8s6.9,3.1,6.9,8s-2.8,8-6.9,8S274.7,192,274.7,187.2z M285.9,188.3v-2.2
	c0-3.2-1.8-4.8-4.3-4.8s-4.3,1.6-4.3,4.8v2.2c0,3.2,1.8,4.8,4.3,4.8S285.9,191.5,285.9,188.3L285.9,188.3z"/>
<path class="st5" d="M297.9,192.1l1.7-1.4c1,1.5,2.7,2.3,4.5,2.3c2,0,3.2-0.9,3.2-2.5c0-1.2-0.6-2.1-2.7-2.4l-1.2-0.2
	c-2.8-0.4-4.9-1.6-4.9-4.4c0-3,2.3-4.5,5.4-4.5c2.1-0.1,4,0.8,5.3,2.4l-1.6,1.4c-0.9-1.2-2.4-1.9-3.9-1.9c-1.9,0-3,0.9-3,2.4
	s1,2.1,2.9,2.4l1.2,0.2c3.4,0.5,4.7,2,4.7,4.3c0,3-2.1,4.8-5.6,4.8C301.5,195.2,299.3,194.1,297.9,192.1z"/>
<path class="st5" d="M313.4,174.6v-0.4c0-0.8,0.5-1.3,1.5-1.3s1.5,0.5,1.5,1.3v0.4c0,0.8-0.5,1.3-1.5,1.3S313.4,175.4,313.4,174.6z
	 M313.7,179.5h2.4v15.2h-2.4V179.5z"/>
<path class="st5" d="M326.5,201c-4.8,0-6.7-1.4-6.7-3.8c-0.1-1.5,1-2.7,2.4-2.9V194c-0.9-0.4-1.4-1.2-1.4-2.1c0-1.5,1.1-2.3,2.6-2.7
	v-0.1c-1.8-0.8-2.9-2.7-2.9-4.7c0-3.1,2.3-5.3,5.7-5.3c1,0,2,0.2,2.9,0.6v-0.3c0-1.2,0.5-2,1.8-2h2.3v2.1h-2.9v1
	c1.1,1,1.8,2.4,1.7,3.9c0,3.1-2.3,5.3-5.8,5.3c-0.5,0-1-0.1-1.5-0.1c-1,0.3-2,0.8-2,1.7s0.9,1.1,2.3,1.1h3.3c3.8,0,5.4,1.5,5.4,4
	C333.9,199.6,331.5,201,326.5,201z M328.5,194.6h-5.1c-0.9,0.3-1.4,1.1-1.4,2.1c0,1.3,0.9,2.4,3.3,2.4h2.2c2.6,0,4.2-0.8,4.2-2.5
	C331.7,195.4,330.9,194.6,328.5,194.6L328.5,194.6z M329.7,184.8V184c0-2-1.3-2.9-3.3-2.9s-3.3,0.9-3.3,2.9v0.8c0,2,1.3,2.9,3.3,2.9
	S329.7,186.9,329.7,184.8L329.7,184.8z"/>
<path class="st5" d="M336.7,194.8v-15.2h2.3v2.4h0.1c0.7-1.8,2.4-2.9,4.3-2.8c3.1,0,5.1,2.1,5.1,5.8v9.8h-2.4v-9.4
	c0-2.7-1.2-4.1-3.5-4.1c-1.9,0-3.7,0.9-3.7,2.9v10.6L336.7,194.8z"/>
<path class="st5" d="M133.9,227.7h-0.1c-0.6,1.8-2.4,3-4.3,2.8c-3.1,0-5.1-2.1-5.1-5.8V215h2.4v9.4c0,2.7,1.2,4.1,3.5,4.1
	c1.9,0,3.7-0.9,3.7-2.9V215h2.4v15.2h-2.4L133.9,227.7z"/>
<path class="st5" d="M141.3,215h2.4v2.5h0.1c0.7-1.8,2.5-3,4.5-2.8c3.8,0,6.2,3.1,6.2,8s-2.4,8-6.2,8c-1.9,0.1-3.7-1-4.5-2.8h-0.1
	v8.4h-2.4V215z M151.9,223.9v-2.6c0-2.7-1.7-4.5-4.3-4.5c-2.2,0-3.9,1.2-3.9,2.9v5.7c0,2,1.8,3.1,3.9,3.1
	C150.2,228.4,151.9,226.6,151.9,223.9L151.9,223.9z"/>
<path class="st5" d="M166.2,217h-2.5v-2h2.5v-3.1c0-2.1,1.1-3.5,3.3-3.5h2.3v2.1h-3.3v4.5h3.3v2h-3.3v13.2h-2.4V217z"/>
<path class="st5" d="M173.7,222.6c0-4.8,2.8-8,6.9-8s6.9,3.1,6.9,8s-2.8,8-6.9,8S173.7,227.4,173.7,222.6z M184.9,223.7v-2.2
	c0-3.2-1.8-4.8-4.3-4.8s-4.3,1.6-4.3,4.8v2.2c0,3.2,1.8,4.8,4.3,4.8S184.9,226.9,184.9,223.7z"/>
<path class="st5" d="M191.3,230.2V215h2.4v2.8h0.1c0.7-1.8,2.5-2.9,4.4-2.8h0.9v2.4h-1.4c-2.5,0-4.1,1.1-4.1,2.5v10.3H191.3z"/>
<path class="st5" d="M220.2,230.2c-1.4,0.1-2.5-0.9-2.6-2.3c0-0.1,0-0.1,0-0.2h-0.1c-0.7,1.8-2.5,3-4.4,2.8c-3.2,0-5.1-1.8-5.1-4.6
	s2.1-4.5,6.5-4.5h3V220c0-2.1-1.2-3.3-3.6-3.3c-1.6,0-3.1,0.8-3.9,2.3l-1.4-1.3c1.1-2,3.2-3.1,5.4-3c3.7,0,5.9,1.9,5.9,5.1v8.4h1.7
	v2.1L220.2,230.2z M217.4,225.8v-2.5h-3.1c-2.7,0-3.9,0.8-3.9,2.3v0.6c0,1.5,1.2,2.4,3,2.4C215.8,228.5,217.4,227.3,217.4,225.8z"/>
<path class="st5" d="M230.4,227.6l1.7-1.4c1,1.5,2.7,2.3,4.5,2.3c2,0,3.2-0.9,3.2-2.5c0-1.2-0.6-2.1-2.7-2.4l-1.2-0.2
	c-2.8-0.4-4.9-1.6-4.9-4.4c0-3,2.3-4.5,5.4-4.5c2.1-0.1,4.1,0.8,5.3,2.4l-1.6,1.4c-0.9-1.2-2.4-1.9-3.9-1.9c-1.9,0-3,0.9-3,2.4
	s1,2.1,2.9,2.4l1.2,0.2c3.4,0.5,4.7,2,4.7,4.3c0,2.9-2.1,4.8-5.6,4.8C234,230.6,231.8,229.5,230.4,227.6z"/>
<path class="st5" d="M245.1,222.6c0-4.8,2.7-8,6.9-8c4.1,0,6.6,3.1,6.6,7.4v1.1h-11v0.7c-0.2,2.4,1.6,4.4,4,4.6c0.2,0,0.3,0,0.5,0
	c1.8,0.1,3.5-1,4.2-2.6l1.7,1.2c-1.1,2.2-3.5,3.6-6,3.5C247.8,230.6,245.1,227.4,245.1,222.6z M247.6,221.2v0.2h8.4v-0.3
	c0-2.7-1.6-4.5-4-4.5c-2.4,0-4.4,1.9-4.4,4.3C247.6,221,247.6,221.1,247.6,221.2L247.6,221.2z"/>
<path class="st5" d="M262.4,230.2V215h2.4v2.5h0.1c0.6-1.8,2.3-2.9,4.1-2.8c2.1-0.1,4,1.1,4.7,3.1h0.1c0.7-2,2.6-3.2,4.6-3.1
	c3.1,0,5,2.1,5,5.8v9.8H281v-9.4c0-2.7-1-4.1-3.3-4.1c-1.9,0-3.6,0.9-3.6,2.9v10.5h-2.4v-9.4c0-2.7-1-4.1-3.3-4.1
	c-1.9,0-3.6,0.9-3.6,2.9v10.6H262.4z"/>
<path class="st5" d="M287.9,210.1v-0.4c0-0.8,0.5-1.3,1.5-1.3s1.5,0.5,1.5,1.3v0.4c0,0.8-0.5,1.3-1.5,1.3S287.9,210.9,287.9,210.1z
	 M288.2,215h2.4v15.2h-2.4V215z"/>
<path class="st5" d="M295.6,230.2V215h2.4v2.5h0.1c0.7-1.8,2.4-2.9,4.3-2.8c3.1,0,5.1,2.1,5.1,5.8v9.8h-2.4v-9.4
	c0-2.7-1.2-4.1-3.5-4.1c-1.9,0-3.7,0.9-3.7,2.9v10.5H295.6z"/>
<path class="st5" d="M323.4,230.2c-1.4,0.1-2.5-0.9-2.6-2.3c0-0.1,0-0.1,0-0.2h-0.1c-0.7,1.8-2.5,3-4.4,2.8c-3.2,0-5.1-1.8-5.1-4.6
	s2.1-4.5,6.5-4.5h3V220c0-2.1-1.2-3.3-3.6-3.3c-1.6,0-3.1,0.8-3.9,2.3l-1.4-1.3c1.1-2,3.2-3.1,5.4-3c3.7,0,5.9,1.9,5.9,5.1v8.4h1.7
	v2.1L323.4,230.2z M320.7,225.8v-2.5h-3.1c-2.7,0-3.9,0.8-3.9,2.3v0.6c0,1.5,1.2,2.4,3,2.4C319,228.5,320.6,227.3,320.7,225.8
	L320.7,225.8z"/>
<path class="st5" d="M328.1,230.2V215h2.4v2.8h0.1c0.7-1.8,2.5-2.9,4.4-2.8h0.9v2.4h-1.4c-2.5,0-4.1,1.1-4.1,2.5v10.3H328.1z"/>
<path class="st6" d="M627.8,385.8H489.9c-6,0-11.5,3.2-14.4,8.3l-68.9,119.4c-3,5.2-3,11.5,0,16.7l68.9,119.4
	c3,5.2,8.5,8.3,14.4,8.3h137.9c6,0,11.5-3.2,14.4-8.3l69-119.4c3-5.2,3-11.5,0-16.7l-69-119.4C639.2,389,633.7,385.8,627.8,385.8z"
	/>
<circle class="st7" cx="521" cy="450.1" r="45.9"/>
<circle class="st8" cx="646.6" cy="536" r="27.1"/>
<circle class="st7" cx="489.1" cy="594.8" r="18.6"/>
<circle class="st7" cx="583.5" cy="631" r="9.3"/>
<path d="M502.3,502.7l-4-11.9H482l-4,11.9h-4.9l14-40.2h6.2l14,40.2H502.3z M490.3,467H490l-6.8,19.6H497L490.3,467z"/>
<path d="M519.9,502.7c-2.5,0.2-4.7-1.7-4.9-4.1c0-0.2,0-0.5,0-0.8V477h-4.9v-4h2.8c2,0,2.6-0.7,2.6-2.7v-5.5h4.2v8.2h6.5v4h-6.5
	v21.6h6v4L519.9,502.7z"/>
<path d="M539.6,502.7c-2.5,0.2-4.7-1.7-4.9-4.1c0-0.2,0-0.5,0-0.8V477h-4.9v-4h2.8c2,0,2.6-0.7,2.6-2.7v-5.5h4.2v8.2h6.5v4h-6.5
	v21.6h6v4L539.6,502.7z"/>
<path d="M550.8,487.9c0-9.5,5.3-15.6,13.4-15.6s12.8,6.1,12.8,14.5v2.2h-21.3v1.4c0,5.1,3.3,9,8.8,9c3.5,0.1,6.8-1.9,8.2-5.1
	l3.3,2.4c-1.9,4-6.2,6.8-11.8,6.8C556.1,503.4,550.8,497.3,550.8,487.9z M555.7,485.1v0.4h16.4v-0.6c0-5.2-3.2-8.8-7.9-8.8
	C559.2,476.1,555.7,480,555.7,485.1L555.7,485.1z"/>
<path d="M584.7,502.7V473h4.6v4.8h0.2c1.3-3.5,4.7-5.7,8.4-5.5c6.1,0,10,4.1,10,11.4v19.1h-4.6v-18.3c0-5.3-2.3-8-6.7-8
	c-3.7,0-7.3,1.8-7.3,5.6v20.6L584.7,502.7z"/>
<path d="M636.4,497.9h-0.2c-1.5,3.5-4.9,5.7-8.7,5.5c-7.4,0-12.1-6-12.1-15.5s4.7-15.6,12.1-15.6c4.1,0,7.1,1.8,8.7,5.5h0.2v-17.7
	h4.6v42.6h-4.6L636.4,497.9z M636.4,493.2v-11.1c0-3.3-3.5-5.7-7.7-5.7c-5.2,0-8.4,3.6-8.4,8.9v5.1c0,5.3,3.2,8.9,8.4,8.9
	C632.9,499.3,636.4,497.1,636.4,493.2L636.4,493.2z"/>
<path d="M477.5,543.7l-1.5-4.5h-6.1l-1.5,4.5h-1.8l5.3-15.1h2.3l5.3,15.1H477.5z M473,530.3h-0.1l-2.5,7.3h5.2L473,530.3z"/>
<path d="M484.1,543.7c-0.9,0.1-1.8-0.6-1.8-1.6c0-0.1,0-0.2,0-0.3V534h-1.8v-1.5h1c0.7,0,1-0.3,1-1v-2.1h1.6v3.1h2.4v1.5H484v8.1
	h2.3v1.5L484.1,543.7z"/>
<path d="M491.5,543.7c-0.9,0.1-1.8-0.6-1.8-1.6c0-0.1,0-0.2,0-0.3V534h-1.8v-1.5h1c0.7,0,1-0.3,1-1v-2.1h1.6v3.1h2.4v1.5h-2.4v8.1
	h2.3v1.5L491.5,543.7z"/>
<path d="M495.7,538.1c0-3.5,2-5.8,5-5.8s4.8,2.3,4.8,5.5v0.8h-8v0.5c-0.1,1.7,1.2,3.2,2.9,3.4c0.1,0,0.3,0,0.4,0
	c1.3,0,2.5-0.7,3.1-1.9l1.2,0.9c-0.8,1.6-2.6,2.6-4.4,2.5C497.7,543.9,495.7,541.6,495.7,538.1z M497.5,537.1v0.2h6.2V537
	c0.2-1.6-1.1-3.1-2.7-3.3c-0.1,0-0.2,0-0.3,0c-1.8,0-3.2,1.4-3.2,3.2C497.5,537,497.5,537,497.5,537.1L497.5,537.1z"/>
<path d="M508.4,543.7v-11.1h1.7v1.8h0.1c0.5-1.3,1.8-2.2,3.2-2.1c2.3,0,3.7,1.6,3.7,4.3v7.2h-1.7v-6.8c0-2-0.9-3-2.5-3
	c-1.4,0-2.7,0.7-2.7,2.1v7.7L508.4,543.7z"/>
<path d="M527.8,541.8L527.8,541.8c-0.6,1.3-1.9,2.1-3.4,2.1c-2.8,0-4.5-2.3-4.5-5.8s1.8-5.8,4.5-5.8c1.4-0.1,2.7,0.7,3.3,2.1h0.1
	v-6.7h1.7v16h-1.7V541.8z M527.8,540.1V536c0-1.2-1.3-2.1-2.9-2.1c-1.7-0.1-3.1,1.2-3.2,2.8c0,0.2,0,0.3,0,0.5v1.8
	c-0.2,1.6,1,3.1,2.6,3.3c0.2,0,0.3,0,0.5,0C526.5,542.4,527.8,541.5,527.8,540.1z"/>
<path d="M540.7,543.7c-0.9,0.1-1.8-0.6-1.8-1.6c0-0.1,0-0.2,0-0.3V534H537v-1.5h1c0.7,0,1-0.3,1-1v-2.1h1.5v3.1h2.4v1.5h-2.4v8.1
	h2.3v1.5L540.7,543.7z"/>
<path d="M545.8,527.7h1.7v6.7h0.1c0.5-1.3,1.8-2.2,3.2-2.1c2.3,0,3.7,1.6,3.7,4.3v7.2h-1.7v-6.8c0-2-0.9-3-2.5-3
	c-1.4,0-2.7,0.7-2.7,2.1v7.7h-1.7V527.7z"/>
<path d="M557.3,538.1c0-3.5,2-5.8,5-5.8s4.8,2.3,4.8,5.5v0.8h-8v0.5c-0.1,1.7,1.2,3.2,2.9,3.4c0.1,0,0.2,0,0.4,0
	c1.3,0,2.5-0.7,3.1-1.9l1.2,0.9c-0.8,1.6-2.6,2.6-4.4,2.5C559.3,543.9,557.3,541.6,557.3,538.1z M559.1,537.1v0.2h6.2V537
	c0.2-1.6-1.1-3.1-2.7-3.3c-0.1,0-0.2,0-0.3,0c-1.8,0-3.2,1.4-3.2,3.2C559.1,537,559.1,537,559.1,537.1L559.1,537.1z"/>
<path d="M574,541.7l1.2-1c0.8,1.1,2,1.7,3.3,1.7c1.5,0,2.3-0.7,2.3-1.8c0-0.9-0.5-1.5-1.9-1.8l-0.9-0.1c-2-0.3-3.6-1.1-3.6-3.2
	s1.7-3.3,4-3.3c1.5-0.1,3,0.6,3.9,1.8l-1.2,1c-0.7-0.9-1.7-1.4-2.9-1.4c-1.4,0-2.2,0.7-2.2,1.7s0.8,1.5,2.1,1.7l0.9,0.1
	c2.5,0.4,3.4,1.4,3.4,3.1c0,2.2-1.6,3.5-4.1,3.5C576.7,544,575,543.2,574,541.7z"/>
<path d="M584.8,538.1c0-3.5,2-5.8,5-5.8s4.8,2.3,4.8,5.5v0.8h-8v0.5c-0.1,1.7,1.2,3.2,2.9,3.4c0.1,0,0.3,0,0.4,0
	c1.3,0,2.5-0.7,3.1-1.9l1.2,0.9c-0.8,1.6-2.6,2.6-4.4,2.5C586.8,543.9,584.8,541.6,584.8,538.1z M586.6,537.1v0.2h6.2V537
	c0.2-1.6-1.1-3.1-2.7-3.3c-0.1,0-0.2,0-0.3,0c-1.8,0-3.2,1.4-3.2,3.2C586.6,537,586.6,537,586.6,537.1L586.6,537.1z"/>
<path d="M597.5,543.7v-11.1h1.7v1.8h0.1c0.4-1.3,1.6-2.1,3-2.1c1.5-0.1,2.9,0.8,3.4,2.3l0,0c0.5-1.4,1.9-2.4,3.4-2.3
	c2.3,0,3.6,1.6,3.6,4.3v7.2H611v-6.8c0-2-0.8-3-2.4-3c-1.4,0-2.6,0.7-2.6,2.1v7.7h-1.7v-6.8c0-2-0.8-3-2.4-3c-1.4,0-2.7,0.7-2.7,2.1
	v7.7L597.5,543.7z"/>
<path d="M616.1,528.9v-0.3c0-0.6,0.3-1,1-1s1.1,0.4,1.1,1v0.3c0,0.6-0.3,1-1.1,1S616.1,529.5,616.1,528.9z M616.3,532.5h1.7v11.2
	h-1.7L616.3,532.5z"/>
<path d="M621.7,543.7v-11.1h1.7v1.8h0.1c0.5-1.3,1.8-2.2,3.2-2.1c2.3,0,3.7,1.6,3.7,4.3v7.2h-1.7v-6.8c0-2-0.9-3-2.5-3
	c-1.4,0-2.7,0.7-2.7,2.1v7.7L621.7,543.7z"/>
<path d="M642.1,543.7c-1,0.1-1.8-0.7-1.9-1.7c0,0,0-0.1,0-0.1h-0.1c-0.5,1.3-1.8,2.2-3.2,2.1c-2.3,0-3.7-1.3-3.7-3.4
	s1.5-3.3,4.8-3.3h2.2v-1.1c0-1.6-0.9-2.4-2.6-2.4c-1.2,0-2.3,0.6-2.8,1.7l-1-1c0.8-1.4,2.4-2.3,4-2.2c2.7,0,4.3,1.4,4.3,3.8v6.1h1.3
	v1.5L642.1,543.7z M640.1,540.4v-1.8h-2.3c-2,0-2.8,0.6-2.8,1.7v0.5c0,1.1,0.9,1.7,2.2,1.7C638.8,542.5,640,541.6,640.1,540.4
	L640.1,540.4z"/>
<path d="M645.5,543.7v-11.1h1.7v2h0.1c0.5-1.3,1.8-2.1,3.2-2h0.7v1.7h-1c-1.9,0-3,0.8-3,1.9v7.6H645.5z"/>
<path d="M461.1,569.6v-15.1h1.9V568h6.4v1.6L461.1,569.6z"/>
<path d="M470.8,564c0-3.5,2-5.8,5-5.8s4.8,2.3,4.8,5.4v0.8h-8v0.6c-0.1,1.7,1.2,3.2,2.9,3.4c0.1,0,0.2,0,0.4,0
	c1.3,0,2.5-0.7,3.1-1.9l1.2,0.9c-0.8,1.6-2.6,2.6-4.4,2.5C472.8,569.8,470.8,567.6,470.8,564z M472.6,563v0.2h6.2v-0.2
	c0.2-1.6-1-3.1-2.7-3.3c-0.1,0-0.2,0-0.3,0c-1.8,0-3.2,1.4-3.2,3.2C472.6,562.9,472.6,562.9,472.6,563z"/>
<path d="M491.5,569.6c-1,0.1-1.8-0.7-1.9-1.7c0,0,0-0.1,0-0.1h-0.1c-0.5,1.3-1.8,2.2-3.2,2.1c-2.4,0-3.7-1.3-3.7-3.4
	s1.5-3.3,4.8-3.3h2.2v-1.1c0-1.6-0.9-2.4-2.6-2.4c-1.2,0-2.3,0.6-2.8,1.7l-1-1c0.8-1.4,2.4-2.3,4-2.2c2.7,0,4.3,1.4,4.3,3.8v6.1h1.3
	v1.5L491.5,569.6z M489.5,566.4v-1.8h-2.3c-2,0-2.9,0.6-2.9,1.7v0.5c0,1.1,0.9,1.7,2.2,1.7C488.3,568.4,489.5,567.5,489.5,566.4
	L489.5,566.4z"/>
<path d="M495,569.6v-11.1h1.7v2h0.1c0.5-1.3,1.8-2.1,3.2-2h0.7v1.7h-1c-1.9,0-3,0.8-3,1.9v7.6L495,569.6z"/>
<path d="M502.9,569.6v-11.1h1.7v1.8h0.1c0.5-1.3,1.8-2.2,3.1-2.1c2.3,0,3.7,1.5,3.7,4.3v7.2h-1.7v-6.8c0-2-0.9-3-2.5-3
	c-1.4,0-2.7,0.7-2.7,2.1v7.7H502.9z"/>
<path d="M528.4,569.6c-1,0.1-1.8-0.7-1.9-1.7c0,0,0-0.1,0-0.1h-0.1c-0.5,1.3-1.8,2.2-3.2,2.1c-2.3,0-3.7-1.3-3.7-3.4
	s1.5-3.3,4.8-3.3h2.2v-1.1c0-1.6-0.9-2.4-2.6-2.4c-1.2,0-2.3,0.6-2.8,1.7l-1-1c0.8-1.4,2.3-2.3,4-2.2c2.7,0,4.3,1.4,4.3,3.8v6.1h1.3
	v1.5L528.4,569.6z M526.4,566.4v-1.8h-2.3c-2,0-2.8,0.6-2.8,1.7v0.5c0,1.1,0.9,1.7,2.2,1.7C525.1,568.4,526.3,567.5,526.4,566.4
	L526.4,566.4z"/>
<path d="M531.8,553.6h1.7v6.7h0.1c0.5-1.3,1.8-2.2,3.3-2.1c2.8,0,4.5,2.3,4.5,5.8s-1.8,5.8-4.5,5.8c-1.4,0.1-2.7-0.8-3.3-2.1h-0.1
	v1.8h-1.7V553.6z M539.6,565v-1.9c0.2-1.6-1-3.1-2.6-3.3c-0.2,0-0.3,0-0.5,0c-1.6,0-2.9,0.9-2.9,2.1v4.1c0,1.5,1.3,2.3,2.9,2.3
	c1.7,0.1,3.1-1.2,3.2-2.8C539.6,565.3,539.6,565.1,539.6,565z"/>
<path d="M543.5,564c0-3.5,2-5.8,5-5.8s5,2.3,5,5.8s-2,5.8-5,5.8S543.5,567.6,543.5,564z M551.7,564.8v-1.6c0-2.4-1.3-3.5-3.2-3.5
	s-3.2,1.1-3.2,3.5v1.6c0,2.3,1.3,3.5,3.2,3.5S551.7,567.2,551.7,564.8L551.7,564.8z"/>
<path d="M563.3,567.8L563.3,567.8c-0.5,1.3-1.8,2.2-3.2,2.1c-2.3,0-3.8-1.5-3.8-4.3v-7.2h1.7v6.8c0,2,0.9,3,2.5,3
	c1.4,0,2.7-0.7,2.7-2.1v-7.7h1.7v11.1h-1.7L563.3,567.8z"/>
<path d="M571.2,569.6c-0.9,0.1-1.8-0.6-1.8-1.5c0-0.1,0-0.2,0-0.3V560h-1.8v-1.5h1c0.7,0,1-0.3,1-1v-2.1h1.5v3.1h2.4v1.5h-2.4v8.1
	h2.3v1.5L571.2,569.6z"/>
<path d="M581.4,569.6v-11.1h1.7v2h0.1c0.5-1.3,1.8-2.1,3.2-2h0.7v1.7h-1c-1.9,0-3,0.8-3,1.9v7.6L581.4,569.6z"/>
<path d="M588.4,564c0-3.5,2-5.8,5-5.8s5,2.3,5,5.8s-2.1,5.8-5,5.8S588.4,567.6,588.4,564z M596.6,564.8v-1.6c0-2.4-1.3-3.5-3.2-3.5
	s-3.2,1.1-3.2,3.5v1.6c0,2.3,1.3,3.5,3.2,3.5S596.6,567.2,596.6,564.8L596.6,564.8z"/>
<path d="M601.3,553.6h1.7v6.7h0.1c0.5-1.3,1.8-2.2,3.3-2.1c2.8,0,4.5,2.3,4.5,5.8s-1.8,5.8-4.5,5.8c-1.4,0.1-2.7-0.8-3.3-2.1H603
	v1.8h-1.7L601.3,553.6z M609.1,565v-1.9c0.2-1.6-1-3.1-2.6-3.3c-0.2,0-0.3,0-0.5,0c-1.6,0-2.9,0.9-2.9,2.1v4.1
	c0,1.5,1.3,2.3,2.9,2.3c1.7,0.1,3.1-1.2,3.2-2.8C609.1,565.3,609.1,565.1,609.1,565z"/>
<path d="M613,564c0-3.5,2-5.8,5-5.8s5,2.3,5,5.8s-2,5.8-5,5.8S613,567.6,613,564z M621.2,564.8v-1.6c0-2.4-1.3-3.5-3.2-3.5
	s-3.2,1.1-3.2,3.5v1.6c0,2.3,1.3,3.5,3.2,3.5S621.2,567.2,621.2,564.8L621.2,564.8z"/>
<path d="M628.4,569.6c-0.9,0.1-1.8-0.6-1.8-1.5c0-0.1,0-0.2,0-0.3V560h-1.8v-1.5h1c0.7,0,1-0.3,1-1v-2.1h1.6v3.1h2.4v1.5h-2.4v8.1
	h2.3v1.5L628.4,569.6z"/>
<path d="M633.3,554.9v-0.3c0-0.6,0.3-1,1.1-1s1.1,0.4,1.1,1v0.3c0,0.6-0.3,1-1.1,1S633.3,555.4,633.3,554.9z M633.5,558.5h1.7v11.1
	h-1.7V558.5z"/>
<path d="M638.1,564c0-3.6,1.8-5.8,5-5.8c1.8-0.1,3.5,0.9,4.2,2.6l-1.4,0.7c-0.4-1.1-1.5-1.9-2.7-1.8c-2.1,0-3.1,1.4-3.1,3.3v2
	c0,1.9,1.1,3.3,3.1,3.3c1.3,0,2.5-0.8,3-2l1.3,0.8c-0.7,1.7-2.4,2.7-4.3,2.6C639.9,569.8,638.1,567.6,638.1,564z"/>
<path d="M648.7,567.7l1.2-1c0.8,1.1,2,1.7,3.3,1.7c1.5,0,2.3-0.7,2.3-1.8c0-0.9-0.5-1.5-1.9-1.8l-0.9-0.1c-2.1-0.3-3.6-1.2-3.6-3.2
	s1.7-3.3,4-3.3c1.5-0.1,3,0.6,3.9,1.8l-1.1,1c-0.7-0.9-1.7-1.4-2.9-1.4c-1.4,0-2.2,0.7-2.2,1.7s0.8,1.5,2.1,1.7l0.9,0.1
	c2.5,0.4,3.4,1.5,3.4,3.1c0,2.2-1.6,3.5-4.1,3.5C651.4,569.9,649.8,569.1,648.7,567.7z"/>
<path d="M466.5,588.7h-7.6v6.8H457v-15.1h1.8v6.7h7.6v-6.7h1.8v15.1h-1.8L466.5,588.7z"/>
<path d="M471.3,589.9c0-3.5,2-5.8,5-5.8s4.8,2.3,4.8,5.4v0.8h-8v0.5c-0.1,1.7,1.2,3.2,2.9,3.4c0.1,0,0.2,0,0.4,0
	c1.3,0,2.5-0.7,3.1-1.9l1.2,0.9c-0.8,1.6-2.6,2.6-4.4,2.5C473.3,595.8,471.3,593.5,471.3,589.9z M473.1,588.9v0.2h6.2v-0.2
	c0.2-1.6-1.1-3.1-2.7-3.3c-0.1,0-0.2,0-0.3,0c-1.8,0-3.2,1.4-3.2,3.2C473.1,588.8,473.1,588.9,473.1,588.9L473.1,588.9z"/>
<path d="M485.8,595.5c-0.9,0.1-1.8-0.6-1.8-1.6c0-0.1,0-0.2,0-0.2v-14.2h1.7V594h1.6v1.5H485.8z"/>
<path d="M489.9,584.4h1.7v1.8h0.1c0.5-1.3,1.8-2.2,3.3-2.1c2.8,0,4.5,2.3,4.5,5.8s-1.8,5.8-4.5,5.8c-1.4,0.1-2.7-0.8-3.3-2.1h-0.1
	v6.1h-1.7V584.4z M497.6,590.9V589c0.2-1.6-1-3.1-2.7-3.3c-0.2,0-0.3,0-0.5,0c-1.6,0-2.9,0.9-2.9,2.1v4.2c0,1.5,1.3,2.3,2.9,2.3
	c1.7,0.1,3.1-1.2,3.2-2.8C497.7,591.3,497.7,591.1,497.6,590.9z"/>
<path d="M514.4,584.4h1.7l-5,13.7c-0.5,1.3-1,1.7-2.6,1.7h-0.9v-1.5h1.8l0.8-2.4l-4.2-11.6h1.7l2.7,7.6l0.5,1.8h0.1l0.6-1.8
	L514.4,584.4z"/>
<path d="M517.4,589.9c0-3.5,2-5.8,5-5.8s5,2.3,5,5.8s-2,5.8-5,5.8S517.4,593.5,517.4,589.9z M525.6,590.7v-1.6
	c0-2.3-1.3-3.5-3.2-3.5s-3.2,1.2-3.2,3.5v1.6c0,2.4,1.3,3.5,3.2,3.5S525.6,593.1,525.6,590.7z"/>
<path d="M537.1,593.7L537.1,593.7c-0.5,1.3-1.8,2.2-3.2,2.1c-2.3,0-3.8-1.5-3.8-4.3v-7.2h1.7v6.8c0,2,0.9,3,2.5,3
	c1.4,0,2.7-0.7,2.7-2.1v-7.7h1.7v11.2h-1.7L537.1,593.7z"/>
<path d="M542.5,595.5v-11.2h1.7v2h0.1c0.5-1.3,1.8-2.1,3.2-2h0.7v1.7h-1c-1.8,0-3,0.8-3,1.8v7.6L542.5,595.5z"/>
<path d="M554.8,589.9c0-3.6,1.8-5.8,5-5.8c1.8-0.1,3.5,0.9,4.2,2.6l-1.5,0.7c-0.4-1.2-1.5-1.9-2.7-1.8c-2,0-3.1,1.4-3.1,3.3v1.9
	c0,2,1.1,3.3,3.1,3.3c1.3,0,2.5-0.7,3-1.9l1.3,0.8c-0.7,1.7-2.4,2.7-4.3,2.6C556.6,595.8,554.8,593.5,554.8,589.9z"/>
<path d="M565.5,589.9c0-3.5,2-5.8,5-5.8s5,2.3,5,5.8s-2,5.8-5,5.8S565.5,593.5,565.5,589.9z M573.7,590.7v-1.6
	c0-2.3-1.3-3.5-3.2-3.5s-3.2,1.2-3.2,3.5v1.6c0,2.4,1.3,3.5,3.2,3.5S573.7,593.1,573.7,590.7z"/>
<path d="M578.4,595.5v-11.2h1.7v1.8h0.1c0.4-1.3,1.6-2.1,3-2.1c1.5-0.1,2.9,0.8,3.4,2.3l0,0c0.5-1.4,1.9-2.4,3.4-2.3
	c2.3,0,3.6,1.6,3.6,4.3v7.2H592v-6.8c0-2-0.8-3-2.4-3c-1.4,0-2.6,0.7-2.6,2.1v7.7h-1.7v-6.8c0-2-0.8-3-2.4-3c-1.4,0-2.7,0.7-2.7,2.1
	v7.7H578.4z"/>
<path d="M597.3,595.5v-11.2h1.7v1.8h0.1c0.4-1.3,1.6-2.1,3-2.1c1.5-0.1,2.9,0.8,3.4,2.3l0,0c0.5-1.4,1.9-2.4,3.4-2.3
	c2.3,0,3.6,1.6,3.6,4.3v7.2h-1.7v-6.8c0-2-0.8-3-2.4-3c-1.4,0-2.6,0.7-2.6,2.1v7.7H604v-6.8c0-2-0.8-3-2.4-3c-1.4,0-2.7,0.7-2.7,2.1
	v7.7H597.3z"/>
<path d="M623,593.7L623,593.7c-0.5,1.3-1.8,2.2-3.2,2.1c-2.3,0-3.8-1.5-3.8-4.3v-7.2h1.7v6.8c0,2,0.9,3,2.5,3c1.4,0,2.7-0.7,2.7-2.1
	v-7.7h1.7v11.2H623V593.7z"/>
<path d="M628.4,595.5v-11.2h1.7v1.8h0.1c0.5-1.3,1.8-2.2,3.2-2.1c2.3,0,3.7,1.6,3.7,4.3v7.2h-1.7v-6.8c0-2-0.9-3-2.5-3
	c-1.4,0-2.7,0.7-2.7,2.1v7.7H628.4z"/>
<path d="M640.5,580.8v-0.3c0-0.6,0.3-1,1.1-1s1.1,0.4,1.1,1v0.3c0,0.6-0.3,1-1.1,1S640.5,581.4,640.5,580.8z M640.7,584.4h1.7v11.2
	h-1.7V584.4z"/>
<path d="M648.5,595.5c-0.9,0.1-1.8-0.6-1.8-1.6c0-0.1,0-0.2,0-0.3v-7.8h-1.8v-1.5h1c0.7,0,1-0.3,1-1v-2.1h1.5v3.1h2.4v1.5h-2.4v8.1
	h2.3v1.5H648.5z"/>
<path d="M660.5,584.4h1.7l-5,13.7c-0.5,1.3-1,1.7-2.6,1.7h-0.9v-1.5h1.8l0.8-2.4l-4.2-11.6h1.7l2.7,7.6l0.5,1.8h0.1l0.6-1.8
	L660.5,584.4z"/>
<path class="st9" d="M294.9,693H153.5c-6,0-11.5,3.2-14.4,8.3L68.4,823.8c-3,5.2-3,11.5,0,16.7l70.7,122.4c3,5.2,8.5,8.3,14.4,8.3
	h141.4c6,0,11.5-3.2,14.4-8.3L380,840.4c3-5.2,3-11.5,0-16.7l-70.7-122.4C306.3,696.2,300.8,693,294.9,693z"/>
<circle class="st10" cx="159.8" cy="747.4" r="31.7"/>
<circle class="st11" cx="173.1" cy="916.8" r="31.7"/>
<circle class="st11" cx="291.9" cy="830.1" r="21.7"/>
<path class="st5" d="M135.4,771.2h6.6l11.8,22.1h0.2l11.8-22.1h6.4v41.1h-4.8v-34.6h-0.3l-3.5,6.9l-9.8,17.9l-9.8-17.9l-3.5-6.9
	h-0.3v34.6h-4.8L135.4,771.2z"/>
<path class="st5" d="M180.5,797.1c0-9.7,5.4-15.9,13.7-15.9s13.1,6.2,13.1,14.8v2.2h-21.8v1.4c0,5.2,3.4,9.2,9,9.2
	c3.6,0.1,6.9-1.9,8.4-5.2l3.4,2.4c-1.9,4.1-6.3,6.9-12,6.9C185.9,813,180.5,806.7,180.5,797.1z M185.4,794.3v0.4h16.8v-0.6
	c0-5.4-3.2-9-8.1-9C189,785.1,185.4,789,185.4,794.3z"/>
<path class="st5" d="M215,812.3v-30.4h4.7v5h0.3c1.3-3.6,4.8-5.9,8.6-5.7c6.2,0,10.2,4.2,10.2,11.6v19.5H234v-18.7
	c0-5.4-2.4-8.2-6.9-8.2c-3.8,0-7.4,1.9-7.4,5.8v21.1H215z"/>
<path class="st5" d="M255.2,812.3c-2.6,0.2-4.8-1.7-5-4.2c0-0.2,0-0.5,0-0.8V786h-5v-4.1h2.8c2,0,2.6-0.7,2.6-2.8v-5.7h4.2v8.4h6.7
	v4.1h-6.6v22.1h6.2v4.1L255.2,812.3z"/>
<path class="st5" d="M266.7,797.1c0-9.7,5.6-15.9,13.7-15.9s13.7,6.2,13.7,15.9s-5.6,15.9-13.7,15.9S266.7,806.7,266.7,797.1z
	 M289,799.3v-4.4c0-6.4-3.6-9.5-8.6-9.5s-8.7,3.1-8.7,9.5v4.4c0,6.4,3.6,9.5,8.7,9.5S289,805.7,289,799.3z"/>
<path class="st5" d="M301.9,812.3v-30.4h4.7v5.6h0.3c1.1-2.9,3.8-5.6,8.8-5.6h1.8v4.7h-2.8c-5.1,0-8.1,2.2-8.1,5.1v20.6H301.9z"/>
<path class="st5" d="M108.2,836v11.5c0,3.5,1.1,5.4,4.4,5.4s4.4-1.8,4.4-5.4V836h2.2v10.9c0,5.4-1.8,7.9-6.7,7.9s-6.6-2.5-6.6-7.9
	V836H108.2z"/>
<path class="st5" d="M122.5,852.1l1.5-1.2c0.9,1.3,2.4,2.1,4.1,2.1c1.8,0,2.9-0.8,2.9-2.2c0-1.1-0.6-1.9-2.4-2.2l-1.1-0.2
	c-2.5-0.4-4.4-1.4-4.4-3.9c0-2.7,2.1-4,4.9-4c1.9-0.1,3.6,0.7,4.8,2.2l-1.4,1.3c-0.8-1.1-2.1-1.7-3.5-1.7c-1.8,0-2.7,0.8-2.7,2.1
	s0.9,1.8,2.6,2.1l1.1,0.2c3,0.5,4.2,1.8,4.2,3.8c0,2.7-1.9,4.3-5.1,4.3C125.8,854.9,123.7,853.9,122.5,852.1z"/>
<path class="st5" d="M135.7,847.6c0-4.3,2.4-7.2,6.1-7.2s5.9,2.8,5.9,6.7v1h-9.8v0.6c-0.1,2.1,1.5,4,3.6,4.1c0.2,0,0.3,0,0.5,0
	c1.6,0.1,3.1-0.9,3.8-2.4l1.5,1.1c-1,2-3.1,3.2-5.4,3.1C138.1,854.8,135.7,852,135.7,847.6z M137.9,846.4v0.2h7.6v-0.3
	c0-2.4-1.5-4-3.6-4c-2.1,0-3.9,1.7-3.9,3.8C137.9,846.2,137.9,846.3,137.9,846.4z"/>
<path class="st5" d="M160.5,854.5c-1.2,0.1-2.2-0.8-2.3-1.9c0-0.1,0-0.2,0-0.3v-9.6H156v-1.9h1.3c0.9,0,1.2-0.3,1.2-1.2V837h1.9v3.8
	h3v1.9h-3v10h2.8v1.9L160.5,854.5z"/>
<path class="st5" d="M166.8,834.9h2.1v8.1h0.1c0.6-1.6,2.2-2.6,3.9-2.5c2.8,0,4.6,1.9,4.6,5.2v8.8h-2.1V846c0-2.4-1.1-3.7-3.1-3.7
	c-1.7,0-3.3,0.8-3.3,2.6v9.5h-2.1L166.8,834.9z"/>
<path class="st5" d="M180.9,847.6c0-4.3,2.4-7.2,6.1-7.2s5.9,2.8,5.9,6.7v1h-9.8v0.6c-0.1,2.1,1.5,4,3.6,4.1c0.2,0,0.3,0,0.5,0
	c1.6,0,3.1-0.9,3.8-2.4l1.5,1.1c-1,2-3.1,3.2-5.4,3.1C183.3,854.8,180.9,852,180.9,847.6z M183.1,846.4v0.2h7.6v-0.3
	c0-2.4-1.4-4-3.6-4c-2.1,0-3.9,1.7-3.9,3.9C183.1,846.2,183.1,846.3,183.1,846.4z"/>
<path class="st5" d="M201.4,852.1l1.5-1.2c0.9,1.3,2.4,2.1,4.1,2.1c1.8,0,2.9-0.8,2.9-2.2c0-1.1-0.6-1.9-2.4-2.2l-1.1-0.2
	c-2.5-0.4-4.4-1.4-4.4-3.9c0-2.7,2.1-4,4.9-4c1.9-0.1,3.6,0.7,4.8,2.2l-1.4,1.3c-0.8-1.1-2.2-1.7-3.5-1.7c-1.8,0-2.7,0.8-2.7,2.1
	s0.9,1.8,2.6,2.1l1.1,0.2c3,0.5,4.2,1.8,4.2,3.8c0,2.7-1.9,4.3-5.1,4.3C204.6,854.9,202.6,853.9,201.4,852.1z"/>
<path class="st5" d="M215.6,834.9h2.1v12.4h0.1l2.1-2.3l3.9-4.2h2.6l-5.1,5.4l5.6,8.3h-2.6l-4.5-7l-2,2.1v4.9h-2.1L215.6,834.9z"/>
<path class="st5" d="M229.3,836.4v-0.3c0-0.7,0.4-1.2,1.3-1.2s1.3,0.5,1.3,1.2v0.3c0,0.7-0.4,1.2-1.3,1.2S229.3,837.1,229.3,836.4z
	 M229.5,840.8h2.1v13.7h-2.1V840.8z"/>
<path class="st5" d="M238.4,854.5c-1.1,0.1-2.1-0.7-2.2-1.9c0-0.1,0-0.2,0-0.3v-17.4h2.1v17.8h2v1.9H238.4z"/>
<path class="st5" d="M245.5,854.5c-1.1,0.1-2.2-0.8-2.2-1.9c0-0.1,0-0.2,0-0.3v-17.4h2.1v17.8h2v1.9H245.5z"/>
<path class="st5" d="M249.1,852.1l1.5-1.2c0.9,1.3,2.4,2.1,4.1,2.1c1.8,0,2.9-0.8,2.9-2.2c0-1.1-0.6-1.9-2.4-2.2l-1.1-0.2
	c-2.5-0.4-4.4-1.4-4.4-3.9c0-2.7,2.1-4,4.9-4c1.9-0.1,3.6,0.7,4.8,2.2l-1.4,1.3c-0.8-1.1-2.2-1.7-3.5-1.7c-1.8,0-2.7,0.8-2.7,2.1
	s0.9,1.8,2.6,2.1l1.1,0.2c3,0.5,4.2,1.8,4.2,3.8c0,2.7-1.9,4.3-5.1,4.3C252.4,854.9,250.4,853.9,249.1,852.1z"/>
<path class="st5" d="M278,840.8h2.1l-6.1,16.9c-0.6,1.6-1.2,2.1-3.2,2.1h-1.1v-1.8h2.1l1-2.9l-5.1-14.2h2.1l3.3,9.3l0.6,2.2h0.2
	l0.8-2.2L278,840.8z"/>
<path class="st5" d="M281.7,847.6c0-4.3,2.5-7.2,6.2-7.2s6.2,2.8,6.2,7.2s-2.5,7.2-6.2,7.2S281.7,852,281.7,847.6z M291.7,848.6v-2
	c0-2.9-1.6-4.3-3.9-4.3s-3.9,1.4-3.9,4.3v2c0,2.9,1.6,4.3,3.9,4.3S291.7,851.5,291.7,848.6L291.7,848.6z"/>
<path class="st5" d="M305.9,852.3h-0.1c-0.6,1.6-2.1,2.7-3.8,2.5c-2.8,0-4.6-1.9-4.6-5.2v-8.8h2.1v8.4c0,2.4,1.1,3.7,3.1,3.7
	c1.7,0,3.3-0.8,3.3-2.6v-9.5h2.1v13.7H306L305.9,852.3z"/>
<path class="st5" d="M315.9,836.2v0.4c-0.1,1.8-1,3.5-2.4,4.7h-1.8c1-0.9,1.7-2,2-3.3c-0.6-0.1-1.1-0.7-1-1.4v-0.4
	c0.1-0.9,0.9-1.6,1.7-1.5C315.3,834.7,315.9,835.4,315.9,836.2L315.9,836.2z"/>
<path class="st5" d="M322.7,854.5l-4.8-13.7h2.1l2.4,6.8l1.5,4.7h0.1l1.5-4.7l2.4-6.8h2l-4.8,13.7H322.7z"/>
<path class="st5" d="M331.5,847.6c0-4.3,2.4-7.2,6.1-7.2s5.9,2.8,5.9,6.7v1h-9.8v0.6c-0.1,2.1,1.5,4,3.6,4.1c0.2,0,0.3,0,0.5,0
	c1.6,0.1,3.1-0.9,3.8-2.4l1.5,1.1c-1,2-3.1,3.2-5.4,3.1C333.9,854.8,331.5,852,331.5,847.6z M333.7,846.4v0.2h7.5v-0.3
	c0-2.4-1.5-4-3.6-4c-2.1,0-3.9,1.7-3.9,3.8C333.7,846.2,333.7,846.3,333.7,846.4z"/>
<path class="st5" d="M106.4,886.3c-1.1,0.1-2.1-0.7-2.2-1.9c0-0.1,0-0.2,0-0.3v-17.4h2.1v17.8h2v1.8L106.4,886.3z"/>
<path class="st5" d="M110.4,879.4c0-4.3,2.4-7.2,6.2-7.2s5.9,2.8,5.9,6.7v1h-9.8v0.6c-0.1,2.1,1.5,4,3.6,4.1c0.2,0,0.3,0,0.5,0
	c1.6,0,3.1-0.9,3.8-2.4l1.5,1.1c-1,2-3.1,3.2-5.4,3.1C112.8,886.6,110.4,883.8,110.4,879.4z M112.6,878.2v0.2h7.6v-0.3
	c0-2.4-1.4-4-3.6-4c-2.1,0-3.9,1.7-3.9,3.9C112.6,878,112.6,878.1,112.6,878.2z"/>
<path class="st5" d="M135.9,886.3c-1.2,0.1-2.3-0.8-2.4-2c0-0.1,0-0.1,0-0.2h-0.1c-0.6,1.6-2.2,2.7-3.9,2.5c-2.9,0-4.6-1.6-4.6-4.1
	s1.8-4,5.8-4h2.7v-1.4c0-1.9-1.1-3-3.2-3c-1.4,0-2.8,0.7-3.5,2l-1.3-1.1c1-1.8,2.9-2.8,4.9-2.7c3.3,0,5.2,1.7,5.2,4.6v7.5h1.6v1.8
	L135.9,886.3z M133.4,882.3V880h-2.8c-2.4,0-3.5,0.8-3.5,2.1v0.6c0,1.3,1.1,2.1,2.7,2.1C131.9,884.8,133.4,883.7,133.4,882.3
	L133.4,882.3z"/>
<path class="st5" d="M140.1,886.3v-13.7h2.1v2.5h0.1c0.6-1.6,2.3-2.7,4-2.5h0.8v2.1h-1.3c-2.3,0-3.7,1-3.7,2.3v9.3H140.1z"/>
<path class="st5" d="M149.8,886.3v-13.7h2.1v2.2h0.1c0.6-1.6,2.2-2.6,3.9-2.5c2.8,0,4.6,1.9,4.6,5.2v8.8h-2.1v-8.4
	c0-2.4-1.1-3.7-3.1-3.7c-1.7,0-3.3,0.8-3.3,2.6v9.5L149.8,886.3z"/>
<path class="st5" d="M163.9,879.4c0-4.3,2.4-7.2,6.1-7.2s5.9,2.8,5.9,6.7v1h-9.8v0.6c-0.1,2.1,1.5,4,3.6,4.1c0.2,0,0.3,0,0.5,0
	c1.6,0,3.1-0.9,3.8-2.4l1.5,1.1c-1,2-3.1,3.2-5.4,3.1C166.3,886.6,163.9,883.8,163.9,879.4z M166.1,878.2v0.2h7.6v-0.3
	c0-2.4-1.5-4-3.6-4c-2.1,0-3.9,1.7-3.9,3.8C166.1,878,166.1,878.1,166.1,878.2z"/>
<path class="st5" d="M188.2,884h-0.1c-0.7,1.6-2.3,2.6-4,2.5c-3.4,0-5.6-2.8-5.6-7.2s2.1-7.2,5.6-7.2c1.7-0.1,3.4,0.9,4,2.5h0.1
	v-8.2h2.1v19.6h-2.1V884z M188.2,881.9v-5.1c0-1.5-1.6-2.6-3.5-2.6c-2.1-0.1-3.8,1.5-3.9,3.6c0,0.2,0,0.3,0,0.5v2.3
	c-0.2,2.1,1.3,3.9,3.4,4.1c0.2,0,0.3,0,0.5,0C186.6,884.7,188.2,883.7,188.2,881.9L188.2,881.9z"/>
<path class="st5" d="M204.1,886.3c-1.1,0.1-2.2-0.7-2.3-1.9c0-0.1,0-0.3,0-0.4v-9.6h-2.3v-1.8h1.3c0.9,0,1.2-0.3,1.2-1.3v-2.5h1.9
	v3.8h3v1.8h-3v10h2.8v1.8L204.1,886.3z"/>
<path class="st5" d="M209.2,879.4c0-4.3,2.5-7.2,6.2-7.2s6.2,2.8,6.2,7.2s-2.5,7.2-6.2,7.2S209.2,883.8,209.2,879.4z M219.3,880.4
	v-2c0-2.9-1.6-4.3-3.9-4.3s-3.9,1.4-3.9,4.3v2c0,2.9,1.6,4.3,3.9,4.3S219.3,883.3,219.3,880.4L219.3,880.4z"/>
<path class="st5" d="M231.3,866.7h2.1v8.2h0.1c0.6-1.6,2.2-2.6,3.9-2.5c2.8,0,4.6,1.9,4.6,5.2v8.8h-2.1v-8.4c0-2.4-1.1-3.7-3.1-3.7
	c-1.7,0-3.3,0.8-3.3,2.6v9.5h-2.1V866.7z"/>
<path class="st5" d="M245.4,879.4c0-4.3,2.4-7.2,6.1-7.2s5.9,2.8,5.9,6.7v1h-9.8v0.6c-0.1,2.1,1.5,4,3.6,4.1c0.1,0,0.3,0,0.4,0
	c1.6,0,3.1-0.9,3.8-2.4l1.5,1.1c-1,2-3.1,3.2-5.4,3.1C247.8,886.6,245.4,883.8,245.4,879.4z M247.6,878.2v0.2h7.6v-0.3
	c0-2.4-1.5-4-3.6-4c-2.1,0-3.9,1.7-3.9,3.8C247.6,878,247.6,878.1,247.6,878.2z"/>
<path class="st5" d="M263.2,886.3c-1.1,0.1-2.1-0.7-2.2-1.9c0-0.1,0-0.2,0-0.3v-17.4h2.1v17.8h2v1.8L263.2,886.3z"/>
<path class="st5" d="M268.1,872.6h2.1v2.2h0.1c0.6-1.6,2.3-2.7,4-2.5c3.4,0,5.6,2.8,5.6,7.2s-2.1,7.2-5.6,7.2
	c-1.7,0.1-3.3-0.9-4-2.5h-0.1v7.5h-2.1V872.6z M277.6,880.6v-2.3c0-2.4-1.5-4.1-3.9-4.1c-1.9,0-3.5,1.1-3.5,2.6v5.1
	c0,1.8,1.6,2.8,3.5,2.8C276.1,884.7,277.6,883,277.6,880.6z"/>
<path class="st5" d="M298.2,872.6h2.1l-6.1,16.8c-0.6,1.7-1.2,2.1-3.2,2.1h-1.1v-1.8h2.1l1-2.9l-5.1-14.2h2.1l3.3,9.3l0.6,2.2h0.1
	l0.7-2.2L298.2,872.6z"/>
<path class="st5" d="M301.8,879.4c0-4.3,2.5-7.2,6.2-7.2s6.2,2.8,6.2,7.2s-2.5,7.2-6.2,7.2S301.8,883.8,301.8,879.4z M311.9,880.4
	v-2c0-2.9-1.6-4.3-3.9-4.3s-3.9,1.4-3.9,4.3v2c0,2.9,1.6,4.3,3.9,4.3S311.9,883.3,311.9,880.4L311.9,880.4z"/>
<path class="st5" d="M326.1,884L326.1,884c-0.6,1.6-2.2,2.7-3.9,2.5c-2.8,0-4.6-1.9-4.6-5.2v-8.8h2.1v8.4c0,2.4,1.1,3.7,3.1,3.7
	c1.7,0,3.3-0.8,3.3-2.6v-9.5h2.1v13.7h-2.1L326.1,884z"/>
<path class="st5" d="M332.7,886.3v-13.7h2.1v2.5h0.2c0.6-1.6,2.2-2.6,3.9-2.5h0.8v2.1h-1.3c-2.3,0-3.7,1-3.7,2.3v9.3H332.7z"/>
<path class="st5" d="M158.7,911.2c0-4.4,2.3-7.2,6.1-7.2c2.2-0.2,4.3,1.1,5.1,3.2l-1.8,0.9c-0.5-1.4-1.9-2.3-3.3-2.2
	c-2.5,0-3.8,1.7-3.8,4.1v2.3c0,2.4,1.3,4.1,3.8,4.1c1.6,0.1,3.1-0.9,3.7-2.4l1.5,1c-0.9,2.1-3,3.4-5.3,3.2
	C160.9,918.4,158.7,915.6,158.7,911.2z"/>
<path class="st5" d="M171.9,911.2c0-4.3,2.5-7.2,6.2-7.2s6.2,2.8,6.2,7.2s-2.5,7.2-6.2,7.2S171.9,915.6,171.9,911.2z M181.9,912.2
	v-2c0-2.9-1.6-4.3-3.9-4.3s-3.9,1.4-3.9,4.3v2c0,2.9,1.6,4.3,3.9,4.3S181.9,915.1,181.9,912.2L181.9,912.2z"/>
<path class="st5" d="M187.7,918.1v-13.7h2.1v2.2h0.1c0.5-1.6,2-2.6,3.7-2.5c1.9-0.1,3.6,1,4.2,2.8h0.1c0.6-1.8,2.3-2.9,4.2-2.8
	c2.8,0,4.4,1.9,4.4,5.2v8.8h-2.1v-8.4c0-2.4-0.9-3.7-3-3.7c-1.7,0-3.2,0.8-3.2,2.6v9.5H196v-8.4c0-2.4-0.9-3.7-2.9-3.7
	c-1.7,0-3.3,0.8-3.3,2.6v9.5H187.7z"/>
<path class="st5" d="M210.8,918.1v-13.7h2.1v2.2h0.1c0.5-1.6,2-2.6,3.7-2.5c1.9-0.1,3.6,1,4.2,2.8h0.1c0.6-1.8,2.3-2.9,4.2-2.8
	c2.8,0,4.4,1.9,4.4,5.2v8.8h-2.1v-8.4c0-2.4-0.9-3.7-3-3.7c-1.7,0-3.2,0.8-3.2,2.6v9.5h-2.1v-8.4c0-2.4-0.9-3.7-2.9-3.7
	c-1.7,0-3.3,0.8-3.3,2.6v9.5H210.8z"/>
<path class="st5" d="M242.4,915.8h-0.1c-0.6,1.6-2.1,2.7-3.8,2.5c-2.8,0-4.6-1.9-4.6-5.2v-8.8h2.1v8.4c0,2.4,1.1,3.7,3.1,3.7
	c1.7,0,3.3-0.8,3.3-2.6v-9.5h2.1v13.7h-2.1V915.8z"/>
<path class="st5" d="M249,918.1v-13.7h2.1v2.2h0.1c0.6-1.6,2.2-2.6,3.9-2.5c2.8,0,4.6,1.9,4.6,5.2v8.8h-2.1v-8.4
	c0-2.4-1.1-3.7-3.1-3.7c-1.7,0-3.3,0.8-3.3,2.6v9.5H249z"/>
<path class="st5" d="M263.8,900v-0.3c0-0.7,0.4-1.2,1.3-1.2s1.3,0.5,1.3,1.2v0.3c0,0.7-0.4,1.2-1.3,1.2S263.8,900.7,263.8,900z
	 M264,904.4h2.1v13.7H264L264,904.4z"/>
<path class="st5" d="M273.7,918.1c-1.2,0.1-2.2-0.8-2.3-1.9c0-0.1,0-0.2,0-0.3v-9.6h-2.3v-1.9h1.3c0.9,0,1.2-0.3,1.2-1.2v-2.6h1.9
	v3.8h3v1.9h-3v10h2.8v1.9L273.7,918.1z"/>
<path class="st5" d="M288.4,904.4h2.1l-6.1,16.9c-0.6,1.6-1.2,2.1-3.2,2.1h-1.1v-1.9h2.1l1-2.9l-5.1-14.2h2.1l3.3,9.3l0.6,2.2h0.1
	l0.7-2.2L288.4,904.4z"/>
<g id="Center_Fin">
	<path id="Outer_Fin" class="st12" d="M422,752.6c-1.1,0.8-1.7,1.4-1.5,1.8c0.5,1.5,9.8-0.6,20.7-4.6s19.3-8.4,18.8-9.9
		c-0.1-0.4-1-0.5-2.4-0.4c-2.9,2-9.4,5.1-17.2,8S425.5,752.3,422,752.6z"/>
	
		<ellipse id="Inner_Fin" transform="matrix(0.9388 -0.3445 0.3445 0.9388 -230.0875 197.1537)" class="st13" cx="439.8" cy="746.1" rx="18.9" ry="1.6"/>
</g>
<g id="Left_Fin">
	<path id="Outer_Fin-2" class="st12" d="M466.8,767.2c-2.6,2.6-5.7,4.7-9.2,5.9c-8.9,3.3-18.2,1.2-22.8-4.7c-2.5,1.2-5.2,2.3-8,3.4
		c5.7,7.9,17.9,10.9,29.7,6.6c5.5-1.9,10.3-5.4,13.8-10C469.1,768.1,467.9,767.7,466.8,767.2z"/>
	<path id="Inner_Fin-2" class="st13" d="M454.1,757.6c-6.1,4.2-12.5,7.8-19.2,10.9c4.6,5.8,13.8,7.9,22.8,4.7
		c3.5-1.3,6.6-3.3,9.2-5.9C461.8,765,457.5,761.7,454.1,757.6z"/>
</g>
<g id="Right_Fin">
	<path id="Outer_Fin-3" class="st12" d="M447.5,714.8c-3.7-0.4-7.4,0.1-10.8,1.4c-8.9,3.3-14.6,10.9-14.3,18.3
		c-2.7,0.8-5.5,1.6-8.3,2.5c-0.8-9.7,6.6-19.9,18.4-24.2c5.4-2,11.3-2.5,17-1.3C448.7,712.5,448.1,713.6,447.5,714.8z"/>
	<path id="Inner_Fin-3" class="st13" d="M444,730.3c-7.3,0.7-14.6,2.1-21.7,4.1c-0.3-7.4,5.4-15,14.3-18.3c3.5-1.3,7.2-1.8,10.8-1.4
		C445.2,719.6,444,724.9,444,730.3z"/>
</g>
<path id="Engine" class="st14" d="M467,745.3l-5.1-14c-3.4-1-6.9-1.4-10.4-1.4l8.5,23.2C462.6,750.9,465,748.3,467,745.3z"/>
<path id="Nose_Cone" class="st15" d="M363.6,775.3c3.4-7.2,12.5-18.3,20.7-24.8l11.1,30.4C384.9,781.2,373.1,779.7,363.6,775.3z"/>
<path id="Body" class="st16" d="M395.5,780.9c9.3-1.6,18.4-4,27.2-7.3c15.7-5.8,29-13.2,37.3-20.4l-8.5-23.2
	c-11-0.1-25.9,2.8-41.6,8.5c-8.8,3.2-17.4,7.2-25.4,12L395.5,780.9z"/>
<circle class="st17" cx="407.4" cy="759.2" r="7"/>
<path class="st18" d="M398.6,762.5c1.8,4.8,7.2,7.3,12,5.5c4.8-1.8,7.3-7.2,5.5-12c-1.8-4.8-7.1-7.3-12-5.5
	C399.3,752.2,396.9,757.6,398.6,762.5z M414,756.8c1.3,3.6-0.5,7.7-4.2,9c-3.6,1.3-7.7-0.5-9-4.2c-1.3-3.6,0.5-7.6,4.1-9
	C408.6,751.3,412.7,753.2,414,756.8C414,756.8,414,756.8,414,756.8z"/>
</svg>
