<svg id="Contours" xmlns="http://www.w3.org/2000/svg" viewBox="0 0 1375.4 1375.4"><defs><style>.cls-1{fill:#abfffe;}</style></defs><path class="cls-1" d="M143.91,862.74h58.4v9.89H155v28.73h46.37v9.89H155V942h47.31v9.89h-58.4Z"/><path class="cls-1" d="M234.64,862.74h12.7l30.06,77,30.07-77h12.69l-35.94,89.13H270.45Z"/><path class="cls-1" d="M355.71,862.74H414.1v9.89H366.8v28.73h46.37v9.89H366.8V942h47.3v9.89H355.71Z"/><path class="cls-1" d="M484.52,916.46H466.75v35.41H455.66V862.74h35.81c16.3,0,27.93,10.42,27.93,26.86,0,16-11,24.85-23.12,25.92l24.05,36.35H507.24Zm5.61-43.83H466.75V906.7h23.38c10.56,0,17.77-7.08,17.77-17.1S500.69,872.63,490.13,872.63Z"/><path class="cls-1" d="M584.61,914.19l-35.15-51.45h13l27.65,41.42,27.66-41.42h13l-35,51.45v37.68H584.61Z"/><path class="cls-1" d="M714.76,880l-19.65,71.89h-12L657.7,862.74H670L689.77,937l20.44-74.3h9.22L739.88,937l19.64-74.3h12.29l-25.39,89.13h-12Z"/><path class="cls-1" d="M871.37,911H819.25v40.89H808.16V862.74h11.09v38.35h52.12V862.74h11.09v89.13H871.37Z"/><path class="cls-1" d="M927.22,862.74h58.4v9.89H938.31v28.73h46.37v9.89H938.31V942h47.31v9.89h-58.4Z"/><path class="cls-1" d="M1056,916.46h-17.78v35.41h-11.09V862.74H1063c16.3,0,27.92,10.42,27.92,26.86,0,16-11,24.85-23.12,25.92l24.06,36.35h-13.1Zm5.61-43.83h-23.39V906.7h23.39c10.55,0,17.77-7.08,17.77-17.1s-7.22-17-17.77-17Z"/><path class="cls-1" d="M1132.34,862.74h58.39v9.89h-47.3v28.73h46.36v9.89h-46.36V942h47.3v9.89h-58.39Z"/><path class="cls-1" d="M687.7,0C307.9,0,0,307.9,0,687.7s307.9,687.7,687.7,687.7,687.7-307.9,687.7-687.7S1067.5,0,687.7,0Zm0,1327.2c-353.2,0-639.5-286.3-639.5-639.5S334.5,48.2,687.7,48.2s639.5,286.3,639.5,639.5S1040.8,1327.2,687.7,1327.2Z"/><path class="cls-1" d="M485.44,762.64h-313c-1.51,0-2.93.08-4.44,0-1.78-.18-3.64-.63-5.42-.89.36-2.22.09-5.33,1.51-6.66a175,175,0,0,1,14-13.06c4.08-3.65,8.35-7.2,12.43-10.84,7.55-6.75,14.93-13.77,22.48-20.52,7.73-6.84,15.72-13.42,23.36-20.52s15-14.66,22.83-21.59c11.11-10.13,22.48-19.81,33.76-29.67,2-1.78,4.35-3.37,5.86-5.42,1.25-1.69,2-3.82-.53-5.68-5.86-4-11.73-8.18-17.32-12.44-10.4-8.26-20.61-16.7-31-24.87-7-5.6-14-10.93-21.14-16.35C218,565.78,207,557.52,196,549.08q-19.19-14.52-38.2-29.49c-3.1-2.4-6.39-4.62-9.23-7.29a15.38,15.38,0,0,1-2.85-4.7c-1.06-2.58.18-3.56,2.67-3.38,5.77.27,11.55.89,17.41,1q209.48,0,418.76-.18c7,0,10.39,2.75,13.23,8.26C604.39,526,611,538.6,618,551.12c10.48,19.1,21.41,37.94,32.16,56.86,7.46,13.23,14.92,26.65,22.29,39.88,4.8,8.62,9.42,17.41,14,26.12,1.33,2.67,2.4,3,3.91.09q12.52-22.52,25-45.13c9.33-16.61,18.74-33.22,28-49.83,9.06-16.44,17.86-32.87,26.92-49.31,4-7.46,8.17-14.92,12.61-22.2.8-1.25,3-1.87,4.8-2.4a18.13,18.13,0,0,1,4.44-.09H1225.6c1.51,0,2.93.89,4.44,1.24-.8,2.13-.89,5.07-2.49,6.31-7,5.6-14.57,10.57-21.67,16.08-13.24,10.39-26.12,21.23-39.53,31.45-10,7.81-20.7,14.83-30.74,22.56-11,8.35-21.5,17.41-32.42,25.94-7.38,5.77-14.93,11.19-22.48,16.61-4.53,3.2-4.88,5.51-.89,9.42s8.44,7.55,12.8,11.37c5.24,4.62,10.57,9.15,15.81,13.85,6.39,5.87,12.43,12.09,18.92,17.86,13.59,12.17,27.27,24,40.86,36.07,6.4,5.68,12.26,11.9,18.57,17.59,8.17,7.37,16.52,14.48,24.69,21.67,1.34,1.24,3.56,2.84,3.65,4.35.26,3.11-1.07,5-5.33,5q-155.64-.13-311.45-.09c-137.61.27-413.43.27-413.43.27m35.71-216.22c-1.78-5-5.24-6.49-10.39-6.49-50.46.18-100.92.09-151.29,0-7.37,0-14.74-.62-22.12-.89a60,60,0,0,0-6.84.09c-.71,0-1.24.89-1.86,1.33a9.36,9.36,0,0,0,1.33,1.34c2.67,1.51,5.6,2.57,8.08,4.26,7.29,5,14.22,10.48,21.59,15.46,13.06,8.7,26.29,17.05,39.35,25.85,10,6.75,19.81,13.77,29.67,21,2.58,1.87,5.33,4.09,6.84,6.75,6.49,11.11,3.56,23.63-7,32-4.8,3.73-9.86,7.29-14.48,11.29-10.22,8.61-19.9,17.67-30.3,26.11C368,696.81,352.37,708.8,336.91,721a8.76,8.76,0,0,0-1.15,2c.71.18,1.33.71,2,.71,4.62-.27,9.15-.89,13.77-1H608.3c3.37,0,5.5.53,2.93-4.09-6.66-12-12.62-24.25-18.83-36.33-7.38-14-14.93-27.89-22.21-41.84-7.73-14.83-15.19-29.76-23-44.5-8.44-16.35-17.32-32.69-26.56-49.48M923.83,722.66c37.76.27,75.42.71,113.18,1a35.92,35.92,0,0,0,4.26-.53c-1-1.07-2-2.05-3.11-3-5.24-4-10.57-7.72-15.63-11.9-8.44-6.84-16.7-13.95-25.06-21s-16.87-14.48-25.4-21.5c-6.4-5.33-12.88-10.48-19.46-15.72-8-6.31-15.54-12.88-13.41-24.7.89-5.24,1-10.75,5.95-14.21,6.31-4.44,12.71-8.71,19.1-13.15,10.22-7.28,20.34-14.66,30.65-21.67,7.28-5,14.83-9.69,22.3-14.57,10-6.58,20.16-13.15,30.11-19.72.62-.54,1-1.16,1.6-1.78-.89-.36-1.69-1.16-2.58-1.07-3.91.18-7.81.8-11.81.89q-84.75,0-169.41-.09c-3,0-5.33.36-6.75,3.73-3.2,6.84-6.84,13.59-10.48,20.26q-19.05,34.77-38,69.64c-7.64,14.3-15,28.78-22.56,43.26-3.38,6.31-6.76,12.62-10,18.84-4.09,8-8.17,16-12.17,24a18.48,18.48,0,0,0-1.25,3c1.34.36,2.67,1.07,4,1,2,0,3.91-.89,5.86-.89H924.28"/></svg>