<svg id="Contours" xmlns="http://www.w3.org/2000/svg" viewBox="0 0 5285 1375.4"><defs><style>.cls-1{fill:#abfffe;}</style></defs><path class="cls-1" d="M460,833.4H107.7c-1.7,0-3.3.1-5,0-2-.2-4.1-.7-6.1-1,.4-2.5.1-6,1.7-7.5a199.6,199.6,0,0,1,15.8-14.7c4.6-4.1,9.4-8.1,14-12.2,8.5-7.6,16.8-15.5,25.3-23.1,8.7-7.7,17.7-15.1,26.3-23.1s16.9-16.5,25.7-24.3c12.5-11.4,25.3-22.3,38-33.4,2.2-2,4.9-3.8,6.6-6.1,1.4-1.9,2.3-4.3-.6-6.4-6.6-4.5-13.2-9.2-19.5-14-11.7-9.3-23.2-18.8-34.9-28-7.9-6.3-15.8-12.3-23.8-18.4-12.3-9.4-24.7-18.7-37-28.2q-21.6-16.35-43-33.2c-3.5-2.7-7.2-5.2-10.4-8.2-1.4-1.3-2.3-3.4-3.2-5.3-1.2-2.9.2-4,3-3.8,6.5.3,13,1,19.6,1.1q235.8,0,471.4-.2c7.9,0,11.7,3.1,14.9,9.3,7.4,14.3,14.8,28.5,22.7,42.6,11.8,21.5,24.1,42.7,36.2,64,8.4,14.9,16.8,30,25.1,44.9,5.4,9.7,10.6,19.6,15.8,29.4,1.5,3,2.7,3.4,4.4.1q14.1-25.35,28.2-50.8c10.5-18.7,21.1-37.4,31.5-56.1,10.2-18.5,20.1-37,30.3-55.5,4.5-8.4,9.2-16.8,14.2-25,.9-1.4,3.4-2.1,5.4-2.7,1.5-.4,3.3-.1,5-.1h487.9c1.7,0,3.3,1,5,1.4-.9,2.4-1,5.7-2.8,7.1-7.9,6.3-16.4,11.9-24.4,18.1-14.9,11.7-29.4,23.9-44.5,35.4-11.3,8.8-23.3,16.7-34.6,25.4-12.4,9.4-24.2,19.6-36.5,29.2-8.3,6.5-16.8,12.6-25.3,18.7-5.1,3.6-5.5,6.2-1,10.6s9.5,8.5,14.4,12.8c5.9,5.2,11.9,10.3,17.8,15.6,7.2,6.6,14,13.6,21.3,20.1,15.3,13.7,30.7,27,46,40.6,7.2,6.4,13.8,13.4,20.9,19.8,9.2,8.3,18.6,16.3,27.8,24.4,1.5,1.4,4,3.2,4.1,4.9.3,3.5-1.2,5.6-6,5.6q-175.2-.15-350.6-.1c-154.9.3-465.4.3-465.4.3M499.6,590c-2-5.6-5.9-7.3-11.7-7.3-56.8.2-113.6.1-170.3,0-8.3,0-16.6-.7-24.9-1a65.92,65.92,0,0,0-7.7.1c-.8,0-1.4,1-2.1,1.5a10.63,10.63,0,0,0,1.5,1.5c3,1.7,6.3,2.9,9.1,4.8,8.2,5.6,16,11.8,24.3,17.4,14.7,9.8,29.6,19.2,44.3,29.1,11.3,7.6,22.3,15.5,33.4,23.6,2.9,2.1,6,4.6,7.7,7.6,7.3,12.5,4,26.6-7.9,36-5.4,4.2-11.1,8.2-16.3,12.7-11.5,9.7-22.4,19.9-34.1,29.4-17.1,13.9-34.7,27.4-52.1,41.1a9.73,9.73,0,0,0-1.3,2.2c.8.2,1.5.8,2.3.8,5.2-.3,10.3-1,15.5-1.1h289c3.8,0,6.2.6,3.3-4.6-7.5-13.5-14.2-27.3-21.2-40.9-8.3-15.8-16.8-31.4-25-47.1-8.7-16.7-17.1-33.5-25.9-50.1C520,627.3,510,608.9,499.6,590M953.5,788.4c42.5.3,84.9.8,127.4,1.1a38.86,38.86,0,0,0,4.8-.6c-1.1-1.2-2.3-2.3-3.5-3.4-5.9-4.5-11.9-8.7-17.6-13.4-9.5-7.7-18.8-15.7-28.2-23.7s-19-16.3-28.6-24.2c-7.2-6-14.5-11.8-21.9-17.7-9-7.1-17.5-14.5-15.1-27.8,1-5.9,1.1-12.1,6.7-16,7.1-5,14.3-9.8,21.5-14.8,11.5-8.2,22.9-16.5,34.5-24.4,8.2-5.6,16.7-10.9,25.1-16.4,11.3-7.4,22.7-14.8,33.9-22.2.7-.6,1.1-1.3,1.8-2-1-.4-1.9-1.3-2.9-1.2-4.4.2-8.8.9-13.3,1q-95.4,0-190.7-.1c-3.4,0-6,.4-7.6,4.2-3.6,7.7-7.7,15.3-11.8,22.8q-21.45,39.15-42.8,78.4c-8.6,16.1-16.9,32.4-25.4,48.7-3.8,7.1-7.6,14.2-11.3,21.2-4.6,9-9.2,18-13.7,27a20.1,20.1,0,0,0-1.4,3.4c1.5.4,3,1.2,4.5,1.1,2.2,0,4.4-1,6.6-1H954"/><path class="cls-1" d="M1523,521.4h206v35H1562v101h164v35H1562v109h167v35H1523Z"/><path class="cls-1" d="M1850.7,521.4h44.9l106.3,272,106.3-272h44.9l-127,315h-48.6Z"/><path class="cls-1" d="M2286,521.4h206v35H2325v101h164v35H2325v109h167v35H2286Z"/><path class="cls-1" d="M2747.7,711.4H2685v125h-39v-315h125.9c57.3,0,98.2,36.8,98.2,94.9,0,56.7-38.5,87.8-81.3,91.6l84.6,128.5h-45.5Zm19.7-155H2685v120h82.4c37.2,0,62.6-24.9,62.6-60.2S2804.5,556.4,2767.4,556.4Z"/><path class="cls-1" d="M3108,703.2,2984.4,521.4H3030l97.3,146.4,97.3-146.4h45.6L3147,703.2V836.4h-39Z"/><path class="cls-1" d="M3575,582.3l-69.4,254.1h-42.5l-89.7-315h43.4L3486.7,784,3559,521.4h32.6L3663.9,784l69.4-262.6h43.4l-89.7,315h-42.5Z"/><path class="cls-1" d="M4135,691.4H3951v144h-39v-314h39v135h184v-135h39v314h-39Z"/><path class="cls-1" d="M4340,521.4h206v35H4379v101h164v35H4379v109h167v35H4340Z"/><path class="cls-1" d="M4801.7,711.4H4739v125h-39v-315h125.9c57.3,0,98.2,36.8,98.2,94.9,0,56.7-38.5,87.8-81.3,91.6l84.6,128.5h-45.5Zm19.7-155H4739v120h82.4c37.2,0,62.6-24.9,62.6-60.2S4858.5,556.4,4821.4,556.4Z"/><path class="cls-1" d="M5078,521.4h207v35H5118v101h163v35H5118v109h167v35H5078Z"/><path class="cls-1" d="M687.7,0C307.9,0,0,307.8,0,687.7s307.9,687.7,687.7,687.7,687.7-307.9,687.7-687.7S1067.5,0,687.7,0Zm0,1327.2c-353.2,0-639.5-286.3-639.5-639.5S334.5,48.2,687.7,48.2s639.5,286.3,639.5,639.5S1040.9,1327.2,687.7,1327.2Z"/></svg>